<svg width="25" height="24" viewBox="0 0 25 24" fill="none" xmlns="http://www.w3.org/2000/svg">
<path d="M14.682 9.74661H8.09974C7.91798 9.74661 7.77063 9.9087 7.77063 10.1086V15.1769C7.77063 15.3769 7.91798 15.539 8.09974 15.539H14.682C14.8637 15.539 15.0111 15.3769 15.0111 15.1769V10.1086C15.0111 9.9087 14.8637 9.74661 14.682 9.74661Z" stroke="black" stroke-linecap="round" stroke-linejoin="round"/>
<path d="M11.3908 13.0953C11.6407 13.0953 11.8433 12.8927 11.8433 12.6428C11.8433 12.3929 11.6407 12.1902 11.3908 12.1902C11.1409 12.1902 10.9383 12.3929 10.9383 12.6428C10.9383 12.8927 11.1409 13.0953 11.3908 13.0953Z" fill="black"/>
<path d="M9.94275 9.74659V8.6203C9.94275 8.24691 10.0953 7.88881 10.3669 7.62479C10.6385 7.36076 11.0068 7.21243 11.3908 7.21243C11.7749 7.21243 12.1432 7.36076 12.4148 7.62479C12.6864 7.88881 12.8389 8.24691 12.8389 8.6203V9.74659" stroke="black" stroke-linecap="round" stroke-linejoin="round"/>
<path d="M16.8107 9.84487H21.1216V5.53391" stroke="black" stroke-linecap="round" stroke-linejoin="round"/>
<path d="M17.2059 17.7483C16.0761 18.8144 14.6572 19.5239 13.1265 19.7882C11.5957 20.0525 10.0211 19.8598 8.59918 19.2343C7.17731 18.6088 5.9713 17.5781 5.13183 16.2711C4.29236 14.9641 3.85667 13.4386 3.87919 11.8854C3.90171 10.3322 4.38144 8.82005 5.25844 7.53791C6.13544 6.25578 7.37082 5.26051 8.81023 4.67646C10.2496 4.09242 11.8292 3.94549 13.3517 4.25405C14.8741 4.5626 16.2719 5.31296 17.3703 6.41135L21.1217 9.84485" stroke="black" stroke-linecap="round" stroke-linejoin="round"/>
</svg>
