<svg width="50" height="50" viewBox="0 0 50 50" fill="none" xmlns="http://www.w3.org/2000/svg">
<circle cx="25" cy="25" r="24.75" stroke="#183883" stroke-width="0.5"/>
<path d="M25 33H18C17.4696 33 16.9609 32.7893 16.5858 32.4142C16.2107 32.0391 16 31.5304 16 31V19C16 18.4696 16.2107 17.9609 16.5858 17.5858C16.9609 17.2107 17.4696 17 18 17H30C30.5304 17 31.0391 17.2107 31.4142 17.5858C31.7893 17.9609 32 18.4696 32 19V22M28 15V19M20 15V19M16 23H28.5" stroke="#183883" stroke-linecap="round" stroke-linejoin="round"/>
<path d="M34 28H29H30.3636C30.8458 28 31.3083 28.1916 31.6493 28.5325C31.9903 28.8735 32.1818 29.336 32.1818 29.8182C32.1818 30.3004 31.9903 30.7629 31.6493 31.1038C31.3083 31.4448 30.8458 31.6364 30.3636 31.6364H29L31.7273 34.3636M29 29.8182H34" stroke="#183883" stroke-width="0.8" stroke-linecap="round" stroke-linejoin="round"/>
</svg>
