<svg width="50" height="50" viewBox="0 0 50 50" fill="none" xmlns="http://www.w3.org/2000/svg">
<path d="M35.6012 28.7687C35.4962 28.4762 35.4587 28.3675 35.44 28.3225C35.3346 28.0402 35.1416 27.799 34.8892 27.6344C34.6368 27.4697 34.3383 27.3902 34.0375 27.4075C33.9812 27.4075 33.925 27.4112 33.865 27.415C33.4 27.4525 32.9425 27.5312 32.5 27.6025C32.1212 27.6662 31.7275 27.73 31.345 27.7712C30.47 27.871 29.5892 27.9111 28.7087 27.8912C27.967 27.869 27.2271 27.8051 26.4925 27.7C26.5248 27.4396 26.4819 27.1754 26.3687 26.9387C26.2755 26.7478 26.1421 26.5793 25.9777 26.4447C25.8133 26.3101 25.6218 26.2125 25.4162 26.1587L21.8612 25.1912C21.2999 25.0414 20.7106 25.0298 20.1437 25.1575L18.6137 25.4987V24.2237C18.6137 24.0248 18.5347 23.834 18.3941 23.6934C18.2534 23.5527 18.0627 23.4737 17.8637 23.4737H15.0625C14.8636 23.4737 14.6728 23.5527 14.5322 23.6934C14.3915 23.834 14.3125 24.0248 14.3125 24.2237V33.5987C14.3131 33.7975 14.3923 33.9879 14.5328 34.1284C14.6733 34.2689 14.8638 34.3481 15.0625 34.3487H17.8637C18.0625 34.3481 18.2529 34.2689 18.3934 34.1284C18.5339 33.9879 18.6132 33.7975 18.6137 33.5987V32.6162L24.8125 33.7412C25.0971 33.7924 25.3858 33.8175 25.675 33.8162C26.2782 33.8165 26.8761 33.7033 27.4375 33.4825L34.7575 30.5837C35.1085 30.4528 35.3938 30.189 35.5517 29.8493C35.7096 29.5096 35.7274 29.1214 35.6012 28.7687ZM17.8637 33.5987H15.0625V24.2237H17.8637V33.5987ZM34.48 29.8862L27.1637 32.785C26.4597 33.0627 25.6921 33.138 24.9475 33.0025L18.6137 31.855V26.2675L20.3087 25.8887C20.7568 25.7886 21.2224 25.7976 21.6662 25.915L25.2175 26.8825C25.3199 26.9078 25.4156 26.9551 25.4979 27.0211C25.5801 27.0872 25.647 27.1704 25.6937 27.265C25.7344 27.3489 25.7565 27.4405 25.7584 27.5337C25.7604 27.6269 25.7421 27.7195 25.705 27.805C25.6396 27.9474 25.5316 28.0661 25.396 28.1447C25.2603 28.2233 25.1036 28.2579 24.9475 28.2437L21.865 27.6062C21.7681 27.5862 21.6671 27.6053 21.5843 27.6594C21.5014 27.7135 21.4432 27.7982 21.4225 27.895C21.4024 27.9924 21.4214 28.0938 21.4755 28.1773C21.5295 28.2607 21.6142 28.3196 21.7112 28.3412L24.8162 28.9825C24.8285 28.9856 24.8411 28.9868 24.8537 28.9862C24.9035 28.9924 24.9536 28.9949 25.0037 28.9937C25.2343 28.9939 25.462 28.942 25.6697 28.842C25.8775 28.7421 26.06 28.5965 26.2037 28.4162C27.0259 28.5417 27.8549 28.6168 28.6862 28.6412C29.6005 28.6618 30.5151 28.6205 31.4237 28.5175C31.8287 28.4725 32.2337 28.4087 32.6237 28.3412C33.0512 28.27 33.4937 28.1987 33.9287 28.1612C34.0904 28.1296 34.258 28.1534 34.4043 28.229C34.5507 28.3046 34.6672 28.4274 34.735 28.5775V28.5812L34.8962 29.0237C34.9546 29.1933 34.9436 29.3791 34.8656 29.5406C34.7877 29.7022 34.6491 29.8264 34.48 29.8862Z" fill="#183883"/>
<path d="M33.7823 20.605L32.9798 19.5812L33.1635 18.295C33.1743 18.2118 33.1574 18.1275 33.1154 18.0549C33.0733 17.9824 33.0086 17.9257 32.931 17.8937L31.7273 17.4137L31.2435 16.2062C31.2119 16.1285 31.1554 16.0634 31.0827 16.0213C31.0101 15.9792 30.9255 15.9625 30.8423 15.9737L29.556 16.1575L28.536 15.3587C28.4701 15.3059 28.3881 15.2771 28.3035 15.2771C28.219 15.2771 28.137 15.3059 28.071 15.3587L27.051 16.1575L25.7648 15.9737C25.6816 15.9625 25.597 15.9792 25.5244 16.0213C25.4517 16.0634 25.3952 16.1285 25.3635 16.2062L24.8798 17.4137L23.676 17.8937C23.5985 17.9257 23.5338 17.9824 23.4917 18.0549C23.4497 18.1275 23.4328 18.2118 23.4435 18.295L23.6273 19.5812L22.8248 20.605C22.7738 20.671 22.7461 20.7521 22.7461 20.8356C22.7461 20.9191 22.7738 21.0002 22.8248 21.0662L23.6273 22.09L23.4435 23.3725C23.431 23.4558 23.4472 23.541 23.4894 23.6139C23.5317 23.6868 23.5975 23.7432 23.676 23.7737L24.8798 24.2575L25.3635 25.4612C25.3947 25.5394 25.4512 25.6048 25.5239 25.6469C25.5967 25.6891 25.6815 25.7056 25.7648 25.6937L27.051 25.51L28.071 26.3125C28.1376 26.3638 28.2195 26.3916 28.3035 26.3912C28.3875 26.3909 28.4692 26.3633 28.536 26.3125L29.556 25.51L30.8423 25.6937C30.9251 25.7059 31.0096 25.6899 31.0823 25.6485C31.155 25.607 31.2118 25.5424 31.2435 25.465L31.7273 24.2575L32.931 23.7737C33.0092 23.7426 33.0746 23.6861 33.1168 23.6134C33.1589 23.5406 33.1754 23.4558 33.1635 23.3725L32.9798 22.09L33.7823 21.0662C33.8333 21.0002 33.861 20.9191 33.861 20.8356C33.861 20.7521 33.8333 20.671 33.7823 20.605ZM32.2898 21.7525C32.2584 21.7923 32.2355 21.8381 32.2226 21.8872C32.2097 21.9362 32.207 21.9874 32.2148 22.0375L32.3798 23.1887L31.296 23.62C31.249 23.6388 31.2064 23.6672 31.1709 23.7034C31.1354 23.7395 31.1078 23.7826 31.0898 23.83L30.6548 24.91L29.5035 24.745C29.4532 24.7381 29.402 24.7416 29.353 24.7551C29.304 24.7686 29.2582 24.792 29.2185 24.8237L28.3035 25.54L27.3885 24.8237C27.3223 24.7713 27.2405 24.7423 27.156 24.7412C27.1373 24.7412 27.1185 24.745 27.1035 24.745L25.9485 24.91L25.5173 23.83C25.4984 23.7825 25.4701 23.7394 25.434 23.7033C25.3979 23.6672 25.3548 23.6388 25.3073 23.62L24.2273 23.1887L24.3923 22.0375C24.3991 21.9874 24.396 21.9364 24.3832 21.8875C24.3703 21.8386 24.3479 21.7927 24.3173 21.7525L23.5973 20.8337L24.3173 19.9187C24.3479 19.8785 24.3703 19.8326 24.3832 19.7837C24.396 19.7348 24.3991 19.6838 24.3923 19.6337L24.2273 18.4825L25.3073 18.0475C25.3546 18.0295 25.3978 18.0019 25.4339 17.9664C25.47 17.9309 25.4984 17.8883 25.5173 17.8412L25.9485 16.7612L27.1035 16.9225C27.1537 16.93 27.2048 16.9272 27.2538 16.9143C27.3028 16.9015 27.3486 16.8787 27.3885 16.8475L28.3035 16.1275L29.2185 16.8475C29.2585 16.8787 29.3043 16.9015 29.3533 16.9143C29.4023 16.9272 29.4534 16.93 29.5035 16.9225L30.6548 16.7612L31.0898 17.8412C31.1085 17.8878 31.1364 17.93 31.1718 17.9655C31.2073 18.0009 31.2495 18.0288 31.296 18.0475L32.3798 18.4825L32.2148 19.6337C32.207 19.6838 32.2097 19.735 32.2226 19.784C32.2355 19.8331 32.2584 19.8789 32.2898 19.9187L33.0098 20.8337L32.2898 21.7525Z" fill="#183883"/>
<path d="M26.4297 18.3962C26.2072 18.3962 25.9897 18.4622 25.8047 18.5858C25.6197 18.7095 25.4755 18.8852 25.3903 19.0907C25.3052 19.2963 25.2829 19.5225 25.3263 19.7407C25.3697 19.9589 25.4769 20.1594 25.6342 20.3167C25.7915 20.4741 25.992 20.5812 26.2102 20.6246C26.4284 20.668 26.6546 20.6458 26.8602 20.5606C27.0658 20.4755 27.2415 20.3313 27.3651 20.1463C27.4887 19.9613 27.5547 19.7437 27.5547 19.5212C27.5547 19.2229 27.4362 18.9367 27.2252 18.7257C27.0142 18.5148 26.7281 18.3962 26.4297 18.3962ZM26.4297 19.8962C26.3555 19.8962 26.283 19.8742 26.2213 19.833C26.1597 19.7918 26.1116 19.7333 26.0832 19.6647C26.0548 19.5962 26.0474 19.5208 26.0619 19.4481C26.0764 19.3753 26.1121 19.3085 26.1645 19.2561C26.217 19.2036 26.2838 19.1679 26.3565 19.1534C26.4293 19.139 26.5047 19.1464 26.5732 19.1748C26.6417 19.2032 26.7003 19.2512 26.7415 19.3129C26.7827 19.3746 26.8047 19.4471 26.8047 19.5212C26.8047 19.6207 26.7652 19.7161 26.6949 19.7864C26.6245 19.8567 26.5291 19.8962 26.4297 19.8962Z" fill="#183883"/>
<path d="M30.1797 21.0212C29.9572 21.0212 29.7397 21.0872 29.5547 21.2108C29.3697 21.3345 29.2255 21.5102 29.1403 21.7157C29.0552 21.9213 29.0329 22.1475 29.0763 22.3657C29.1197 22.5839 29.2269 22.7844 29.3842 22.9417C29.5415 23.0991 29.742 23.2062 29.9602 23.2496C30.1784 23.293 30.4046 23.2708 30.6102 23.1856C30.8158 23.1005 30.9915 22.9563 31.1151 22.7713C31.2387 22.5863 31.3047 22.3687 31.3047 22.1462C31.3047 21.8479 31.1862 21.5617 30.9752 21.3507C30.7642 21.1398 30.4781 21.0212 30.1797 21.0212ZM30.1797 22.5212C30.1055 22.5212 30.033 22.4992 29.9713 22.458C29.9097 22.4168 29.8616 22.3583 29.8332 22.2897C29.8048 22.2212 29.7974 22.1458 29.8119 22.0731C29.8264 22.0003 29.8621 21.9335 29.9145 21.8811C29.967 21.8286 30.0338 21.7929 30.1065 21.7784C30.1793 21.764 30.2547 21.7714 30.3232 21.7998C30.3917 21.8282 30.4503 21.8762 30.4915 21.9379C30.5327 21.9996 30.5547 22.0721 30.5547 22.1462C30.5547 22.2457 30.5152 22.3411 30.4449 22.4114C30.3745 22.4817 30.2791 22.5212 30.1797 22.5212Z" fill="#183883"/>
<path d="M26.1488 22.7732C26.1818 22.8099 26.2216 22.8397 26.2661 22.861C26.3105 22.8822 26.3587 22.8945 26.4079 22.8971C26.4572 22.8997 26.5064 22.8926 26.5529 22.8762C26.5993 22.8598 26.6421 22.8343 26.6787 22.8014L30.4287 19.4264C30.5027 19.3598 30.5471 19.2666 30.5524 19.1673C30.5576 19.068 30.5232 18.9706 30.4567 18.8967C30.3901 18.8227 30.2969 18.7783 30.1976 18.773C30.0983 18.7678 30.0009 18.8022 29.927 18.8687L26.177 22.2437C26.103 22.3102 26.0585 22.4034 26.0533 22.5027C26.048 22.602 26.0824 22.6993 26.1488 22.7732Z" fill="#183883"/>
<circle cx="25" cy="25" r="24.75" stroke="#183883" stroke-width="0.5"/>
</svg>
