<svg width="53" height="53" viewBox="0 0 53 53" fill="none" xmlns="http://www.w3.org/2000/svg">
<circle cx="26.5" cy="26.5" r="26.25" stroke="#183883" stroke-width="0.5"/>
<path d="M29 18V22C29 22.2652 29.1054 22.5196 29.2929 22.7071C29.4804 22.8946 29.7348 23 30 23H34M29 18H22C21.4696 18 20.9609 18.2107 20.5858 18.5858C20.2107 18.9609 20 19.4696 20 20V34C20 34.5304 20.2107 35.0391 20.5858 35.4142C20.9609 35.7893 21.4696 36 22 36H32C32.5304 36 33.0391 35.7893 33.4142 35.4142C33.7893 35.0391 34 34.5304 34 34V23M29 18L34 23M24 32H30M24 28H30" stroke="#183883" stroke-linecap="round" stroke-linejoin="round"/>
<path d="M18.5 16.5L35.5 38" stroke="#AE2121" stroke-linecap="round"/>
</svg>
