<svg width="54" height="53" viewBox="0 0 54 53" fill="none" xmlns="http://www.w3.org/2000/svg">
<circle cx="27.332" cy="26.5" r="26.25" stroke="#183883" stroke-width="0.5"/>
<path d="M30 36H21C20.2044 36 19.4413 35.6839 18.8787 35.1213C18.3161 34.5587 18 33.7957 18 33V32H28V34C28 34.5304 28.2107 35.0391 28.5858 35.4142C28.9609 35.7893 29.4696 36 30 36ZM30 36C30.5304 36 31.0391 35.7893 31.4142 35.4142C31.7893 35.0391 32 34.5304 32 34V20C32 19.6044 32.1173 19.2178 32.3371 18.8889C32.5568 18.56 32.8692 18.3036 33.2346 18.1522C33.6001 18.0009 34.0022 17.9613 34.3902 18.0384C34.7781 18.1156 35.1345 18.3061 35.4142 18.5858C35.6939 18.8655 35.8844 19.2219 35.9616 19.6098C36.0387 19.9978 35.9991 20.3999 35.8478 20.7654C35.6964 21.1308 35.44 21.4432 35.1111 21.6629C34.7822 21.8827 34.3956 22 34 22H32M34 18H23C22.2044 18 21.4413 18.3161 20.8787 18.8787C20.3161 19.4413 20 20.2044 20 21V32M24 22H28M24 26H28" stroke="#183883" stroke-linecap="round" stroke-linejoin="round"/>
</svg>
