<svg width="50" height="50" viewBox="0 0 50 50" fill="none" xmlns="http://www.w3.org/2000/svg">
<g clip-path="url(#clip0_384_261)">
<path d="M25 49.75C38.669 49.75 49.75 38.669 49.75 25C49.75 11.331 38.669 0.25 25 0.25C11.331 0.25 0.25 11.331 0.25 25C0.25 38.669 11.331 49.75 25 49.75Z" stroke="#183883" stroke-width="0.5"/>
<path d="M27 33L25 31.0274L23 33L21 31.0274L18 33V17.9726L21 16L23 17.9726L25 16L27 17.9726L29 16L32 17.9726V27" stroke="#183883" stroke-width="0.8" stroke-linecap="round" stroke-linejoin="round"/>
<path d="M20.5 29H27" stroke="#183883" stroke-width="0.5" stroke-linecap="round"/>
<path d="M21 27H26" stroke="#183883" stroke-width="0.5" stroke-linecap="round"/>
<path d="M28.2664 32.8394C28.0905 32.4148 28 31.9596 28 31.5C28 31.0404 28.0905 30.5852 28.2664 30.1606C28.4423 29.736 28.7001 29.3501 29.0251 29.0251C29.3501 28.7001 29.736 28.4423 30.1606 28.2664C30.5852 28.0905 31.0404 28 31.5 28C31.9596 28 32.4148 28.0905 32.8394 28.2664M30.1606 34.7336C30.5852 34.9095 31.0404 35 31.5 35C31.9596 35 32.4148 34.9095 32.8394 34.7336C33.264 34.5577 33.6499 34.2999 33.9749 33.9749C34.2999 33.6499 34.5577 33.264 34.7336 32.8394C34.9095 32.4148 35 31.9596 35 31.5C35 31.0404 34.9095 30.5852 34.7336 30.1606M32.6667 29.9444H30.3333H30.7222C31.0316 29.9444 31.3284 30.0674 31.5472 30.2862C31.766 30.5049 31.8889 30.8017 31.8889 31.1111C31.8889 31.4205 31.766 31.7173 31.5472 31.9361C31.3284 32.1549 31.0316 32.2778 30.7222 32.2778H30.3333L31.5 33.4444M30.3333 31.1111H32.6667" stroke="#183883" stroke-width="0.4" stroke-linecap="round" stroke-linejoin="round"/>
<path d="M21.3525 24V21.0909H23.0968V21.4034H21.7047V22.3864H22.9661V22.6989H21.7047V24H21.3525ZM24.4093 24.0455C24.1991 24.0455 24.0177 23.9991 23.8653 23.9062C23.7137 23.8125 23.5968 23.6818 23.5144 23.5142C23.433 23.3456 23.3922 23.1496 23.3922 22.9261C23.3922 22.7027 23.433 22.5057 23.5144 22.3352C23.5968 22.1638 23.7114 22.0303 23.8582 21.9347C24.0059 21.8381 24.1782 21.7898 24.3752 21.7898C24.4888 21.7898 24.6011 21.8087 24.7118 21.8466C24.8226 21.8845 24.9235 21.946 25.0144 22.0312C25.1053 22.1155 25.1778 22.2273 25.2317 22.3665C25.2857 22.5057 25.3127 22.6771 25.3127 22.8807V23.0227H23.6309V22.733H24.9718C24.9718 22.6098 24.9472 22.5 24.8979 22.4034C24.8496 22.3068 24.7805 22.2306 24.6905 22.1747C24.6015 22.1188 24.4964 22.0909 24.3752 22.0909C24.2417 22.0909 24.1261 22.1241 24.0286 22.1903C23.932 22.2557 23.8577 22.3409 23.8056 22.446C23.7535 22.5511 23.7275 22.6638 23.7275 22.7841V22.9773C23.7275 23.142 23.7559 23.2817 23.8127 23.3963C23.8705 23.5099 23.9505 23.5966 24.0528 23.6562C24.155 23.715 24.2739 23.7443 24.4093 23.7443C24.4974 23.7443 24.5769 23.732 24.6479 23.7074C24.7199 23.6818 24.7819 23.6439 24.834 23.5938C24.8861 23.5426 24.9263 23.4792 24.9547 23.4034L25.2786 23.4943C25.2445 23.6042 25.1872 23.7008 25.1067 23.7841C25.0262 23.8665 24.9268 23.9309 24.8084 23.9773C24.6901 24.0227 24.557 24.0455 24.4093 24.0455ZM26.7374 24.0455C26.5272 24.0455 26.3458 23.9991 26.1934 23.9062C26.0419 23.8125 25.9249 23.6818 25.8425 23.5142C25.7611 23.3456 25.7204 23.1496 25.7204 22.9261C25.7204 22.7027 25.7611 22.5057 25.8425 22.3352C25.9249 22.1638 26.0395 22.0303 26.1863 21.9347C26.334 21.8381 26.5064 21.7898 26.7033 21.7898C26.817 21.7898 26.9292 21.8087 27.04 21.8466C27.1508 21.8845 27.2516 21.946 27.3425 22.0312C27.4334 22.1155 27.5059 22.2273 27.5599 22.3665C27.6138 22.5057 27.6408 22.6771 27.6408 22.8807V23.0227H25.959V22.733H27.2999C27.2999 22.6098 27.2753 22.5 27.2261 22.4034C27.1778 22.3068 27.1086 22.2306 27.0187 22.1747C26.9297 22.1188 26.8245 22.0909 26.7033 22.0909C26.5698 22.0909 26.4543 22.1241 26.3567 22.1903C26.2601 22.2557 26.1858 22.3409 26.1337 22.446C26.0816 22.5511 26.0556 22.6638 26.0556 22.7841V22.9773C26.0556 23.142 26.084 23.2817 26.1408 23.3963C26.1986 23.5099 26.2786 23.5966 26.3809 23.6562C26.4832 23.715 26.602 23.7443 26.7374 23.7443C26.8255 23.7443 26.905 23.732 26.9761 23.7074C27.048 23.6818 27.11 23.6439 27.1621 23.5938C27.2142 23.5426 27.2545 23.4792 27.2829 23.4034L27.6067 23.4943C27.5726 23.6042 27.5154 23.7008 27.4349 23.7841C27.3544 23.8665 27.2549 23.9309 27.1366 23.9773C27.0182 24.0227 26.8851 24.0455 26.7374 24.0455Z" fill="#183883"/>
</g>
<defs>
<clipPath id="clip0_384_261">
<rect width="50" height="50" fill="white"/>
</clipPath>
</defs>
</svg>
