<svg width="50" height="50" viewBox="0 0 50 50" fill="none" xmlns="http://www.w3.org/2000/svg">
<circle cx="25" cy="25" r="24.75" stroke="#183883" stroke-width="0.5"/>
<path d="M24 34C22.8181 34 21.6478 33.7672 20.5558 33.3149C19.4639 32.8626 18.4718 32.1997 17.636 31.364C16.8003 30.5282 16.1374 29.5361 15.6851 28.4442C15.2328 27.3522 15 26.1819 15 25C15 23.8181 15.2328 22.6478 15.6851 21.5558C16.1374 20.4639 16.8003 19.4718 17.636 18.636C18.4718 17.8003 19.4639 17.1374 20.5558 16.6851C21.6478 16.2328 22.8181 16 24 16M24 34C25.1819 34 26.3522 33.7672 27.4442 33.3149M24 34V16M33 25C33 23.8181 32.7672 22.6478 32.3149 21.5558C31.8626 20.4639 31.1997 19.4718 30.364 18.636C29.5282 17.8003 28.5361 17.1374 27.4442 16.6851C26.3522 16.2328 25.1819 16 24 16M27.4442 29L24 25L17.6992 31.3" stroke="#183883" stroke-linecap="round" stroke-linejoin="round"/>
<path d="M31.75 29.75V29.375C31.75 29.2755 31.7895 29.1802 31.8598 29.1098C31.9302 29.0395 32.0255 29 32.125 29H32.875C32.9745 29 33.0698 29.0395 33.1402 29.1098C33.2105 29.1802 33.25 29.2755 33.25 29.375V29.75M32.125 30.875H32.875M32.5 30.5V31.25M31 30.125C31 30.0255 31.0395 29.9302 31.1098 29.8598C31.1802 29.7895 31.2755 29.75 31.375 29.75H33.625C33.7245 29.75 33.8198 29.7895 33.8902 29.8598C33.9605 29.9302 34 30.0255 34 30.125V31.625C34 31.7245 33.9605 31.8198 33.8902 31.8902C33.8198 31.9605 33.7245 32 33.625 32H31.375C31.2755 32 31.1802 31.9605 31.1098 31.8902C31.0395 31.8198 31 31.7245 31 31.625V30.125Z" stroke="#183883" stroke-width="0.3" stroke-linecap="round" stroke-linejoin="round"/>
<path d="M31 29L34 32.5" stroke="#AE2121" stroke-width="0.3" stroke-linecap="round"/>
<circle cx="32.5" cy="30.5" r="3.3" stroke="#183883" stroke-width="0.4"/>
</svg>
