<svg width="50" height="50" viewBox="0 0 50 50" fill="none" xmlns="http://www.w3.org/2000/svg">
<g clip-path="url(#clip0_285_236)">
<path d="M15 24.6429H35M19.4444 29.2857H19.4556M23.8889 29.2857H26.1111M15 22.7857C15 22.0469 15.3512 21.3383 15.9763 20.8159C16.6014 20.2935 17.4493 20 18.3333 20H31.6667C32.5507 20 33.3986 20.2935 34.0237 20.8159C34.6488 21.3383 35 22.0469 35 22.7857V30.2143C35 30.9531 34.6488 31.6617 34.0237 32.1841C33.3986 32.7065 32.5507 33 31.6667 33H18.3333C17.4493 33 16.6014 32.7065 15.9763 32.1841C15.3512 31.6617 15 30.9531 15 30.2143V22.7857Z" stroke="#183883" stroke-linecap="round" stroke-linejoin="round"/>
<circle cx="25" cy="25" r="24.5" stroke="#183883"/>
</g>
<defs>
<clipPath id="clip0_285_236">
<rect width="50" height="50" fill="white"/>
</clipPath>
</defs>
</svg>
