<svg width="50" height="50" viewBox="0 0 50 50" fill="none" xmlns="http://www.w3.org/2000/svg">
<g clip-path="url(#clip0_289_272)">
<path d="M25 49.5C38.531 49.5 49.5 38.531 49.5 25C49.5 11.469 38.531 0.5 25 0.5C11.469 0.5 0.5 11.469 0.5 25C0.5 38.531 11.469 49.5 25 49.5Z" stroke="#183883"/>
<path fill-rule="evenodd" clip-rule="evenodd" d="M28.7542 20.7972L30.4527 18.3142C28.8823 18.4078 26.983 18.7766 25.1606 19.3038C23.9223 19.662 22.5433 19.608 21.2612 19.3714C20.8574 19.2969 20.4596 19.2036 20.0744 19.0975L21.2281 20.796C23.5839 21.6656 26.398 21.666 28.7542 20.7972ZM20.6408 21.6417C23.3511 22.7177 26.6375 22.7174 29.3475 21.6407C30.4494 22.7838 31.5875 24.2063 32.4645 25.6943C33.3813 27.2498 33.96 28.7882 33.998 30.1096C34.034 31.3602 33.5947 32.4375 32.3571 33.2647C31.0455 34.1413 28.7601 34.7857 25.012 34.8219C21.2629 34.8582 18.974 34.2575 17.6587 33.4071C16.4209 32.6069 15.973 31.5411 16.0012 30.2836C16.0311 28.9542 16.6031 27.3936 17.5179 25.8052C18.3912 24.2888 19.5297 22.8286 20.6408 21.6417ZM19.831 17.9832C20.3447 18.1449 20.8888 18.2858 21.4426 18.388C22.6415 18.6092 23.8494 18.6421 24.8827 18.3432C26.196 17.9633 27.5746 17.6554 28.8665 17.473C27.7641 17.1101 26.4313 16.8235 25.0217 16.8235C22.9872 16.8235 21.0984 17.4205 19.831 17.9832ZM18.8735 17.3296C20.2259 16.6522 22.5125 15.8235 25.0217 15.8235C27.4844 15.8235 29.7154 16.6218 31.062 17.2919C31.0846 17.3031 31.107 17.3143 31.1291 17.3255C31.4919 17.5089 31.7868 17.6813 32 17.8235L29.9478 20.8235C34.6787 25.6598 40.3251 35.674 25.0217 35.8219C9.7182 35.9698 15.2659 25.8448 20.0379 20.8235L18 17.8235C18.1426 17.7298 18.321 17.6229 18.5311 17.5084C18.6373 17.4505 18.7516 17.3907 18.8735 17.3296Z" fill="#183883"/>
<path d="M27.4063 26.9258L27.1992 27.6133H22.2852L22.4883 26.9258H27.4063ZM25.418 33L22.3477 29.3945L22.3398 28.8906H23.6836C24.0898 28.8906 24.4362 28.832 24.7227 28.7148C25.0091 28.5951 25.2279 28.418 25.3789 28.1836C25.5326 27.9492 25.6094 27.6589 25.6094 27.3125C25.6094 26.8021 25.4492 26.401 25.1289 26.1094C24.8112 25.8151 24.3555 25.668 23.7617 25.668H22.2852L22.4883 25H23.7617C24.3346 25 24.8138 25.099 25.1992 25.2969C25.5872 25.4948 25.8789 25.7682 26.0742 26.1172C26.2721 26.4635 26.3711 26.862 26.3711 27.3125C26.3711 27.7344 26.276 28.1146 26.0859 28.4531C25.8984 28.7891 25.6081 29.056 25.2148 29.2539C24.8242 29.4492 24.3255 29.5469 23.7188 29.5469H23.4375L26.3281 32.9414V33H25.418ZM27.4336 25L27.2305 25.6875L23.0898 25.668L23.2773 25H27.4336Z" fill="#183883"/>
</g>
<defs>
<clipPath id="clip0_289_272">
<rect width="50" height="50" fill="white"/>
</clipPath>
</defs>
</svg>
