<svg width="50" height="50" viewBox="0 0 50 50" fill="none" xmlns="http://www.w3.org/2000/svg">
<g clip-path="url(#clip0_289_282)">
<path d="M25 49.5C38.531 49.5 49.5 38.531 49.5 25C49.5 11.469 38.531 0.5 25 0.5C11.469 0.5 0.5 11.469 0.5 25C0.5 38.531 11.469 49.5 25 49.5Z" stroke="#183883"/>
<path d="M22 28.0003L28 22.0003M24 19.0003L24.463 18.4643C25.4008 17.5266 26.6727 16.9999 27.9989 17C29.325 17.0001 30.5968 17.527 31.5345 18.4648C32.4722 19.4026 32.9989 20.6745 32.9988 22.0007C32.9987 23.3268 32.4718 24.5986 31.534 25.5363L31 26.0003M26.0001 31.0003L25.6031 31.5343C24.6544 32.4725 23.3739 32.9987 22.0396 32.9987C20.7054 32.9987 19.4249 32.4725 18.4761 31.5343C18.0085 31.0719 17.6372 30.5213 17.3839 29.9144C17.1305 29.3076 17 28.6565 17 27.9988C17 27.3412 17.1305 26.69 17.3839 26.0832C17.6372 25.4763 18.0085 24.9257 18.4761 24.4633L19.0001 24.0003" stroke="#183883" stroke-linecap="round" stroke-linejoin="round"/>
</g>
<defs>
<clipPath id="clip0_289_282">
<rect width="50" height="50" fill="white"/>
</clipPath>
</defs>
</svg>
