<svg width="50" height="50" viewBox="0 0 50 50" fill="none" xmlns="http://www.w3.org/2000/svg">
<g clip-path="url(#clip0_275_123)">
<path d="M25 49.5C38.531 49.5 49.5 38.531 49.5 25C49.5 11.469 38.531 0.5 25 0.5C11.469 0.5 0.5 11.469 0.5 25C0.5 38.531 11.469 49.5 25 49.5Z" stroke="#183883"/>
<path d="M29.75 23.75V23.7625M17.466 20.4725C16.9178 20.0511 16.4967 19.4864 16.2494 18.8407C16.002 18.1949 15.938 17.4934 16.0644 16.8136C16.1909 16.1338 16.5028 15.5021 16.9657 14.9885C17.4287 14.4749 18.0246 14.0993 18.6877 13.9032C19.3508 13.7071 20.0552 13.6981 20.723 13.8773C21.3909 14.0565 21.9962 14.4169 22.472 14.9186C22.9479 15.4203 23.2757 16.0437 23.4194 16.7201C23.5631 17.3965 23.5169 18.0994 23.286 18.7512M31 15V19.7537C32.547 20.6489 33.7248 22.0656 34.3225 23.75H35.9988C36.3303 23.75 36.6482 23.8817 36.8827 24.1161C37.1171 24.3505 37.2488 24.6685 37.2488 25V27.5C37.2488 27.8315 37.1171 28.1495 36.8827 28.3839C36.6482 28.6183 36.3303 28.75 35.9988 28.75H34.3213C33.9013 29.9375 33.1875 31 32.2488 31.8412V34.375C32.2488 34.8723 32.0512 35.3492 31.6996 35.7008C31.348 36.0524 30.871 36.25 30.3738 36.25C29.8765 36.25 29.3996 36.0524 29.0479 35.7008C28.6963 35.3492 28.4988 34.8723 28.4988 34.375V33.6462C28.0857 33.7154 27.6676 33.7501 27.2488 33.75H22.2488C21.8299 33.7501 21.4118 33.7154 20.9988 33.6462V34.375C20.9988 34.8723 20.8012 35.3492 20.4496 35.7008C20.098 36.0524 19.621 36.25 19.1238 36.25C18.6265 36.25 18.1496 36.0524 17.7979 35.7008C17.4463 35.3492 17.2488 34.8723 17.2488 34.375V31.8412C16.1162 30.8287 15.3179 29.4961 14.9594 28.0198C14.6009 26.5435 14.6992 24.9932 15.2412 23.574C15.7832 22.1548 16.7435 20.9337 17.9948 20.0723C19.2462 19.2109 20.7296 18.7497 22.2488 18.75H25.3738L30.9988 15H31Z" stroke="#183883" stroke-linecap="round" stroke-linejoin="round"/>
<path d="M26.8976 24.3736L26.6718 25.1236H21.311L21.5326 24.3736H26.8976ZM24.7286 31L21.3792 27.0668L21.3706 26.517H22.8365C23.2797 26.517 23.6576 26.4531 23.9701 26.3253C24.2826 26.1946 24.5212 26.0014 24.686 25.7457C24.8536 25.4901 24.9374 25.1733 24.9374 24.7955C24.9374 24.2386 24.7627 23.8011 24.4133 23.483C24.0667 23.1619 23.5695 23.0014 22.9218 23.0014H21.311L21.5326 22.2727H22.9218C23.5468 22.2727 24.0695 22.3807 24.49 22.5966C24.9133 22.8125 25.2314 23.1108 25.4445 23.4915C25.6604 23.8693 25.7684 24.304 25.7684 24.7955C25.7684 25.2557 25.6647 25.6705 25.4573 26.0398C25.2527 26.4062 24.936 26.6974 24.507 26.9134C24.0809 27.1264 23.5368 27.233 22.8749 27.233H22.5681L25.7215 30.9361V31H24.7286ZM26.9275 22.2727L26.7059 23.0227L22.1888 23.0014L22.3934 22.2727H26.9275Z" fill="#183883"/>
</g>
<defs>
<clipPath id="clip0_275_123">
<rect width="50" height="50" fill="white"/>
</clipPath>
</defs>
</svg>
