<svg width="51" height="53" viewBox="0 0 51 53" fill="none" xmlns="http://www.w3.org/2000/svg">
<g id="vuesax/bulk/card-receive">
<g id="card-receive">
<path id="Vector" d="M44.3705 17.4651H38.2838C35.6546 17.4651 34.0811 15.8055 34.0811 13.0321V6.61194C34.0811 3.83859 35.6546 2.17896 38.2838 2.17896H44.3705C46.9998 2.17896 48.5732 3.83859 48.5732 6.61194V13.0321C48.5732 15.8055 46.9998 17.4651 44.3705 17.4651ZM44.826 10.2369C44.5775 9.97489 44.2463 9.84387 43.9151 9.84387C43.5838 9.84387 43.2526 9.97489 43.0041 10.2369L42.6315 10.63V5.73845C42.6315 4.97414 42.0518 4.36269 41.3272 4.36269C40.6026 4.36269 40.0229 4.97414 40.0229 5.73845V10.63L39.6502 10.2369C39.1534 9.71285 38.3253 9.71285 37.8284 10.2369C37.3315 10.761 37.3315 11.6345 37.8284 12.1586L40.4162 14.8883C40.5198 14.9975 40.6647 15.0848 40.8096 15.1504C40.851 15.1722 40.8924 15.1722 40.9338 15.194C41.0373 15.2377 41.1409 15.2595 41.2651 15.2595C41.3065 15.2595 41.3479 15.2595 41.3893 15.2595C41.5342 15.2595 41.6584 15.2377 41.8033 15.1722C41.8241 15.1722 41.8241 15.1722 41.8448 15.1722C41.9897 15.1067 42.1139 15.0193 42.2174 14.9101C42.2381 14.8883 42.2381 14.8883 42.2588 14.8883L44.8467 12.1586C45.3436 11.6345 45.3436 10.761 44.826 10.2369Z" fill="white"/>
<path id="Vector_2" opacity="0.4" d="M46.5029 16.9628V19.6488H5.09698V16.4605C5.09698 11.4598 8.94773 7.41986 13.6887 7.41986H34.0811V13.0321C34.0811 15.8054 35.6545 17.465 38.2838 17.465H44.3705C45.1986 17.465 45.9025 17.3122 46.5029 16.9628Z" fill="white"/>
<path id="Vector_3" d="M5.09698 19.6488V35.9395C5.09698 40.9402 8.94773 44.9801 13.6887 44.9801H37.9112C42.6521 44.9801 46.5029 40.9402 46.5029 35.9395V19.6488H5.09698ZM17.5188 37.6646H13.3782C12.5293 37.6646 11.8254 36.9222 11.8254 36.0268C11.8254 35.1315 12.5293 34.389 13.3782 34.389H17.5188C18.3676 34.389 19.0715 35.1315 19.0715 36.0268C19.0715 36.9222 18.3676 37.6646 17.5188 37.6646ZM30.9757 37.6646H22.6945C21.8457 37.6646 21.1418 36.9222 21.1418 36.0268C21.1418 35.1315 21.8457 34.389 22.6945 34.389H30.9757C31.8245 34.389 32.5284 35.1315 32.5284 36.0268C32.5284 36.9222 31.8245 37.6646 30.9757 37.6646Z" fill="white"/>
</g>
</g>
</svg>
