<svg xmlns="http://www.w3.org/2000/svg" width="51" height="54" viewBox="0 0 51 54" fill="none">
  <path d="M33.902 15.9595C33.4546 16.1647 33.1337 16.616 33.0364 17.1597C32.91 17.8573 33.1142 18.165 35.1176 20.2884L37.0238 22.3194L26.1703 22.34C15.3752 22.3707 15.3072 22.3707 15.0446 22.5862C14.5291 22.9862 14.3735 23.3145 14.3735 23.9607C14.3735 24.607 14.5291 24.9352 15.0446 25.3353C15.3072 25.5507 15.3558 25.5507 28.1154 25.5815C36.9168 25.602 41.0306 25.5815 41.2835 25.4994C41.7211 25.3661 42.2074 24.8019 42.2949 24.3197C42.4505 23.4273 42.4797 23.4683 38.9008 19.6626C35.0204 15.5595 34.9134 15.4672 33.902 15.9595Z" fill="white"/>
  <path d="M9.02461 29.0281C8.37302 29.3256 8.00346 30.1052 8.14934 30.9053C8.19796 31.2438 8.64533 31.7567 11.631 34.9059C14.5583 37.9935 15.1127 38.5269 15.4725 38.6398C16.6006 38.9885 17.6801 37.8499 17.3495 36.6497C17.2425 36.301 16.8827 35.8599 15.3169 34.1981L13.4107 32.167L24.2642 32.1465C35.0593 32.1157 35.1273 32.1157 35.3899 31.9003C35.9054 31.5002 36.061 31.172 36.061 30.5257C36.061 29.8795 35.9054 29.5512 35.3899 29.1512C35.1273 28.9358 35.0884 28.9358 22.2219 28.9153C11.6407 28.8947 9.26775 28.9153 9.02461 29.0281Z" fill="white"/>
</svg>