<svg width="50" height="53" viewBox="0 0 50 53" fill="none" xmlns="http://www.w3.org/2000/svg">
<g id="vuesax/bulk/card-send">
<g id="card-send">
<path id="Vector" d="M43.2598 2.27594H37.1948C34.5748 2.27594 33.007 3.92968 33.007 6.69317V13.0905C33.007 15.854 34.5748 17.5078 37.1948 17.5078H43.2598C45.8797 17.5078 47.4475 15.854 47.4475 13.0905V6.69317C47.4475 3.92968 45.8797 2.27594 43.2598 2.27594ZM43.7136 9.47842C43.4661 9.73953 43.136 9.87009 42.8059 9.87009C42.4759 9.87009 42.1458 9.73953 41.8982 9.47842L41.5269 9.08674V13.9609C41.5269 14.7225 40.9493 15.3318 40.2273 15.3318C39.5052 15.3318 38.9276 14.7225 38.9276 13.9609V9.08674L38.5563 9.47842C38.0612 10.0006 37.236 10.0006 36.7409 9.47842C36.2458 8.95618 36.2458 8.08579 36.7409 7.56356L39.3196 4.84359C39.4227 4.73479 39.5671 4.64775 39.7115 4.58247C39.7528 4.56071 39.7941 4.56071 39.8353 4.53895C39.9385 4.49543 40.0416 4.47367 40.1654 4.47367C40.2066 4.47367 40.2479 4.47367 40.2892 4.47367C40.4336 4.47367 40.5573 4.49543 40.7017 4.56071C40.7224 4.56071 40.7224 4.56071 40.743 4.56071C40.8874 4.62599 41.0112 4.71303 41.1143 4.82183C41.135 4.84359 41.135 4.84359 41.1556 4.84359L43.7343 7.56356C44.2294 8.08579 44.2294 8.95618 43.7136 9.47842Z" fill="white"/>
<path id="Vector_2" opacity="0.4" d="M45.3846 17.0073V19.6837H4.12589V16.5068C4.12589 11.5238 7.96295 7.49829 12.6871 7.49829H33.007V13.0905C33.007 15.854 34.5748 17.5078 37.1948 17.5078H43.2598C44.085 17.5078 44.7864 17.3555 45.3846 17.0073Z" fill="white"/>
<path id="Vector_3" d="M4.12589 19.6837V35.9165C4.12589 40.8995 7.96295 44.9251 12.6871 44.9251H36.8234C41.5476 44.9251 45.3846 40.8995 45.3846 35.9165V19.6837H4.12589ZM16.5035 37.6355H12.3776C11.5318 37.6355 10.8304 36.8957 10.8304 36.0036C10.8304 35.1114 11.5318 34.3716 12.3776 34.3716H16.5035C17.3493 34.3716 18.0507 35.1114 18.0507 36.0036C18.0507 36.8957 17.3493 37.6355 16.5035 37.6355ZM29.9126 37.6355H21.6608C20.815 37.6355 20.1136 36.8957 20.1136 36.0036C20.1136 35.1114 20.815 34.3716 21.6608 34.3716H29.9126C30.7584 34.3716 31.4598 35.1114 31.4598 36.0036C31.4598 36.8957 30.7584 37.6355 29.9126 37.6355Z" fill="white"/>
</g>
</g>
</svg>
