<svg xmlns="http://www.w3.org/2000/svg" width="52" height="52" viewBox="0 0 52 52" fill="none">
  <path d="M10.7148 3.39238C9.98359 3.72754 9.75 4.23535 9.75 5.53535V6.47988L9.29297 6.54082C8.6125 6.65254 7.49531 7.25176 7.00781 7.77988C6.77422 8.03379 6.43906 8.5416 6.26641 8.91738C5.97188 9.53691 5.94141 9.68926 5.94141 10.5729C5.94141 11.4869 5.96172 11.5783 6.31719 12.3096C6.77422 13.2338 7.36328 13.8025 8.30781 14.2494C8.98828 14.5744 8.99844 14.5744 10.9992 14.6252C12.9695 14.676 13.0203 14.6861 13.2133 14.9197C13.457 15.2244 13.457 15.651 13.2133 15.9557C13.0203 16.1994 13.0203 16.1994 10.075 16.2502C7.29219 16.301 7.10938 16.3111 6.84531 16.5143C6.30703 16.9104 6.14453 17.2354 6.14453 17.8752C6.14453 18.515 6.30703 18.84 6.84531 19.2361C7.08906 19.4189 7.30234 19.4494 8.42969 19.4799L9.72969 19.5205L9.77031 20.6174C9.80078 21.8057 9.89219 22.0393 10.5016 22.4861C10.8977 22.7807 11.8523 22.7807 12.2484 22.4861C12.8578 22.0393 12.9492 21.8057 12.9797 20.6275L13.0203 19.5205L13.5789 19.4088C14.8484 19.1549 15.9047 18.3119 16.4836 17.083C16.7781 16.4635 16.8086 16.3111 16.8086 15.4377C16.8086 14.5643 16.7781 14.4018 16.4938 13.8127C15.9453 12.665 15.1938 11.9744 14.0359 11.5885C13.4977 11.4057 13.1625 11.3752 11.6289 11.3752C9.87188 11.3752 9.84141 11.3752 9.59766 11.1213C9.29297 10.8268 9.27266 10.3697 9.53672 10.0447C9.72969 9.80098 9.72969 9.80098 12.675 9.75019C15.4578 9.69941 15.6406 9.68926 15.9047 9.48613C16.443 9.09004 16.6055 8.76504 16.6055 8.12519C16.6055 7.48535 16.443 7.16035 15.9047 6.76426C15.6609 6.58144 15.4477 6.55098 14.3203 6.52051L13.0203 6.47988L12.9797 5.38301C12.9492 4.19473 12.8578 3.96113 12.2688 3.52441C11.9234 3.27051 11.1211 3.19941 10.7148 3.39238Z" fill="white"/>
  <path d="M23.8164 7.5664C23.532 7.66797 23.0039 8.11484 22.0289 9.11016C20.8914 10.2578 20.6172 10.593 20.5258 10.9383C20.3125 11.7406 20.4547 11.9844 22.1102 13.6297C23.3695 14.8789 23.6742 15.1227 23.9992 15.1836C24.5477 15.2852 25.0758 15.1023 25.4922 14.6758C25.7969 14.3609 25.8477 14.2492 25.8781 13.6602L25.9188 13H32.4594H39L39.0203 18.982C39.0508 24.8523 39.0508 24.9742 39.2641 25.2484C39.6602 25.7867 39.9852 25.9492 40.625 25.9492C41.2649 25.9492 41.5899 25.7867 41.986 25.2484C42.1992 24.9742 42.1992 24.8828 42.1992 17.875C42.1992 10.8672 42.1992 10.7758 41.986 10.5016C41.8742 10.3492 41.6508 10.1258 41.4985 10.0141C41.2242 9.80078 41.1125 9.80078 33.5664 9.77031L25.9086 9.75L25.9594 9.2625C26.0914 8.06406 24.9438 7.15 23.8164 7.5664Z" fill="white"/>
  <path d="M10.7149 26.1423C10.2985 26.3251 9.87195 26.8431 9.80085 27.2493C9.77038 27.4321 9.75007 30.6415 9.77038 34.3993C9.80085 41.1024 9.80085 41.2243 10.0141 41.4985C10.1259 41.6509 10.3493 41.8743 10.5016 41.986C10.7759 42.1993 10.8876 42.1993 18.4438 42.2298L26.1016 42.2501L26.0407 42.6563C25.9594 43.1642 26.2134 43.8954 26.579 44.1798C26.9852 44.4946 27.554 44.6165 28.0618 44.4743C28.4173 44.3829 28.7423 44.1087 29.9305 42.9306C31.1087 41.7423 31.3829 41.4173 31.4743 41.0517C31.6977 40.229 31.5352 39.9345 29.9204 38.3196C28.7321 37.1313 28.4173 36.8673 28.0618 36.7657C27.554 36.6337 26.9852 36.7556 26.579 37.0704C26.2134 37.3548 25.9594 38.086 26.0407 38.5938L26.1016 39.0001H19.5509H13.0001L12.9798 33.0181C12.9493 27.1478 12.9493 27.0259 12.736 26.7517C12.6243 26.5993 12.411 26.3759 12.2688 26.2743C11.9337 26.0204 11.1212 25.9493 10.7149 26.1423Z" fill="white"/>
  <path d="M39.9648 29.3924C39.2336 29.7275 39 30.2354 39 31.5354V32.4799L38.543 32.5408C37.8625 32.6525 36.7453 33.2518 36.2578 33.7799C36.0242 34.0338 35.6891 34.5416 35.5164 34.9174C35.2219 35.5369 35.1914 35.6893 35.1914 36.5729C35.1914 37.4869 35.2117 37.5783 35.5672 38.3096C36.0242 39.2338 36.6133 39.8025 37.5578 40.2494C38.2383 40.5744 38.2484 40.5744 40.2492 40.6252C42.2195 40.676 42.2703 40.6861 42.4633 40.9197C42.707 41.2244 42.707 41.651 42.4633 41.9557C42.2703 42.1994 42.2703 42.1994 39.325 42.2502C36.5422 42.301 36.3594 42.3111 36.0953 42.5143C35.557 42.9104 35.3945 43.2354 35.3945 43.8752C35.3945 44.515 35.557 44.84 36.0953 45.2361C36.3391 45.4189 36.5523 45.4494 37.6797 45.4799L38.9797 45.5205L39.0203 46.6174C39.0508 47.8057 39.1422 48.0393 39.7516 48.4861C40.1477 48.7807 41.1023 48.7807 41.4984 48.4861C42.1078 48.0393 42.1992 47.8057 42.2297 46.6275L42.2703 45.5205L42.8289 45.4088C44.0984 45.1549 45.1547 44.3119 45.7336 43.083C46.0281 42.4635 46.0586 42.3111 46.0586 41.4377C46.0586 40.5643 46.0281 40.4018 45.7437 39.8127C45.1953 38.665 44.4437 37.9744 43.2859 37.5885C42.7477 37.4057 42.4125 37.3752 40.8789 37.3752C39.1219 37.3752 39.0914 37.3752 38.8477 37.1213C38.543 36.8268 38.5227 36.3697 38.7867 36.0447C38.9797 35.801 38.9797 35.801 41.925 35.7502C44.7078 35.6994 44.8906 35.6893 45.1547 35.4861C45.693 35.09 45.8555 34.765 45.8555 34.1252C45.8555 33.4854 45.693 33.1604 45.1547 32.7643C44.9109 32.5814 44.6977 32.551 43.5703 32.5205L42.2703 32.4799L42.2297 31.383C42.1992 30.1947 42.1078 29.9611 41.5187 29.5244C41.1734 29.2705 40.3711 29.1994 39.9648 29.3924Z" fill="white"/>
</svg>