<svg width="51" height="53" viewBox="0 0 51 53" fill="none" xmlns="http://www.w3.org/2000/svg">
<g id="vuesax/bulk/card-edit">
<g id="card-edit">
<path id="Vector" opacity="0.4" d="M46.4265 17.0799V19.7754H4.87338V16.5759C4.87338 11.5573 8.73782 7.50305 13.4957 7.50305H33.9606V13.1352C33.9606 15.9184 35.5396 17.5839 38.1782 17.5839H44.2865C45.1176 17.5839 45.824 17.4305 46.4265 17.0799Z" fill="white"/>
<path id="Vector_2" d="M4.87338 19.7755V36.124C4.87338 41.1426 8.73782 45.1968 13.4957 45.1968H37.8042C42.562 45.1968 46.4265 41.1426 46.4265 36.124V19.7755H4.87338ZM17.3393 37.8553H13.184C12.3322 37.8553 11.6258 37.1102 11.6258 36.2117C11.6258 35.3132 12.3322 34.5681 13.184 34.5681H17.3393C18.1912 34.5681 18.8976 35.3132 18.8976 36.2117C18.8976 37.1102 18.1912 37.8553 17.3393 37.8553ZM30.8441 37.8553H22.5335C21.6816 37.8553 20.9752 37.1102 20.9752 36.2117C20.9752 35.3132 21.6816 34.5681 22.5335 34.5681H30.8441C31.6959 34.5681 32.4023 35.3132 32.4023 36.2117C32.4023 37.1102 31.6959 37.8553 30.8441 37.8553Z" fill="white"/>
<path id="Vector_3" d="M44.2865 2.24347H38.1782C35.5396 2.24347 33.9605 3.90901 33.9605 6.69221V13.1352C33.9605 15.9184 35.5396 17.584 38.1782 17.584H44.2865C46.9251 17.584 48.5041 15.9184 48.5041 13.1352V6.69221C48.5041 3.90901 46.9251 2.24347 44.2865 2.24347ZM40.2143 14.4501C40.152 14.5159 40.0065 14.6035 39.9026 14.6035L37.7419 14.9323C37.6795 14.9542 37.5964 14.9542 37.5341 14.9542C37.2225 14.9542 36.9524 14.8446 36.7654 14.6254C36.5161 14.3625 36.4122 13.9899 36.4745 13.5954L36.7862 11.3163C36.8069 11.2067 36.8693 11.0533 36.9316 10.9876L40.4636 7.262C40.5259 7.41541 40.5883 7.59073 40.6506 7.76605C40.7337 7.94137 40.8168 8.09477 40.8999 8.24818C40.9622 8.37967 41.0453 8.51116 41.1285 8.59882C41.2116 8.73031 41.2947 8.8618 41.357 8.92754C41.3985 8.99329 41.4193 9.0152 41.4401 9.03712C41.6271 9.27818 41.8348 9.49733 42.0218 9.65074C42.0634 9.69457 42.1049 9.7384 42.1257 9.7384C42.2296 9.82606 42.3543 9.93563 42.4374 10.0014C42.562 10.089 42.6659 10.1767 42.7906 10.2424C42.936 10.3301 43.1022 10.4178 43.2684 10.5054C43.4346 10.5931 43.6009 10.6588 43.7463 10.7027L40.2143 14.4501ZM45.1799 9.21244L44.515 9.91372C44.4735 9.97946 44.4111 10.0014 44.3488 10.0014C44.328 10.0014 44.3073 10.0014 44.2865 10.0014C42.7906 9.54116 41.6063 8.29201 41.17 6.71413C41.1492 6.62647 41.17 6.53881 41.2323 6.47306L41.918 5.74987C43.0399 4.56646 44.0995 4.58837 45.2007 5.74987C45.7616 6.34157 46.0317 6.91136 46.0317 7.48115C46.0109 8.05094 45.7408 8.62073 45.1799 9.21244Z" fill="white"/>
</g>
</g>
</svg>
