<svg xmlns="http://www.w3.org/2000/svg" width="52" height="52" viewBox="0 0 52 52" fill="none">
  <path d="M8.22652 8.27734C4.80386 8.96797 2.2648 11.6086 1.72652 15.0312C1.64527 15.5898 1.62495 18.2508 1.64527 24.832C1.68589 34.6227 1.64527 34.0133 2.23433 35.5672C2.52886 36.3594 3.31089 37.5375 4.01167 38.2383C4.71245 38.9391 5.89058 39.7211 6.68277 40.0156C8.26714 40.6047 7.3023 40.5742 20.5765 40.6047L32.7742 40.625L32.9671 40.2086C33.0687 39.975 33.282 39.6094 33.4343 39.3859L33.7187 39L33.3632 38.4617C32.0226 36.4305 32.307 33.8508 34.0437 32.2359C35.2828 31.0984 36.0546 30.875 38.8476 30.875H40.889L41.1632 30.3063C41.5695 29.4836 42.4429 28.6102 43.2859 28.1938C44.9414 27.3609 46.6679 27.4625 48.2117 28.4883L48.7601 28.8539L48.7296 21.8664C48.689 14.3305 48.7195 14.7164 48.1406 13.1828C47.846 12.3906 47.064 11.2125 46.3632 10.5117C45.3476 9.4961 44.2 8.84609 42.5546 8.34844C42.0468 8.19609 40.5843 8.17578 25.4414 8.15547C12.0656 8.14531 8.7648 8.16563 8.22652 8.27734ZM12.2484 13.2641C12.7867 13.6602 12.9492 13.9852 12.9492 14.625C12.9492 15.2648 12.7867 15.5898 12.2484 15.9859C12.0148 16.1688 11.7914 16.2094 10.8671 16.2297L9.77027 16.2703L9.72964 17.3672C9.69917 18.5555 9.60777 18.7891 8.99839 19.2359C8.6023 19.5305 7.64761 19.5305 7.25152 19.2359C6.59136 18.7484 6.55073 18.6164 6.52027 16.8289C6.47964 14.7875 6.56089 14.4523 7.25152 13.7617C7.53589 13.4773 7.93198 13.193 8.12495 13.132C8.34839 13.0609 9.15073 13.0203 10.2273 13.0305C11.8117 13.0508 11.9945 13.0711 12.2484 13.2641ZM42.189 13.1219C42.7781 13.2945 43.5906 14.1273 43.7632 14.7266C43.8445 15.0414 43.875 15.7219 43.8546 16.8289C43.8242 18.6164 43.7835 18.7484 43.1234 19.2359C42.7273 19.5305 41.7726 19.5305 41.3765 19.2359C40.7671 18.7891 40.6757 18.5555 40.6453 17.357L40.6046 16.25H39.65C38.5531 16.25 38.157 16.1281 37.7507 15.6508C37.0804 14.8484 37.3851 13.5586 38.3398 13.1422C38.746 12.9695 41.6 12.9492 42.189 13.1219ZM26.5585 18.0273C29.4734 18.6367 31.6875 21.3688 31.6875 24.375C31.6875 27.9094 28.7218 30.875 25.1875 30.875C23.4812 30.875 21.8562 30.1844 20.607 28.9453C18.0476 26.4063 18.0578 22.3539 20.607 19.7945C22.1914 18.2203 24.3648 17.5703 26.5585 18.0273ZM9.0187 29.5242C9.60777 29.9609 9.69917 30.1945 9.72964 31.3828L9.77027 32.4797L10.8671 32.5203C12.0554 32.5508 12.289 32.6422 12.7359 33.2516C13.0304 33.6477 13.0304 34.6023 12.7359 34.9984C12.2484 35.6586 12.1164 35.6992 10.3289 35.7297C9.22183 35.75 8.54136 35.7195 8.22652 35.6383C7.6273 35.4656 6.79448 34.6531 6.62183 34.0641C6.46948 33.5461 6.45933 30.6922 6.61167 30.2961C6.75386 29.9203 7.08902 29.5648 7.4648 29.3922C7.87105 29.1992 8.67339 29.2703 9.0187 29.5242Z" fill="white"/>
  <path d="M44.8398 31.017C44.4234 31.1998 43.9969 31.7178 43.9156 32.1443C43.8141 32.7232 43.9562 33.1904 44.4031 33.6779L44.8094 34.1146L40.7977 34.1451C36.918 34.1756 36.7656 34.1857 36.5016 34.3889C35.9633 34.785 35.8008 35.11 35.8008 35.7498C35.8008 36.3896 35.9633 36.7146 36.5016 37.1107C36.7758 37.324 36.8977 37.324 42.8391 37.3545C46.9117 37.3748 49.0242 37.3545 49.2781 37.2732C49.7352 37.1412 50.243 36.5826 50.3344 36.1053C50.4867 35.2725 50.3953 35.1303 48.3641 33.0686C47.318 32.0225 46.3227 31.0982 46.1398 31.017C45.7336 30.8443 45.2359 30.8443 44.8398 31.017Z" fill="white"/>
  <path d="M36.7147 40.7672C36.0342 41.0617 35.6483 41.8336 35.8006 42.6257C35.8514 42.9507 36.1663 43.3164 37.8624 45.0125C39.5585 46.7086 39.9241 47.0234 40.2491 47.0742C40.8585 47.1859 41.3358 47.0437 41.7522 46.6273C42.4225 45.957 42.4124 45.0734 41.7217 44.3218L41.3155 43.8851L45.3272 43.8547C49.2069 43.8242 49.3592 43.814 49.6233 43.6109C50.1616 43.2148 50.3241 42.8898 50.3241 42.25C50.3241 41.6101 50.1616 41.2851 49.6233 40.889C49.3491 40.6757 49.2272 40.6757 43.1842 40.6554C38.2178 40.6351 36.9585 40.6554 36.7147 40.7672Z" fill="white"/>
</svg>