<svg width="40" height="40" viewBox="0 0 24 24" fill="none" xmlns="http://www.w3.org/2000/svg">
<path d="M12.0098 21C16.9803 21 21.0098 16.9706 21.0098 12C21.0098 7.02944 16.9803 3 12.0098 3C7.0392 3 3.00977 7.02944 3.00977 12C3.00977 16.9706 7.0392 21 12.0098 21Z" stroke="white" stroke-linecap="round" stroke-linejoin="round"/>
<path d="M8.25977 12.0001C8.25977 15.512 9.50945 18.6489 11.4735 20.7648C11.5417 20.839 11.6246 20.8983 11.7169 20.9388C11.8092 20.9793 11.909 21.0002 12.0098 21.0002C12.1106 21.0002 12.2103 20.9793 12.3026 20.9388C12.3949 20.8983 12.4778 20.839 12.546 20.7648C14.5101 18.6489 15.7598 15.512 15.7598 12.0001C15.7598 8.48824 14.5101 5.35137 12.546 3.23543C12.4778 3.16122 12.3949 3.10197 12.3026 3.06145C12.2103 3.02092 12.1106 3 12.0098 3C11.909 3 11.8092 3.02092 11.7169 3.06145C11.6246 3.10197 11.5417 3.16122 11.4735 3.23543C9.50945 5.35137 8.25977 8.48824 8.25977 12.0001Z" stroke="white" stroke-width="0.6" stroke-linecap="round" stroke-linejoin="round"/>
<path d="M3.00977 12H21.0098" stroke="white" stroke-linecap="round" stroke-linejoin="round"/>
<path d="M20.0098 3L4.00977 21" stroke="white" stroke-width="0.5" stroke-linecap="round"/>
</svg>
