<svg width="289" height="230" viewBox="0 0 289 230" fill="none" xmlns="http://www.w3.org/2000/svg">
<g clip-path="url(#clip0_1677_20293)">
<path d="M205.146 210.031H198.669V210.217H205.146V210.031Z" fill="#EBEBEB"/>
<path d="M268.176 201.086H253.872V201.273H268.176V201.086Z" fill="#EBEBEB"/>
<path d="M40.9136 202.339H36.1953V202.525H40.9136V202.339Z" fill="#EBEBEB"/>
<path d="M265.858 60.2078H255.534V87.2728H265.858V60.2078Z" fill="#F0F0F0"/>
<path d="M136.376 0.397705H56.1201V151.354H136.376V0.397705Z" fill="#E0E0E0"/>
<path d="M134.147 149.118V2.63391L58.3637 2.63391L58.3637 149.118H134.147Z" fill="#EBEBEB"/>
<path d="M126.664 8.09753H65.833V23.3407H126.664V8.09753Z" fill="#F5F5F5"/>
<path d="M126.664 35.4683H65.833V50.7115H126.664V35.4683Z" fill="#F5F5F5"/>
<path d="M126.664 62.8464H65.833V78.0896H126.664V62.8464Z" fill="#F5F5F5"/>
<path d="M126.664 90.2246H65.833V141.679H126.664V90.2246Z" fill="#F5F5F5"/>
<path d="M92.9131 25.7858L96.2524 29.1251L99.5843 25.7858H92.9131Z" fill="#E0E0E0"/>
<path d="M92.9131 52.9178L96.2524 56.2497L99.5843 52.9178H92.9131Z" fill="#E0E0E0"/>
<path d="M92.9131 80.542L96.2524 83.8739L99.5843 80.542H92.9131Z" fill="#E0E0E0"/>
<path d="M262.377 74.7205C262.325 76.0398 261.497 77.0983 260.469 77.0983C259.44 77.0983 258.613 76.0398 258.56 74.7205H253.745V92.4607H267.199V74.7205H262.377Z" fill="#E0E0E0"/>
<path d="M144.606 229.672C224.424 229.672 289.129 225.894 289.129 221.234C289.129 216.574 224.424 212.796 144.606 212.796C64.7874 212.796 0.0820312 216.574 0.0820312 221.234C0.0820312 225.894 64.7874 229.672 144.606 229.672Z" fill="#F5F5F5"/>
<path d="M38.1419 196.636C38.1419 196.636 33.2372 185.94 38.8351 175.4C44.433 164.86 46.0654 162.371 42.495 160.209C38.9246 158.047 37.2772 168.647 37.2772 168.647C37.2772 168.647 34.2957 161.357 36.748 153.739C39.2004 146.121 40.7955 133.688 37.404 132.354C34.0124 131.02 36.7555 147.851 33.8112 153.59C32.3099 149.561 31.3402 145.354 30.9265 141.075C30.524 134.948 31.1576 125.168 28.4742 122.656C25.7908 120.144 24.0839 121.911 26.7151 135.403C28.3001 143.488 29.178 151.696 29.3389 159.933C29.3389 159.933 23.5174 142.193 19.6488 141.679C15.7802 141.164 15.7504 146.896 19.0972 151.883C22.444 156.87 28.8469 165.77 29.8979 170.369C29.8979 170.369 23.5174 157.019 17.7704 161.111C12.0235 165.203 22.772 173.261 27.5797 176.168C32.3875 179.075 35.697 197.344 35.697 197.344L38.1419 196.636Z" fill="#565960"/>
<path opacity="0.2" d="M38.1419 196.636C38.1419 196.636 33.2372 185.94 38.8351 175.4C44.433 164.86 46.0654 162.371 42.495 160.209C38.9246 158.047 37.2772 168.647 37.2772 168.647C37.2772 168.647 34.2957 161.357 36.748 153.739C39.2004 146.121 40.7955 133.688 37.404 132.354C34.0124 131.02 36.7555 147.851 33.8112 153.59C32.3099 149.561 31.3402 145.354 30.9265 141.075C30.524 134.948 31.1576 125.168 28.4742 122.656C25.7908 120.144 24.0839 121.911 26.7151 135.403C28.3001 143.488 29.178 151.696 29.3389 159.933C29.3389 159.933 23.5174 142.193 19.6488 141.679C15.7802 141.164 15.7504 146.896 19.0972 151.883C22.444 156.87 28.8469 165.77 29.8979 170.369C29.8979 170.369 23.5174 157.019 17.7704 161.111C12.0235 165.203 22.772 173.261 27.5797 176.168C32.3875 179.075 35.697 197.344 35.697 197.344L38.1419 196.636Z" fill="#DCE0E6"/>
<path d="M34.2881 201.027C34.2881 201.027 39.0661 190.256 33.3415 179.798C27.6169 169.34 25.9547 166.88 29.5027 164.667C33.0508 162.453 34.8099 173.022 34.8099 173.022C34.8099 173.022 37.7318 165.688 35.1602 158.115C32.5887 150.541 30.8743 138.123 34.2509 136.744C37.6275 135.365 35.0857 152.234 38.0971 157.921C39.5511 153.874 40.4683 149.654 40.8252 145.368C41.1606 139.234 40.4078 129.462 43.0614 126.913C45.715 124.363 47.4443 126.078 44.977 139.636C43.4891 147.735 42.711 155.948 42.6514 164.182C42.6514 164.182 48.2567 146.36 52.1551 145.786C56.0535 145.212 56.1131 150.951 52.8334 155.983C49.5537 161.014 43.2179 170.033 42.2116 174.618C42.2116 174.618 48.4356 161.201 54.2273 165.181C60.019 169.161 49.3748 177.413 44.6267 180.394C39.8786 183.376 36.7405 201.675 36.7405 201.675L34.2881 201.027Z" fill="#E3E6EB"/>
<path d="M56.2846 193.349H16.8535L20.0438 221.57H53.0943L56.2846 193.349Z" fill="#AEB8C2"/>
<path d="M248.021 36.9964V221.301H131.092V139.636L143.525 122.321L214.613 23.3408L248.021 36.9964Z" fill="#DCE0E6"/>
<path opacity="0.2" d="M196.12 122.321V221.57H131.092V139.636L143.525 122.321H196.12Z" fill="white"/>
<path opacity="0.2" d="M181.451 197.725H141.267V159.561H181.451V197.725ZM141.945 197.039H180.757V160.246H141.952L141.945 197.039Z" fill="#9D9D9D"/>
<path d="M219.331 20.1505H165.946C165.946 20.1505 126.083 100.138 126.083 116.03V140.673C126.083 141.967 126.597 143.209 127.513 144.125C128.429 145.04 129.67 145.555 130.965 145.555H196.925C197.566 145.555 198.201 145.429 198.793 145.183C199.386 144.938 199.924 144.578 200.377 144.125C200.83 143.671 201.19 143.133 201.435 142.541C201.681 141.949 201.807 141.314 201.807 140.673V115.396C201.807 93.877 222.805 23.3408 222.805 23.3408L219.331 20.1505Z" fill="#C4CBD1"/>
<path opacity="0.2" d="M140.253 91.4247H190.365L208.314 35.4236H166.096L140.253 91.4247Z" fill="black"/>
<path opacity="0.2" d="M172.908 45.5012L166.095 35.4236H208.314L205.138 45.5012H172.908Z" fill="black"/>
<path d="M172.52 108.412H144.464L147.87 95.0173H175.927L172.52 108.412Z" fill="#E2E2E2"/>
<path d="M172.93 96.6945H149.756C149.545 96.6976 149.342 96.7735 149.18 96.9093C149.018 97.0451 148.909 97.2325 148.869 97.4398L148.235 100.146C148.211 100.248 148.209 100.355 148.232 100.458C148.254 100.561 148.3 100.657 148.365 100.74C148.431 100.822 148.514 100.889 148.609 100.935C148.704 100.98 148.808 101.004 148.914 101.003H154.989C155.093 101.003 155.195 101.026 155.289 101.07C155.382 101.115 155.465 101.18 155.53 101.261C155.595 101.342 155.641 101.437 155.665 101.538C155.689 101.639 155.689 101.744 155.667 101.845L154.922 105.43C154.901 105.531 154.902 105.636 154.927 105.736C154.951 105.836 154.997 105.929 155.062 106.009C155.127 106.089 155.209 106.154 155.302 106.198C155.395 106.242 155.497 106.265 155.6 106.265H161.563C161.886 106.266 162.2 106.156 162.452 105.954C162.704 105.752 162.88 105.47 162.949 105.155L163.62 102.121C163.689 101.804 163.863 101.52 164.116 101.317C164.368 101.113 164.683 101.002 165.007 101.003H171.29C171.612 101.004 171.925 100.895 172.177 100.695C172.429 100.494 172.606 100.214 172.677 99.8996L173.288 97.2535C173.307 97.1931 173.313 97.1293 173.304 97.0665C173.296 97.0038 173.274 96.9436 173.24 96.8903C173.206 96.837 173.16 96.7918 173.107 96.7579C173.053 96.7241 172.993 96.7024 172.93 96.6945Z" fill="#B0B0B0"/>
<path d="M205.139 45.5012H172.908L156.592 86.2293H192.035L205.139 45.5012Z" fill="#263238"/>
<path opacity="0.5" d="M205.139 45.5012H172.908L156.592 86.2293H192.035L205.139 45.5012Z" fill="white"/>
<path d="M203.797 49.5264H174.301L166.095 69.9128H197.043" fill="#AAAAAA"/>
<path opacity="0.2" d="M170.299 69.9128L178.11 49.5264H174.301L166.095 69.9128H170.299Z" fill="black"/>
<path opacity="0.2" d="M164.314 74.7205L162.764 79.0735H178.745L179.99 74.7205H164.314Z" fill="black"/>
<path opacity="0.4" d="M164.277 76.3752L164.091 76.897H178.574L178.723 76.3752H164.277Z" fill="black"/>
<path opacity="0.2" d="M195.725 74.7205H186.348L184.805 79.0735H194.443" fill="black"/>
<path opacity="0.2" d="M171.439 68.817L178.752 50.4282H200.882C200.882 50.4282 189.851 56.8311 181.547 62.4141C184.64 59.1039 187.912 55.966 191.349 53.0147H188.367C188.367 53.0147 177.641 59.9618 171.439 68.817Z" fill="white"/>
<path d="M140.253 91.4246L156.592 86.2292H192.035L190.365 91.4246H140.253Z" fill="#263238"/>
<path opacity="0.6" d="M140.253 91.4246L156.592 86.2292H192.035L190.365 91.4246H140.253Z" fill="white"/>
<path d="M151.054 89.7028L153.141 82.8527H170.3L173.207 86.7958L169.398 89.7028H151.054Z" fill="#E2E2E2"/>
<path d="M151.963 89.7028L153.782 83.7098H168.488V89.7028H151.963Z" fill="#B0B0B0"/>
<path d="M188.524 30.7645C196.959 29.415 203.559 26.8348 203.266 25.0015C202.972 23.1682 195.897 22.776 187.462 24.1256C179.027 25.4751 172.427 28.0553 172.721 29.8886C173.014 31.7219 180.089 32.1141 188.524 30.7645Z" fill="white"/>
<path d="M177.144 30.4277H175.611L179.027 23.7457H180.871L182.125 30.4277H180.591L179.729 25.2727H179.676L177.144 30.4277ZM177.473 27.8012H181.095L180.917 28.904H177.295L177.473 27.8012ZM183.56 24.9726L183.746 23.821H189.242L189.056 24.9726H187.007L186.126 30.4277H184.727L185.609 24.9726H183.56ZM190.147 23.821H191.892L193.018 28.2598H193.097L195.657 23.821H197.402L196.334 30.4277H194.962L195.657 26.1275H195.601L193.179 30.3954H192.245L191.205 26.1114H191.15L190.452 30.4277H189.08L190.147 23.821Z" fill="#DCE0E6"/>
<path opacity="0.2" d="M186.213 126.927H172.707V140.434H186.213V126.927Z" fill="white"/>
<path opacity="0.2" d="M152.104 126.927H138.598V140.434H152.104V126.927Z" fill="white"/>
<path opacity="0.2" d="M136.713 134.359H131.428V139.644H136.713V134.359Z" fill="white"/>
<path d="M269.659 203.598C269.812 203.285 269.887 202.939 269.878 202.59C269.869 202.242 269.775 201.9 269.605 201.596C269.435 201.291 269.194 201.032 268.902 200.841C268.61 200.65 268.277 200.532 267.93 200.498C268.224 199.605 268.239 198.643 267.973 197.741C267.706 196.84 267.171 196.041 266.439 195.451C266.264 195.292 266.041 195.196 265.805 195.175C265.551 195.198 265.31 195.303 265.12 195.474L261.08 198.373C260.754 198.572 260.481 198.845 260.282 199.171C259.455 200.766 262.429 202.816 261.206 204.142C260.856 204.523 260.289 204.597 259.85 204.888C258.888 205.484 258.776 206.811 258.359 207.869C257.941 208.928 256.346 209.725 255.75 208.756C256.19 207.758 254.856 206.9 253.767 206.774C252.679 206.647 251.531 206.587 250.95 205.566C249.407 206.915 245.963 203.159 246.045 201.645C244.778 201.742 243.913 202.927 243.637 204.113C243.457 205.361 243.415 206.626 243.511 207.884C243.466 210.337 242.676 212.737 242.721 215.189C242.758 217.09 243.466 219.207 245.24 219.975C246.106 220.286 247.028 220.411 247.946 220.34L267.825 220.213C268.304 220.25 268.785 220.171 269.227 219.982C270.121 219.512 270.315 218.335 270.397 217.328C270.755 213.005 271.11 208.684 271.463 204.366L269.659 203.598Z" fill="#AEB8C2"/>
<path opacity="0.3" d="M269.659 203.598C269.812 203.285 269.887 202.939 269.878 202.59C269.869 202.242 269.775 201.9 269.605 201.596C269.435 201.291 269.194 201.032 268.902 200.841C268.61 200.65 268.277 200.532 267.93 200.498C268.224 199.605 268.239 198.643 267.973 197.741C267.706 196.84 267.171 196.041 266.439 195.451C266.264 195.292 266.041 195.196 265.805 195.175C265.551 195.198 265.31 195.303 265.12 195.474L261.08 198.373C260.754 198.572 260.481 198.845 260.282 199.171C259.455 200.766 262.429 202.816 261.206 204.142C260.856 204.523 260.289 204.597 259.85 204.888C258.888 205.484 258.776 206.811 258.359 207.869C257.941 208.928 256.346 209.725 255.75 208.756C256.19 207.758 254.856 206.9 253.767 206.774C252.679 206.647 251.531 206.587 250.95 205.566C249.407 206.915 245.963 203.159 246.045 201.645C244.778 201.742 243.913 202.927 243.637 204.113C243.457 205.361 243.415 206.626 243.511 207.884C243.466 210.337 242.676 212.737 242.721 215.189C242.758 217.09 243.466 219.207 245.24 219.975C246.106 220.286 247.028 220.411 247.946 220.34L267.825 220.213C268.304 220.25 268.785 220.171 269.227 219.982C270.121 219.512 270.315 218.335 270.397 217.328C270.755 213.005 271.11 208.684 271.463 204.366L269.659 203.598Z" fill="#DCE0E6"/>
<path d="M270.815 182.586H239.971L240.224 185.701L240.403 187.938L240.873 193.729L241.141 197.061L241.499 201.489L241.648 203.382L241.7 203.949L241.879 206.185L242.132 209.241L242.281 211.142L242.438 213.072L242.624 215.308L242.758 217L242.915 218.901L242.975 219.721H271.299L271.359 218.901L271.516 217.008L271.65 215.301L271.836 213.065L271.993 211.142L272.142 209.241L272.388 206.177L272.574 203.941L272.619 203.375L272.768 201.481L273.133 197.054L273.401 193.729L273.864 187.93L274.042 185.694L274.296 182.578L270.815 182.586ZM272.671 184.628L272.082 184.032H272.723L272.671 184.628ZM272.522 186.521L272.462 187.267L269.704 190.025L266.536 186.857L269.369 184.024H270.032L272.522 186.521ZM271.724 196.39L269.704 198.41L266.536 195.242L269.704 192.082L271.888 194.273L271.724 196.39ZM242.371 194.273L244.555 192.082L247.723 195.242L244.555 198.41L242.542 196.39L242.371 194.273ZM268.683 191.053L265.515 194.221L262.377 191.053L265.545 187.885L268.683 191.053ZM263.696 184.032H267.326L265.515 185.843L263.696 184.032ZM264.479 195.213L261.326 198.381L258.158 195.213L261.326 192.052L264.479 195.213ZM253.969 199.439L257.13 196.279L260.29 199.439L257.159 202.599L253.969 199.439ZM256.101 203.636L252.933 206.796L249.773 203.636L252.94 200.475L256.101 203.636ZM261.319 200.475L264.472 203.636L261.319 206.796L258.151 203.636L261.319 200.475ZM257.159 194.221L253.999 191.053L257.159 187.885L260.32 191.053L257.159 194.221ZM256.131 195.242L252.97 198.41L249.802 195.242L252.97 192.082L256.131 195.242ZM248.744 194.221L245.583 191.053L248.744 187.885L251.912 191.053L248.744 194.221ZM248.744 196.271L251.942 199.439L248.774 202.607L245.583 199.439L248.744 196.271ZM251.912 207.825L248.744 210.985L245.583 207.825L248.744 204.657L251.912 207.825ZM252.933 208.846L256.101 212.014L252.94 215.182L249.773 212.014L252.933 208.846ZM253.969 207.825L257.159 204.657L260.32 207.825L257.159 210.985L253.969 207.825ZM261.326 208.846L264.479 212.014L261.326 215.182L258.158 212.014L261.326 208.846ZM265.515 213.035L268.683 216.203L266.626 218.253H264.39L262.377 216.203L265.515 213.035ZM262.347 207.817L265.515 204.649L268.683 207.817L265.515 210.978L262.347 207.817ZM262.377 199.439L265.545 196.279L268.713 199.439L265.545 202.607L262.377 199.439ZM264.509 186.872L261.356 190.04L258.188 186.872L261.02 184.039H261.632L264.509 186.872ZM257.159 185.843L255.348 184.032H258.971L257.159 185.843ZM256.131 186.864L252.97 190.032L249.802 186.864L252.642 184.032H253.306L256.131 186.864ZM250.585 184.032L248.774 185.843L246.97 184.032H250.585ZM244.92 184.032L247.753 186.864L244.585 190.032L241.834 187.274L241.775 186.529L244.257 184.039L244.92 184.032ZM242.207 184.032L241.625 184.621L241.573 184.032H242.207ZM242.013 189.503L243.563 191.053L242.252 192.373L242.013 189.503ZM242.878 200.125L242.751 198.634L243.563 199.439L242.878 200.132V200.125ZM243.027 202.033L244.585 200.468L247.753 203.628L244.585 206.789L243.31 205.514L243.027 202.033ZM243.496 207.884V207.75L243.571 207.825L243.504 207.884H243.496ZM244.048 214.638L243.653 209.778L244.585 208.846L247.753 212.014L244.585 215.174L244.048 214.638ZM244.339 218.253L244.279 217.507L244.585 217.202L245.613 218.23L244.339 218.253ZM245.613 216.203L248.774 213.035L251.942 216.203L249.892 218.253H247.656L245.613 216.203ZM251.942 218.253L252.97 217.224L253.999 218.253H251.942ZM256.049 218.253L253.999 216.203L257.159 213.035L260.32 216.203L258.277 218.253H256.049ZM260.32 218.253L261.356 217.224L262.385 218.253H260.32ZM270.01 218.253H268.735L269.764 217.224L270.07 217.53L270.01 218.253ZM270.308 214.638L269.764 215.174L266.596 212.014L269.764 208.846L270.696 209.778L270.308 214.638ZM270.86 207.743V207.884L270.8 207.825L270.875 207.743H270.86ZM271.046 205.506L269.764 206.781L266.596 203.621L269.764 200.46L271.329 202.026L271.046 205.506ZM271.478 200.125L270.785 199.424L271.605 198.619L271.478 200.125ZM272.343 189.488L272.112 192.373L270.785 191.046L272.343 189.488Z" fill="#AEB8C2"/>
<g opacity="0.6">
<path d="M270.815 182.586H239.971L240.224 185.701L240.403 187.938L240.873 193.729L241.141 197.061L241.499 201.489L241.648 203.382L241.7 203.949L241.879 206.185L242.132 209.241L242.281 211.142L242.438 213.072L242.624 215.308L242.758 217L242.915 218.901L242.975 219.721H271.299L271.359 218.901L271.516 217.008L271.65 215.301L271.836 213.065L271.993 211.142L272.142 209.241L272.388 206.177L272.574 203.941L272.619 203.375L272.768 201.481L273.133 197.054L273.401 193.729L273.864 187.93L274.042 185.694L274.296 182.578L270.815 182.586ZM272.671 184.628L272.082 184.032H272.723L272.671 184.628ZM272.522 186.521L272.462 187.267L269.704 190.025L266.536 186.857L269.369 184.024H270.032L272.522 186.521ZM271.724 196.39L269.704 198.41L266.536 195.242L269.704 192.082L271.888 194.273L271.724 196.39ZM242.371 194.273L244.555 192.082L247.723 195.242L244.555 198.41L242.542 196.39L242.371 194.273ZM268.683 191.053L265.515 194.221L262.377 191.053L265.545 187.885L268.683 191.053ZM263.696 184.032H267.326L265.515 185.843L263.696 184.032ZM264.479 195.213L261.326 198.381L258.158 195.213L261.326 192.052L264.479 195.213ZM253.969 199.439L257.13 196.279L260.29 199.439L257.159 202.599L253.969 199.439ZM256.101 203.636L252.933 206.796L249.773 203.636L252.94 200.475L256.101 203.636ZM261.319 200.475L264.472 203.636L261.319 206.796L258.151 203.636L261.319 200.475ZM257.159 194.221L253.999 191.053L257.159 187.885L260.32 191.053L257.159 194.221ZM256.131 195.242L252.97 198.41L249.802 195.242L252.97 192.082L256.131 195.242ZM248.744 194.221L245.583 191.053L248.744 187.885L251.912 191.053L248.744 194.221ZM248.744 196.271L251.942 199.439L248.774 202.607L245.583 199.439L248.744 196.271ZM251.912 207.825L248.744 210.985L245.583 207.825L248.744 204.657L251.912 207.825ZM252.933 208.846L256.101 212.014L252.94 215.182L249.773 212.014L252.933 208.846ZM253.969 207.825L257.159 204.657L260.32 207.825L257.159 210.985L253.969 207.825ZM261.326 208.846L264.479 212.014L261.326 215.182L258.158 212.014L261.326 208.846ZM265.515 213.035L268.683 216.203L266.626 218.253H264.39L262.377 216.203L265.515 213.035ZM262.347 207.817L265.515 204.649L268.683 207.817L265.515 210.978L262.347 207.817ZM262.377 199.439L265.545 196.279L268.713 199.439L265.545 202.607L262.377 199.439ZM264.509 186.872L261.356 190.04L258.188 186.872L261.02 184.039H261.632L264.509 186.872ZM257.159 185.843L255.348 184.032H258.971L257.159 185.843ZM256.131 186.864L252.97 190.032L249.802 186.864L252.642 184.032H253.306L256.131 186.864ZM250.585 184.032L248.774 185.843L246.97 184.032H250.585ZM244.92 184.032L247.753 186.864L244.585 190.032L241.834 187.274L241.775 186.529L244.257 184.039L244.92 184.032ZM242.207 184.032L241.625 184.621L241.573 184.032H242.207ZM242.013 189.503L243.563 191.053L242.252 192.373L242.013 189.503ZM242.878 200.125L242.751 198.634L243.563 199.439L242.878 200.132V200.125ZM243.027 202.033L244.585 200.468L247.753 203.628L244.585 206.789L243.31 205.514L243.027 202.033ZM243.496 207.884V207.75L243.571 207.825L243.504 207.884H243.496ZM244.048 214.638L243.653 209.778L244.585 208.846L247.753 212.014L244.585 215.174L244.048 214.638ZM244.339 218.253L244.279 217.507L244.585 217.202L245.613 218.23L244.339 218.253ZM245.613 216.203L248.774 213.035L251.942 216.203L249.892 218.253H247.656L245.613 216.203ZM251.942 218.253L252.97 217.224L253.999 218.253H251.942ZM256.049 218.253L253.999 216.203L257.159 213.035L260.32 216.203L258.277 218.253H256.049ZM260.32 218.253L261.356 217.224L262.385 218.253H260.32ZM270.01 218.253H268.735L269.764 217.224L270.07 217.53L270.01 218.253ZM270.308 214.638L269.764 215.174L266.596 212.014L269.764 208.846L270.696 209.778L270.308 214.638ZM270.86 207.743V207.884L270.8 207.825L270.875 207.743H270.86ZM271.046 205.506L269.764 206.781L266.596 203.621L269.764 200.46L271.329 202.026L271.046 205.506ZM271.478 200.125L270.785 199.424L271.605 198.619L271.478 200.125ZM272.343 189.488L272.112 192.373L270.785 191.046L272.343 189.488Z" fill="#AEB8C2"/>
</g>
<path d="M239.463 185.329H274.787C275.602 185.329 276.263 184.668 276.263 183.853V182.772C276.263 181.957 275.602 181.296 274.787 181.296H239.463C238.648 181.296 237.987 181.957 237.987 182.772V183.853C237.987 184.668 238.648 185.329 239.463 185.329Z" fill="#AEB8C2"/>
<path d="M272.029 217.53H242.229C241.414 217.53 240.753 218.19 240.753 219.005V220.086C240.753 220.901 241.414 221.562 242.229 221.562H272.029C272.845 221.562 273.505 220.901 273.505 220.086V219.005C273.505 218.19 272.845 217.53 272.029 217.53Z" fill="#AEB8C2"/>
<path d="M90.982 80.1769C90.0503 79.916 84.3555 91.3577 84.4524 92.4385C84.5493 93.5193 92.2119 94.3393 92.2119 94.3393L90.982 80.1769Z" fill="#727272"/>
<path d="M90.9821 80.1769C90.9821 80.1769 84.2736 96.9258 85.9731 100.854C87.6726 104.782 107.895 104.887 110.057 104.581C112.218 104.275 113.605 83.628 113.605 83.628C105.961 83.3052 98.3748 82.1479 90.9821 80.1769Z" fill="#AEB8C2"/>
<path d="M104.764 58.1282C104.399 58.4636 103.899 58.9407 103.46 59.3655C103.02 59.7904 102.565 60.2525 102.125 60.7147C101.261 61.639 100.389 62.5707 99.5687 63.5472C97.9322 65.4712 96.4374 67.5114 95.0964 69.6519L94.6193 70.4569L94.3808 70.8594L94.2616 71.0607C94.3004 70.9196 94.3229 70.7746 94.3286 70.6284C94.3411 70.4002 94.3185 70.1714 94.2616 69.9501C94.1831 69.6185 94.033 69.3081 93.8218 69.0407C93.5526 68.6841 93.1765 68.4229 92.7484 68.2953C92.5621 68.2506 92.5248 68.2953 92.5248 68.2953C92.9371 68.3616 93.3573 68.3616 93.7696 68.2953C94.3361 68.2357 94.9473 68.1313 95.566 68.0046C98.0556 67.4903 100.687 66.7822 103.273 66.1262L104.637 69.2196C102.246 70.7386 99.7181 72.0313 97.0866 73.0807C96.4008 73.3416 95.7002 73.595 94.9324 73.8261C94.0257 74.0986 93.084 74.2367 92.1372 74.2361C91.7237 74.224 91.3131 74.1614 90.9148 74.0497C90.2878 73.8733 89.7191 73.5332 89.2671 73.0642C88.8151 72.5952 88.4962 72.0143 88.3432 71.3812C88.2551 70.9927 88.2249 70.5934 88.2537 70.196C88.2892 69.7099 88.3999 69.2321 88.5817 68.7798L88.768 68.3475L88.8873 68.1015L89.1184 67.6021L89.6029 66.6107C90.9445 64.0213 92.5293 61.5653 94.3361 59.2761C95.238 58.1506 96.1698 57.0399 97.176 56.0038C97.6754 55.4746 98.1898 54.9603 98.7115 54.4534C99.2333 53.9466 99.7551 53.4844 100.411 52.9626L104.764 58.1282Z" fill="#DCE0E6"/>
<path d="M99.9195 51.5316C97.5882 52.9423 95.6782 54.9527 94.3887 57.353L101.172 64.8069C101.172 64.8069 109.147 46.0157 99.9195 51.5316Z" fill="#F5F5F5"/>
<path opacity="0.2" d="M103.281 58.8811C102.677 60.883 101.973 62.8533 101.172 64.7846L98.3838 61.7285C99.3294 59.9277 100.848 58.4931 102.7 57.6512C102.931 58.0424 103.126 58.4541 103.281 58.8811Z" fill="#ADACAC"/>
<path d="M132.824 29.1515C132.824 29.1515 140.017 53.0636 124.871 56.2688C109.724 59.4739 108.137 48.472 108.137 48.472C108.137 48.472 120.54 29.6434 132.824 29.1515Z" fill="#727272"/>
<path d="M135.84 34.6038C135.817 34.6043 135.793 34.5999 135.772 34.5909C135.75 34.582 135.73 34.5686 135.714 34.5516C135.42 34.2685 135.067 34.0547 134.68 33.9257C134.293 33.7968 133.882 33.7559 133.477 33.8062C133.433 33.8107 133.388 33.799 133.352 33.7733C133.315 33.7475 133.289 33.7095 133.278 33.666C133.267 33.6226 133.272 33.5767 133.293 33.5368C133.313 33.4968 133.347 33.4655 133.388 33.4485C133.854 33.3732 134.332 33.4081 134.782 33.5505C135.233 33.6929 135.644 33.9387 135.982 34.2684C136.006 34.2948 136.023 34.3278 136.029 34.3633C136.035 34.3988 136.031 34.4354 136.017 34.4685C136.002 34.5017 135.979 34.53 135.949 34.55C135.919 34.5701 135.884 34.581 135.848 34.5814L135.84 34.6038Z" fill="#727272"/>
<path d="M134.722 38.0773C135.098 38.9351 135.573 39.7457 136.138 40.4923C135.961 40.7062 135.727 40.8663 135.464 40.9545C135.201 41.0428 134.918 41.0557 134.647 40.9917L134.722 38.0773Z" fill="#DCE0E6"/>
<path d="M135.802 36.6461C135.802 37.1008 135.504 37.4512 135.206 37.4362C134.908 37.4213 134.684 37.0337 134.707 36.579C134.729 36.1244 134.997 35.774 135.303 35.8337C135.609 35.8933 135.825 36.1989 135.802 36.6461Z" fill="#727272"/>
<path d="M135.176 35.8112L136.182 35.4833C136.182 35.4833 135.66 36.2808 135.176 35.8112Z" fill="#727272"/>
<path d="M122.325 45.0839C122.372 45.1415 122.424 45.194 122.482 45.2404C123.247 46.0061 124.153 46.6161 125.15 47.0368C128.08 48.1474 130.204 48.0207 131.74 46.8355C133.916 45.0466 134.885 41.4687 135.228 37.0486C135.416 35.3068 135.331 33.5462 134.975 31.8309C134.975 31.8309 134.975 31.7638 134.975 31.7489L134.93 31.5551C134.688 30.5755 134.204 29.6721 133.523 28.9274C132.842 28.1827 131.985 27.6203 131.031 27.2914C130.205 26.9851 129.348 26.7677 128.475 26.6429C119.933 25.3385 116.444 39.2922 122.325 45.0839Z" fill="#DCE0E6"/>
<path opacity="0.2" d="M122.482 45.2405C123.259 45.9694 124.17 46.5391 125.166 46.9176C128.095 48.0282 130.234 47.8046 131.777 46.5971C129.906 46.7973 128.021 46.3784 126.411 45.4045C125.811 45.0823 125.146 44.9002 124.465 44.8718C123.785 44.8434 123.107 44.9695 122.482 45.2405Z" fill="#E7E6E6"/>
<path d="M134.99 31.7265C134.99 31.7265 134.639 37.794 128.594 39.5829C128.594 39.5829 125.3 45.479 121.692 45.0765C116.772 44.5174 113.418 36.9517 116.094 30.0867C119.56 21.1867 133.618 22.357 134.99 31.7265Z" fill="#727272"/>
<path d="M131.71 38.2711C131.837 37.3319 131.308 35.6547 129.817 35.6697C128.326 35.6846 126.94 39.2773 130.562 40.619C131.039 40.8128 131.449 40.224 131.71 38.2711Z" fill="#DCE0E6"/>
<path d="M125.645 24.0753C125.645 24.0753 131.608 23.4119 134.418 26.1475C137.743 29.3452 138.764 32.3193 133.792 36.0313C133.792 36.0313 124.609 31.5963 121.322 31.8124C119.404 31.9363 117.5 32.2155 115.627 32.6473C115.828 26.2071 122.634 22.3311 125.645 24.0753Z" fill="#727272"/>
<path d="M126.656 46.7163C126.656 46.7163 123.675 50.5848 124.033 55.2733L109.87 52.0607C109.87 52.0607 118.561 46.9772 119.038 42.8552C119.046 42.8552 125.538 41.6625 126.656 46.7163Z" fill="#DCE0E6"/>
<path d="M98.1377 86.2369C102.826 87.0792 112.785 86.6841 122.415 88.473C133.887 56.8984 131.091 57.8003 131.091 57.8003C131.091 57.8003 128.706 54.61 125.628 53.4919L125.3 53.3727C123.749 52.8434 123.421 52.7614 121.342 52.2024C117.764 51.4123 114.439 50.7638 110.317 50.2048L109.535 50.1079C108.789 50.0184 108.044 49.9439 107.299 49.8842C106.821 49.8321 106.337 49.8023 105.882 49.7724L104.31 49.6904C103.484 49.6849 102.665 49.8488 101.905 50.1718C101.145 50.4949 100.459 50.9703 99.8894 51.5688C101.313 71.2322 100.165 77.1282 98.1377 86.2369Z" fill="#F5F5F5"/>
<path opacity="0.2" d="M130.868 62.1384C129.559 67.4853 127.972 72.7599 126.112 77.9407C125.026 76.2087 124.348 74.2523 124.13 72.2197C123.912 70.187 124.159 68.1313 124.852 66.2082C125.814 63.5845 128.206 62.4664 130.868 62.1384Z" fill="#ADACAC"/>
<path d="M131.643 59.9098C132.105 61.5347 132.597 63.2939 133.134 64.971C133.671 66.6481 134.2 68.3625 134.789 70.0322C135.378 71.7019 135.996 73.3641 136.652 74.9965C136.973 75.8164 137.323 76.6214 137.666 77.4339C137.83 77.8364 138.016 78.2315 138.195 78.6265L138.471 79.2228L138.598 79.5135C138.598 79.5135 138.598 79.5135 138.598 79.5806C138.861 79.9963 139.209 80.3519 139.619 80.6242C140.228 81.0569 140.874 81.436 141.549 81.7571C143.076 82.4824 144.653 83.0976 146.268 83.5983C149.585 84.6493 153.118 85.5214 156.599 86.2593L156.286 89.6359C152.499 89.6197 148.722 89.2605 145.001 88.5626C143.06 88.199 141.153 87.6755 139.298 86.9972C138.283 86.6163 137.303 86.1474 136.369 85.5959C135.203 84.9216 134.198 84.0007 133.425 82.8976C133.305 82.7304 133.196 82.5561 133.097 82.3758L132.925 82.0553L132.582 81.4217C132.351 81.0043 132.12 80.5794 131.904 80.1546C131.464 79.3123 131.047 78.4551 130.652 77.5904C129.847 75.876 129.101 74.1318 128.416 72.3727C127.73 70.6136 127.089 68.8396 126.515 67.0506C125.941 65.2617 125.412 63.4877 124.957 61.5646L131.643 59.9098Z" fill="#DCE0E6"/>
<path d="M155.51 86.714L159.901 84.9548L160.646 89.0992C160.646 89.0992 156.681 91.4993 155.033 88.6445L155.51 86.714Z" fill="#DCE0E6"/>
<path d="M162.077 85.2083L163.486 88.4134L160.646 89.0992L159.9 84.9548L162.077 85.2083Z" fill="#DCE0E6"/>
<path d="M128.796 55.7355C132.575 58.2102 134.99 63.7037 135.631 66.8567L126.85 74.0124C126.85 74.0124 122.065 63.331 123.638 60.5954C125.21 57.8598 127.365 54.8336 128.796 55.7355Z" fill="#F5F5F5"/>
<path d="M141.341 215.405L145.351 214.347C143.86 194.117 139.917 169.698 136.541 151.391C136.011 148.522 135.497 145.808 135.005 143.281L134.334 139.815C133.261 134.322 132.359 129.991 131.792 127.308C131.383 125.355 131.151 124.281 131.151 124.281L116.721 128.463L117.921 132.101L121.886 144.101L122.341 145.473L124.965 153.396L129.437 166.888C130.041 187.513 141.341 215.405 141.341 215.405Z" fill="#DCE0E6"/>
<path d="M106.352 214.429L110.496 214.026C112.658 192.082 112.733 164.764 112.449 145.779C112.397 142.834 112.345 140.091 112.293 137.579C112.293 137.445 112.293 137.326 112.293 137.207C112.174 132.265 112.047 128.336 111.957 125.847L111.831 122.865L96.9229 124.535L97.8546 130.744L99.2112 139.875L99.4795 141.657L100.411 147.88L102.864 164.547C99.964 184.993 106.352 214.429 106.352 214.429Z" fill="#DCE0E6"/>
<path opacity="0.2" d="M99.1739 139.868L112.293 137.631C112.293 137.497 112.293 137.378 112.293 137.259C112.173 132.317 112.047 128.389 111.957 125.899L97.7949 130.766L99.1739 139.868Z" fill="#727272"/>
<path opacity="0.2" d="M133.238 134.292L119.433 136.633L117.942 132.063L131.807 127.271C132.15 128.977 132.679 131.363 133.238 134.292Z" fill="#727272"/>
<path d="M97.4742 85.1113C97.4742 85.1113 88.5295 106.027 96.8853 136.357C96.8853 136.357 101.514 137.945 113.194 136.215C120.012 135.123 126.682 133.252 133.074 130.64C128.05 106.042 123.518 94.861 123.518 94.861L123.317 87.9438L97.4742 85.1113Z" fill="#DCE0E6"/>
<path d="M104.354 213.602C104.354 213.087 110.764 213.49 110.764 213.49C110.764 213.49 114.7 217.492 118.524 218.394C122.348 219.296 120.208 221.592 115.937 221.592H105.397C102.356 221.57 104.257 218.983 104.354 213.602Z" fill="#727272"/>
<path d="M114.164 215.092C113.238 214.98 112.34 214.705 111.51 214.28C111.486 214.272 111.465 214.256 111.451 214.235C111.436 214.192 111.436 214.144 111.451 214.101C111.451 214.041 112.01 212.543 112.882 212.185C113.012 212.126 113.153 212.096 113.295 212.096C113.438 212.096 113.579 212.126 113.709 212.185C114 212.327 114.141 212.506 114.126 212.722C114.126 213.057 113.649 213.4 113.135 213.676C113.617 213.594 114.113 213.648 114.566 213.833C114.651 213.877 114.725 213.938 114.784 214.012C114.843 214.087 114.885 214.173 114.909 214.265C114.957 214.38 114.968 214.508 114.94 214.629C114.912 214.751 114.846 214.861 114.753 214.943C114.581 215.063 114.372 215.116 114.164 215.092ZM112.092 214.176C113.038 214.571 114.208 214.921 114.514 214.682C114.514 214.682 114.618 214.593 114.551 214.339C114.538 214.292 114.515 214.248 114.484 214.21C114.454 214.171 114.416 214.14 114.372 214.116C113.91 213.87 112.815 214.034 112.092 214.19V214.176ZM113.239 212.416C113.15 212.416 113.061 212.433 112.979 212.469C112.477 212.797 112.093 213.278 111.883 213.84C112.83 213.482 113.746 212.983 113.761 212.7C113.761 212.61 113.62 212.528 113.53 212.483C113.438 212.445 113.339 212.427 113.239 212.431V212.416Z" fill="#B0B3B8"/>
<path d="M140.201 213.602C140.201 213.087 146.611 213.49 146.611 213.49C146.611 213.49 150.547 217.492 154.37 218.394C158.194 219.296 156.055 221.592 151.784 221.592H141.214C138.173 221.57 140.074 218.983 140.201 213.602Z" fill="#727272"/>
<path d="M149.979 215.092C149.054 214.98 148.155 214.705 147.326 214.28C147.301 214.272 147.281 214.256 147.266 214.235C147.251 214.192 147.251 214.144 147.266 214.101C147.266 214.041 147.825 212.543 148.697 212.185C148.827 212.126 148.968 212.096 149.111 212.096C149.254 212.096 149.395 212.126 149.524 212.185C149.815 212.327 149.957 212.506 149.942 212.722C149.942 213.057 149.465 213.4 148.951 213.676C149.433 213.594 149.929 213.648 150.382 213.833C150.466 213.877 150.54 213.938 150.599 214.012C150.658 214.087 150.701 214.173 150.725 214.265C150.773 214.38 150.784 214.508 150.756 214.629C150.727 214.751 150.662 214.861 150.568 214.943C150.397 215.063 150.187 215.116 149.979 215.092ZM147.907 214.176C148.854 214.571 150.024 214.921 150.329 214.682C150.329 214.682 150.434 214.593 150.367 214.339C150.353 214.292 150.33 214.248 150.3 214.21C150.269 214.171 150.231 214.14 150.188 214.116C149.726 213.87 148.63 214.034 147.907 214.19V214.176ZM149.055 212.416C148.965 212.416 148.876 212.433 148.794 212.469C148.292 212.797 147.908 213.278 147.698 213.84C148.645 213.482 149.562 212.983 149.577 212.7C149.577 212.61 149.435 212.528 149.346 212.483C149.261 212.448 149.169 212.431 149.077 212.431L149.055 212.416Z" fill="#B0B3B8"/>
<path d="M103.005 89.8669L116.757 91.3055V88.1824L103.407 86.8854C103.303 87.6308 103.132 88.8607 103.005 89.8669Z" fill="#727272"/>
<path d="M117.831 88.2792V91.4098L123.526 92.0061V88.8382L117.831 88.2792Z" fill="#727272"/>
<path d="M102.312 86.7438L96.5277 86.1698L95.8047 89.1066L101.768 89.7253L102.312 86.7438Z" fill="#727272"/>
<path d="M106.427 49.0048C106.427 49.0048 100.742 53.8858 92.3339 80.5931L90.9922 80.2576C90.9922 80.2576 99.3757 51.4422 106.427 49.0048Z" fill="#727272"/>
<path d="M128.821 39.7433C128.821 39.7433 128.866 48.4197 121.33 51.2969C113.794 54.1741 118.498 63.5361 110.105 62.433C105.632 61.8441 99.2816 52.2137 110.105 43.7311C116.418 38.7892 108.912 22.5472 125.646 24.0752C125.646 24.0752 125.363 35.2039 128.821 39.7433Z" fill="#727272"/>
</g>
<defs>
<clipPath id="clip0_1677_20293">
<rect width="289" height="230" fill="white"/>
</clipPath>
</defs>
</svg>
