<svg width="24" height="24" viewBox="0 0 24 24" fill="none" xmlns="http://www.w3.org/2000/svg">
<g id="Insurance">
<path id="Vector" d="M11.75 22C9.53343 21.3026 7.68762 19.9298 6.21256 17.8816C4.73752 15.8333 4 13.5095 4 10.9099V4.90082L11.75 2L19.5 4.90082V10.9099C19.5 13.5095 18.7625 15.8333 17.2874 17.8816C15.8124 19.9298 13.9666 21.3026 11.75 22ZM11.75 21.1912C13.7768 20.5404 15.4502 19.2527 16.7701 17.3279C18.09 15.403 18.75 13.2643 18.75 10.9118V5.39374L11.75 2.80882L4.75 5.39374V10.9118C4.75 13.2643 5.40997 15.403 6.72991 17.3279C8.04983 19.2527 9.7232 20.5404 11.75 21.1912Z" fill="#183883"/>
<path id="Vector_2" d="M12.6768 15.2499H10.8239V12.3088H7.88269V10.4558H10.8239V7.51465H12.6768V10.4558H15.618V12.3088H12.6768V15.2499Z" stroke="#183883" stroke-width="0.5"/>
</g>
</svg>
