<svg width="24" height="25" viewBox="0 0 24 25" fill="none" xmlns="http://www.w3.org/2000/svg">
<mask id="mask0_1739_40375" style="mask-type:alpha" maskUnits="userSpaceOnUse" x="0" y="0" width="24" height="25">
<rect y="0.5" width="24" height="24" fill="#D9D9D9"/>
</mask>
<g mask="url(#mask0_1739_40375)">
<path d="M18.6923 19H8.3077C7.80257 19 7.375 18.825 7.025 18.475C6.675 18.125 6.5 17.6974 6.5 17.1923V3.8077C6.5 3.30257 6.675 2.875 7.025 2.525C7.375 2.175 7.80257 2 8.3077 2H15.25L20.5 7.24995V17.1923C20.5 17.6974 20.325 18.125 19.975 18.475C19.625 18.825 19.1974 19 18.6923 19ZM14.5 7.99995V3.49998H8.3077C8.23077 3.49998 8.16024 3.53203 8.09613 3.59613C8.03203 3.66024 7.99998 3.73077 7.99998 3.8077V17.1923C7.99998 17.2692 8.03203 17.3397 8.09613 17.4038C8.16024 17.4679 8.23077 17.5 8.3077 17.5H18.6923C18.7692 17.5 18.8397 17.4679 18.9038 17.4038C18.9679 17.3397 19 17.2692 19 17.1923V7.99995H14.5ZM4.3077 23C3.80257 23 3.375 22.825 3.025 22.475C2.675 22.125 2.5 21.6974 2.5 21.1923V8H3.99998V21.1923C3.99998 21.2692 4.03202 21.3397 4.09613 21.4038C4.16024 21.4679 4.23077 21.5 4.3077 21.5H14.5V22.9999L4.3077 23Z" fill="#183883"/>
</g>
</svg>
