<svg width="151" height="48" viewBox="0 0 151 48" fill="none" xmlns="http://www.w3.org/2000/svg">
<path d="M8.89914 27.6611C7.59583 27.6611 6.33323 27.459 5.11136 27.0548C3.90112 26.6507 2.84216 26.0733 1.93449 25.3227C1.02681 24.5721 0.386784 23.6772 0.0144043 22.638L2.30105 21.7893C2.55706 22.5052 3.02254 23.1229 3.69748 23.6426C4.38405 24.1507 5.18118 24.5433 6.08885 24.8204C7.00817 25.0975 7.94494 25.2362 8.89914 25.2362C10.0163 25.2362 11.0578 25.0514 12.0236 24.6819C12.9895 24.3124 13.7692 23.7985 14.3627 23.1403C14.9561 22.4706 15.2529 21.6853 15.2529 20.7846C15.2529 19.8725 14.9446 19.1219 14.3278 18.5329C13.711 17.944 12.9138 17.4821 11.9364 17.1473C10.9705 16.8009 9.9581 16.5352 8.89914 16.3505C7.23508 16.0618 5.73974 15.6692 4.41315 15.1727C3.09818 14.6762 2.05668 13.9775 1.28864 13.0768C0.520608 12.1646 0.136592 10.9637 0.136592 9.47411C0.136592 8.07685 0.543882 6.86439 1.35847 5.83667C2.17304 4.80897 3.24364 4.0122 4.57025 3.44639C5.90849 2.88056 7.35146 2.59766 8.89914 2.59766C10.1676 2.59766 11.4069 2.79396 12.6171 3.18657C13.8274 3.57918 14.8922 4.15077 15.8115 4.90134C16.7424 5.65192 17.4115 6.56993 17.8189 7.65538L15.4973 8.48677C15.2413 7.7593 14.77 7.14152 14.0834 6.63344C13.4085 6.11381 12.6171 5.7212 11.7095 5.45562C10.8018 5.17848 9.86498 5.03991 8.89914 5.03991C7.79366 5.02836 6.75797 5.21312 5.79211 5.59418C4.83789 5.96369 4.06404 6.48332 3.47056 7.15307C2.87707 7.81126 2.58033 8.58497 2.58033 9.47411C2.58033 10.5133 2.8538 11.3158 3.40074 11.8817C3.95931 12.4359 4.7157 12.8517 5.66993 13.1288C6.62415 13.406 7.70057 13.6542 8.89914 13.8736C10.4585 14.1392 11.9073 14.5549 13.2456 15.1207C14.5838 15.675 15.6602 16.4198 16.4747 17.3551C17.2893 18.2789 17.6967 19.4221 17.6967 20.7846C17.6967 22.1704 17.2893 23.3828 16.4747 24.422C15.6602 25.4497 14.5838 26.2465 13.2456 26.8124C11.9189 27.3782 10.4701 27.6611 8.89914 27.6611Z" fill="#042879"/>
<path d="M28.6782 27.2107H26.1647L20.3171 9.88965H22.7085L27.4563 23.8503L32.1693 9.88965H34.7527L39.4656 23.8503L44.1785 9.88965H46.5874L40.7399 27.2107H38.2088L33.4261 13.1113L28.6782 27.2107Z" fill="#042879"/>
<path d="M49.4907 9.88968H51.9344V27.2107H49.4907V9.88968ZM50.7301 6.85853C50.3344 6.85853 49.9969 6.73151 49.7177 6.47748C49.45 6.21188 49.3162 5.88279 49.3162 5.49018C49.3162 5.09758 49.45 4.77425 49.7177 4.52021C49.9969 4.25462 50.3344 4.12183 50.7301 4.12183C51.1141 4.12183 51.4399 4.25462 51.7076 4.52021C51.9868 4.77425 52.1265 5.09758 52.1265 5.49018C52.1265 5.88279 51.9927 6.21188 51.725 6.47748C51.4573 6.73151 51.1257 6.85853 50.7301 6.85853Z" fill="#042879"/>
<path d="M59.7519 5.36889V9.88963H64.9885V12.3146H59.7519V27.2106H57.3082V12.3146H54.9167V9.88963H57.3082V5.36889C57.3082 4.52594 57.5118 3.76381 57.9191 3.08252C58.3381 2.38968 58.8966 1.84119 59.5948 1.43703C60.293 1.02132 61.0669 0.813477 61.9164 0.813477C62.5332 0.813477 63.1266 0.934721 63.6968 1.17722C64.2786 1.41971 64.7965 1.77767 65.2503 2.25112L63.5048 3.96589C63.3186 3.73494 63.0801 3.55596 62.7891 3.42894C62.5098 3.30192 62.2189 3.2384 61.9164 3.2384C61.3229 3.2384 60.8108 3.44626 60.3803 3.86197C59.9613 4.27766 59.7519 4.77997 59.7519 5.36889Z" fill="#042879"/>
<path d="M77.2977 12.3147H73.1259L73.1084 27.2107H70.6647L70.6821 12.3147H67.5227V9.88968H70.6821L70.6647 4.45093H73.1084L73.1259 9.88968H77.2977V12.3147Z" fill="#042879"/>
<path d="M91.724 27.661C90.0715 27.661 88.5177 27.3377 87.0628 26.691C85.6086 26.0328 84.3285 25.1321 83.2225 23.989C82.1287 22.8342 81.268 21.4947 80.6395 19.9705C80.0228 18.4462 79.7144 16.8181 79.7144 15.086C79.7144 13.3539 80.0228 11.7257 80.6395 10.2015C81.268 8.67724 82.1287 7.34353 83.2225 6.20035C84.3285 5.04561 85.6086 4.14493 87.0628 3.49828C88.5177 2.84009 90.0715 2.51099 91.724 2.51099C93.702 2.51099 95.5229 2.96711 97.1868 3.87934C98.8514 4.79158 100.23 6.00404 101.324 7.51674L99.1599 8.67724C98.2985 7.53406 97.2046 6.6276 95.8784 5.95785C94.5627 5.27657 93.1781 4.93592 91.724 4.93592C90.3856 4.93592 89.1347 5.20728 87.9704 5.75C86.8191 6.28118 85.8062 7.01443 84.9334 7.94976C84.0605 8.8851 83.3796 9.96478 82.8914 11.1888C82.4024 12.4128 82.1578 13.7119 82.1578 15.086C82.1578 16.4832 82.4024 17.7938 82.8914 19.0178C83.3918 20.2418 84.0784 21.3215 84.9512 22.2568C85.8353 23.1922 86.8539 23.9255 88.006 24.4566C89.1695 24.9762 90.4083 25.2361 91.724 25.2361C93.2364 25.2361 94.6388 24.8954 95.9302 24.2141C97.2337 23.5213 98.3098 22.6206 99.1599 21.512L101.324 22.6726C100.23 24.1852 98.8514 25.3978 97.1868 26.31C95.5229 27.2107 93.702 27.661 91.724 27.661Z" fill="#042879"/>
<path d="M111.616 27.6611C110.011 27.6611 108.545 27.2511 107.218 26.4313C105.903 25.6114 104.85 24.5145 104.058 23.1403C103.279 21.7546 102.889 20.2246 102.889 18.5503C102.889 17.28 103.116 16.0965 103.57 14.9995C104.023 13.8909 104.646 12.9209 105.437 12.0895C106.24 11.2466 107.171 10.5884 108.231 10.1149C109.29 9.64153 110.418 9.40479 111.616 9.40479C113.223 9.40479 114.683 9.81474 115.998 10.6346C117.325 11.4545 118.378 12.5572 119.158 13.9429C119.949 15.3286 120.345 16.8643 120.345 18.5503C120.345 19.8089 120.117 20.9867 119.664 22.0837C119.21 23.1807 118.581 24.1507 117.778 24.9936C116.987 25.825 116.062 26.4775 115.003 26.9509C113.956 27.4243 112.827 27.6611 111.616 27.6611ZM111.616 25.2362C112.803 25.2362 113.868 24.9301 114.811 24.3181C115.765 23.6946 116.516 22.8747 117.063 21.8585C117.621 20.8424 117.9 19.7396 117.9 18.5503C117.9 17.3378 117.621 16.2235 117.063 15.2073C116.504 14.1796 115.747 13.3597 114.794 12.7477C113.851 12.1357 112.792 11.8297 111.616 11.8297C110.43 11.8297 109.359 12.1415 108.405 12.765C107.462 13.3771 106.712 14.1911 106.153 15.2073C105.606 16.2235 105.333 17.3378 105.333 18.5503C105.333 19.7974 105.618 20.929 106.188 21.9452C106.759 22.9497 107.52 23.7523 108.475 24.3527C109.429 24.9417 110.476 25.2362 111.616 25.2362Z" fill="#042879"/>
<path d="M123.301 27.2107V9.88975H125.744V12.2801C126.361 11.4025 127.164 10.7039 128.153 10.1843C129.142 9.66464 130.219 9.40479 131.383 9.40479C132.057 9.40479 132.709 9.49143 133.337 9.66464L132.343 12.0722C131.854 11.9221 131.377 11.847 130.912 11.847C129.969 11.847 129.102 12.078 128.31 12.5398C127.53 13.0018 126.909 13.6195 126.443 14.3932C125.978 15.1669 125.744 16.0272 125.744 16.9741V27.2107H123.301Z" fill="#042879"/>
<path d="M142.299 27.6611C140.694 27.6611 139.228 27.2511 137.901 26.4313C136.586 25.6114 135.533 24.5145 134.742 23.1403C133.962 21.7546 133.572 20.2246 133.572 18.5503C133.572 17.28 133.799 16.0965 134.253 14.9995C134.706 13.8909 135.329 12.9209 136.121 12.0895C136.923 11.2466 137.854 10.5884 138.913 10.1149C139.972 9.64153 141.101 9.40479 142.299 9.40479C143.592 9.40479 144.779 9.65886 145.86 10.1669C146.954 10.675 147.891 11.3852 148.671 12.2974C149.462 13.2096 150.056 14.2778 150.451 15.5018C150.858 16.7258 151.028 18.048 150.958 19.4683H136.156C136.295 20.5653 136.644 21.5468 137.203 22.4128C137.773 23.2788 138.495 23.966 139.368 24.474C140.252 24.9705 141.229 25.2246 142.299 25.2362C143.464 25.2362 144.511 24.9359 145.442 24.3355C146.384 23.735 147.14 22.9094 147.711 21.8585L150.19 22.4301C149.492 23.966 148.438 25.2246 147.03 26.2061C145.622 27.1761 144.045 27.6611 142.299 27.6611ZM136.086 17.511H148.497C148.415 16.4371 148.084 15.4556 147.501 14.5664C146.931 13.6657 146.192 12.9498 145.285 12.4186C144.377 11.8759 143.382 11.6046 142.299 11.6046C141.218 11.6046 140.228 11.8701 139.332 12.4013C138.436 12.9209 137.703 13.6311 137.133 14.5318C136.563 15.4209 136.214 16.414 136.086 17.511Z" fill="#042879"/>
<path d="M132 33H19V47H132V33Z" fill="#ED3237"/>
<path d="M28.1788 43.4582L26.5034 37.5337H27.6827L28.8246 41.5835L29.9664 37.5337H31.01L32.1519 41.5835L33.289 37.5337H34.4684L32.8023 43.4582H31.5061L30.4859 39.8697L29.4797 43.4582H28.1788Z" fill="white"/>
<path d="M36.2034 43.4582V37.5337H37.3452V43.4582H36.2034Z" fill="white"/>
<path d="M44.3223 37.5337V38.5663H42.3194V43.4582H41.1775V38.5663H39.1746V37.5337H44.3223Z" fill="white"/>
<path d="M49.862 37.5337H51.0038V43.4582H49.862V40.8006H47.1477V43.4582H46.0059V37.5337H47.1477V39.7681H49.862V37.5337Z" fill="white"/>
<path d="M59.891 37.5337H61.2387L58.9878 40.7879V43.4582H57.8459V40.7879L55.595 37.5337H56.9427L58.4169 39.6623L59.891 37.5337Z" fill="white"/>
<path d="M65.3792 43.5684C64.9363 43.5684 64.5193 43.4894 64.129 43.3314C63.7396 43.1706 63.3963 42.9491 63.1 42.667C62.8035 42.3849 62.5711 42.059 62.4026 41.6895C62.2341 41.317 62.1499 40.9193 62.1499 40.4961C62.1499 40.0729 62.2341 39.6766 62.4026 39.307C62.5711 38.9346 62.8035 38.6073 63.1 38.3252C63.3963 38.0431 63.7396 37.823 64.129 37.665C64.5193 37.5042 64.9363 37.4238 65.3792 37.4238C65.8253 37.4238 66.2431 37.5042 66.6333 37.665C67.0228 37.823 67.3661 38.0431 67.6624 38.3252C67.9587 38.6073 68.1895 38.9346 68.3555 39.307C68.5239 39.6766 68.6081 40.0729 68.6081 40.4961C68.6081 40.9193 68.5239 41.317 68.3555 41.6895C68.1895 42.059 67.9587 42.3849 67.6624 42.667C67.3661 42.9491 67.0228 43.1706 66.6333 43.3314C66.2431 43.4894 65.8253 43.5684 65.3792 43.5684ZM65.3792 42.5358C65.6658 42.5358 65.9362 42.4822 66.1888 42.375C66.4414 42.2678 66.6625 42.1211 66.8527 41.9349C67.0462 41.7459 67.196 41.5286 67.3021 41.2832C67.4114 41.0377 67.4665 40.7754 67.4665 40.4961C67.4665 40.2168 67.4114 39.9544 67.3021 39.709C67.1928 39.4607 67.0414 39.2435 66.8487 39.0573C66.6584 38.8711 66.4366 38.7244 66.184 38.6172C65.9346 38.51 65.6658 38.4564 65.3792 38.4564C65.0917 38.4564 64.8221 38.51 64.5695 38.6172C64.3169 38.7244 64.0934 38.8725 63.8999 39.0615C63.7096 39.2477 63.5598 39.4636 63.4505 39.709C63.3445 39.9544 63.2918 40.2168 63.2918 40.4961C63.2918 40.7782 63.3461 41.042 63.4554 41.2874C63.5647 41.5329 63.7145 41.7501 63.9048 41.9392C64.0983 42.1253 64.3201 42.2721 64.5695 42.3792C64.8221 42.4836 65.0917 42.5358 65.3792 42.5358Z" fill="white"/>
<path d="M72.8403 43.5683C72.3164 43.5683 71.8565 43.4526 71.4598 43.2212C71.0671 42.9899 70.761 42.6795 70.5424 42.2902C70.3246 41.8981 70.2153 41.4637 70.2153 40.9868V37.5337H71.357V40.9868C71.357 41.269 71.4144 41.5285 71.5302 41.7655C71.6484 41.9996 71.8177 42.1872 72.0355 42.3283C72.2573 42.4665 72.5253 42.5357 72.8403 42.5357C73.1585 42.5357 73.4273 42.4665 73.6459 42.3283C73.8637 42.1872 74.0288 41.9996 74.1414 41.7655C74.2572 41.5285 74.3146 41.269 74.3146 40.9868V37.5337H75.4563V40.9868C75.4563 41.3451 75.3939 41.6809 75.2692 41.994C75.1446 42.3043 74.9664 42.578 74.7357 42.815C74.5049 43.052 74.2288 43.2367 73.9074 43.3694C73.5892 43.502 73.2338 43.5683 72.8403 43.5683Z" fill="white"/>
<path d="M76.9006 43.9323L77.1905 42.502H78.3329L77.6633 43.9323H76.9006Z" fill="white"/>
<path d="M83.2017 43.4582V37.5337H87.0718V38.5663H84.3433V39.7681H86.6225V40.8006H84.3433V43.4582H83.2017Z" fill="white"/>
<path d="M91.4521 43.5684C91.0092 43.5684 90.593 43.4894 90.2028 43.3314C89.8125 43.1706 89.47 42.9491 89.1729 42.667C88.8765 42.3849 88.6442 42.059 88.4758 41.6895C88.3073 41.317 88.2231 40.9193 88.2231 40.4961C88.2231 40.0729 88.3073 39.6766 88.4758 39.307C88.6442 38.9346 88.8765 38.6073 89.1729 38.3252C89.47 38.0431 89.8125 37.823 90.2028 37.665C90.593 37.5042 91.0092 37.4238 91.4521 37.4238C91.8982 37.4238 92.3168 37.5042 92.7062 37.665C93.0965 37.823 93.4398 38.0431 93.7361 38.3252C94.0325 38.6073 94.2632 38.9346 94.4284 39.307C94.5968 39.6766 94.681 40.0729 94.681 40.4961C94.681 40.9193 94.5968 41.317 94.4284 41.6895C94.2632 42.059 94.0325 42.3849 93.7361 42.667C93.4398 42.9491 93.0965 43.1706 92.7062 43.3314C92.3168 43.4894 91.8982 43.5684 91.4521 43.5684ZM91.4521 42.5358C91.7395 42.5358 92.0091 42.4822 92.2617 42.375C92.5143 42.2678 92.7362 42.1211 92.9265 41.9349C93.12 41.7459 93.2698 41.5286 93.3758 41.2832C93.4851 41.0377 93.5394 40.7754 93.5394 40.4961C93.5394 40.2168 93.4851 39.9544 93.3758 39.709C93.2665 39.4607 93.1151 39.2435 92.9216 39.0573C92.7313 38.8711 92.5103 38.7244 92.2569 38.6172C92.0075 38.51 91.7395 38.4564 91.4521 38.4564C91.1654 38.4564 90.895 38.51 90.6424 38.6172C90.3898 38.7244 90.1671 38.8725 89.9736 39.0615C89.7834 39.2477 89.6336 39.4636 89.5243 39.709C89.4182 39.9544 89.3648 40.2168 89.3648 40.4961C89.3648 40.7782 89.4198 41.042 89.5291 41.2874C89.6384 41.5329 89.7882 41.7501 89.9785 41.9392C90.172 42.1253 90.393 42.2721 90.6424 42.3792C90.895 42.4836 91.1654 42.5358 91.4521 42.5358Z" fill="white"/>
<path d="M96.2791 43.4582V37.5337H98.7922C99.1477 37.5337 99.4691 37.6142 99.7565 37.7749C100.043 37.9358 100.271 38.1516 100.439 38.4224C100.608 38.6904 100.693 38.988 100.693 39.3153C100.693 39.5833 100.637 39.8302 100.528 40.0559C100.422 40.2787 100.272 40.472 100.079 40.6356C99.8885 40.7992 99.6691 40.9234 99.4189 41.008L100.987 43.4582H99.6723L98.1558 41.1011H97.4207V43.4582H96.2791ZM97.4207 40.0686H98.6611C98.823 40.0686 98.9712 40.0319 99.1056 39.9585C99.24 39.8852 99.3477 39.7864 99.4286 39.6623C99.5096 39.5381 99.5501 39.3999 99.5501 39.2476C99.5501 39.0924 99.5096 38.9528 99.4286 38.8286C99.3477 38.7045 99.24 38.6058 99.1056 38.5324C98.9712 38.459 98.823 38.4224 98.6611 38.4224H97.4207V40.0686Z" fill="white"/>
<path d="M109.716 37.5337H111.064L108.813 40.7879V43.4582H107.671V40.7879L105.42 37.5337H106.768L108.243 39.6623L109.716 37.5337Z" fill="white"/>
<path d="M115.204 43.5684C114.761 43.5684 114.345 43.4894 113.955 43.3314C113.564 43.1706 113.222 42.9491 112.926 42.667C112.629 42.3849 112.396 42.059 112.228 41.6895C112.059 41.317 111.975 40.9193 111.975 40.4961C111.975 40.0729 112.059 39.6766 112.228 39.307C112.396 38.9346 112.629 38.6073 112.926 38.3252C113.222 38.0431 113.564 37.823 113.955 37.665C114.345 37.5042 114.761 37.4238 115.204 37.4238C115.65 37.4238 116.069 37.5042 116.458 37.665C116.848 37.823 117.192 38.0431 117.488 38.3252C117.784 38.6073 118.015 38.9346 118.18 39.307C118.349 39.6766 118.433 40.0729 118.433 40.4961C118.433 40.9193 118.349 41.317 118.18 41.6895C118.015 42.059 117.784 42.3849 117.488 42.667C117.192 42.9491 116.848 43.1706 116.458 43.3314C116.069 43.4894 115.65 43.5684 115.204 43.5684ZM115.204 42.5358C115.491 42.5358 115.761 42.4822 116.014 42.375C116.266 42.2678 116.488 42.1211 116.678 41.9349C116.872 41.7459 117.022 41.5286 117.128 41.2832C117.237 41.0377 117.291 40.7754 117.291 40.4961C117.291 40.2168 117.237 39.9544 117.128 39.709C117.018 39.4607 116.867 39.2435 116.674 39.0573C116.483 38.8711 116.262 38.7244 116.01 38.6172C115.759 38.51 115.491 38.4564 115.204 38.4564C114.917 38.4564 114.648 38.51 114.394 38.6172C114.142 38.7244 113.919 38.8725 113.726 39.0615C113.535 39.2477 113.386 39.4636 113.276 39.709C113.17 39.9544 113.118 40.2168 113.118 40.4961C113.118 40.7782 113.172 41.042 113.281 41.2874C113.39 41.5329 113.54 41.7501 113.73 41.9392C113.924 42.1253 114.145 42.2721 114.394 42.3792C114.648 42.4836 114.917 42.5358 115.204 42.5358Z" fill="white"/>
<path d="M122.666 43.5683C122.142 43.5683 121.682 43.4526 121.286 43.2212C120.892 42.9899 120.587 42.6795 120.368 42.2902C120.15 41.8981 120.041 41.4637 120.041 40.9868V37.5337H121.183V40.9868C121.183 41.269 121.24 41.5285 121.356 41.7655C121.474 41.9996 121.643 42.1872 121.861 42.3283C122.082 42.4665 122.351 42.5357 122.666 42.5357C122.984 42.5357 123.252 42.4665 123.471 42.3283C123.69 42.1872 123.855 41.9996 123.967 41.7655C124.082 41.5285 124.141 41.269 124.141 40.9868V37.5337H125.282V40.9868C125.282 41.3451 125.22 41.6809 125.095 41.994C124.97 42.3043 124.792 42.578 124.562 42.815C124.331 43.052 124.055 43.2367 123.733 43.3694C123.415 43.502 123.06 43.5683 122.666 43.5683Z" fill="white"/>
</svg>
