<svg width="188" height="48" viewBox="0 0 188 48" fill="none" xmlns="http://www.w3.org/2000/svg">
<path d="M169.019 38.1359C167.138 38.1359 165.46 37.7392 163.987 36.9459C162.536 36.1299 161.392 35.0192 160.553 33.6139C159.737 32.1859 159.329 30.5539 159.329 28.7179C159.329 26.8592 159.714 25.2272 160.485 23.8219C161.278 22.3939 162.366 21.2832 163.749 20.4899C165.132 19.6739 166.718 19.2659 168.509 19.2659C170.277 19.2659 171.796 19.6625 173.065 20.4559C174.334 21.2265 175.298 22.3032 175.955 23.6859C176.635 25.0459 176.975 26.6212 176.975 28.4119C176.975 28.8425 176.828 29.2052 176.533 29.4999C176.238 29.7719 175.864 29.9079 175.411 29.9079H161.709V27.1879H175.309L173.915 28.1399C173.892 27.0065 173.666 25.9979 173.235 25.1139C172.804 24.2072 172.192 23.4932 171.399 22.9719C170.606 22.4505 169.642 22.1899 168.509 22.1899C167.217 22.1899 166.106 22.4732 165.177 23.0399C164.27 23.6065 163.579 24.3885 163.103 25.3859C162.627 26.3605 162.389 27.4712 162.389 28.7179C162.389 29.9645 162.672 31.0752 163.239 32.0499C163.806 33.0245 164.588 33.7952 165.585 34.3619C166.582 34.9285 167.727 35.2119 169.019 35.2119C169.722 35.2119 170.436 35.0872 171.161 34.8379C171.909 34.5659 172.51 34.2599 172.963 33.9199C173.303 33.6705 173.666 33.5459 174.051 33.5459C174.459 33.5232 174.81 33.6365 175.105 33.8859C175.49 34.2259 175.694 34.5999 175.717 35.0079C175.74 35.4159 175.558 35.7672 175.173 36.0619C174.402 36.6739 173.439 37.1725 172.283 37.5579C171.15 37.9432 170.062 38.1359 169.019 38.1359Z" fill="#ED3237"/>
<path d="M146.773 26.372C146.773 25.012 147.102 23.7993 147.759 22.734C148.439 21.646 149.346 20.7847 150.479 20.15C151.613 19.5153 152.859 19.198 154.219 19.198C155.579 19.198 156.588 19.4247 157.245 19.878C157.925 20.3087 158.186 20.83 158.027 21.442C157.959 21.7593 157.823 22.0087 157.619 22.19C157.438 22.3487 157.223 22.4507 156.973 22.496C156.724 22.5413 156.452 22.53 156.157 22.462C154.707 22.1673 153.403 22.1447 152.247 22.394C151.091 22.6433 150.173 23.108 149.493 23.788C148.836 24.468 148.507 25.3293 148.507 26.372H146.773ZM146.807 38C146.263 38 145.844 37.864 145.549 37.592C145.255 37.2973 145.107 36.8667 145.107 36.3V21.102C145.107 20.558 145.255 20.1387 145.549 19.844C145.844 19.5493 146.263 19.402 146.807 19.402C147.374 19.402 147.793 19.5493 148.065 19.844C148.36 20.116 148.507 20.5353 148.507 21.102V36.3C148.507 36.844 148.36 37.2633 148.065 37.558C147.793 37.8527 147.374 38 146.807 38Z" fill="#ED3237"/>
<path d="M130.596 38.1359C128.76 38.1359 127.139 37.7392 125.734 36.9459C124.329 36.1299 123.218 35.0192 122.402 33.6139C121.609 32.1859 121.212 30.5539 121.212 28.7179C121.212 26.8592 121.609 25.2272 122.402 23.8219C123.218 22.3939 124.329 21.2832 125.734 20.4899C127.139 19.6739 128.76 19.2659 130.596 19.2659C132.409 19.2659 134.019 19.6739 135.424 20.4899C136.829 21.2832 137.929 22.3939 138.722 23.8219C139.538 25.2272 139.946 26.8592 139.946 28.7179C139.946 30.5539 139.549 32.1859 138.756 33.6139C137.963 35.0192 136.863 36.1299 135.458 36.9459C134.053 37.7392 132.432 38.1359 130.596 38.1359ZM130.596 35.0759C131.775 35.0759 132.817 34.8039 133.724 34.2599C134.631 33.7159 135.333 32.9679 135.832 32.0159C136.353 31.0639 136.614 29.9645 136.614 28.7179C136.614 27.4712 136.353 26.3719 135.832 25.4199C135.333 24.4452 134.631 23.6859 133.724 23.1419C132.817 22.5979 131.775 22.3259 130.596 22.3259C129.417 22.3259 128.375 22.5979 127.468 23.1419C126.561 23.6859 125.847 24.4452 125.326 25.4199C124.805 26.3719 124.544 27.4712 124.544 28.7179C124.544 29.9645 124.805 31.0639 125.326 32.0159C125.847 32.9679 126.561 33.7159 127.468 34.2599C128.375 34.8039 129.417 35.0759 130.596 35.0759Z" fill="#ED3237"/>
<path d="M109.336 38.34C107.5 38.34 105.777 38 104.168 37.32C102.581 36.6173 101.187 35.654 99.9859 34.43C98.8072 33.1833 97.8779 31.7326 97.1979 30.078C96.5406 28.4233 96.2119 26.6326 96.2119 24.706C96.2119 22.802 96.5406 21.034 97.1979 19.402C97.8779 17.7473 98.8072 16.308 99.9859 15.084C101.187 13.8373 102.581 12.8626 104.168 12.16C105.755 11.4573 107.477 11.106 109.336 11.106C111.081 11.106 112.577 11.3326 113.824 11.786C115.093 12.2393 116.363 12.9873 117.632 14.03C117.813 14.166 117.949 14.3133 118.04 14.472C118.153 14.608 118.221 14.7553 118.244 14.914C118.289 15.05 118.312 15.22 118.312 15.424C118.312 15.8546 118.153 16.2173 117.836 16.512C117.541 16.784 117.179 16.9426 116.748 16.988C116.317 17.0106 115.898 16.8633 115.49 16.546C114.651 15.8206 113.779 15.2653 112.872 14.88C111.988 14.4946 110.809 14.302 109.336 14.302C107.999 14.302 106.741 14.574 105.562 15.118C104.383 15.662 103.341 16.41 102.434 17.362C101.55 18.314 100.859 19.4246 100.36 20.694C99.8612 21.9406 99.6119 23.278 99.6119 24.706C99.6119 26.1566 99.8612 27.5166 100.36 28.786C100.859 30.0326 101.55 31.132 102.434 32.084C103.341 33.036 104.383 33.784 105.562 34.328C106.741 34.8493 107.999 35.11 109.336 35.11C110.492 35.11 111.58 34.9173 112.6 34.532C113.643 34.124 114.64 33.5686 115.592 32.866C116 32.5713 116.397 32.4466 116.782 32.492C117.19 32.5146 117.53 32.6733 117.802 32.968C118.074 33.24 118.21 33.6253 118.21 34.124C118.21 34.3506 118.165 34.5773 118.074 34.804C117.983 35.008 117.847 35.2006 117.666 35.382C116.442 36.3566 115.127 37.0933 113.722 37.592C112.339 38.0906 110.877 38.34 109.336 38.34Z" fill="#ED3237"/>
<path d="M90.2153 37.9998C89.082 37.9998 88.062 37.7165 87.1553 37.1498C86.2487 36.5605 85.5347 35.7672 85.0133 34.7698C84.492 33.7725 84.2313 32.6505 84.2313 31.4038V15.1858C84.2313 14.6872 84.39 14.2792 84.7073 13.9618C85.0247 13.6445 85.4327 13.4858 85.9313 13.4858C86.43 13.4858 86.838 13.6445 87.1553 13.9618C87.4727 14.2792 87.6313 14.6872 87.6313 15.1858V31.4038C87.6313 32.3105 87.8807 33.0698 88.3793 33.6818C88.878 34.2938 89.49 34.5998 90.2153 34.5998H91.3713C91.7793 34.5998 92.1193 34.7585 92.3913 35.0758C92.686 35.3932 92.8333 35.8012 92.8333 36.2998C92.8333 36.7985 92.6407 37.2065 92.2553 37.5238C91.8927 37.8412 91.4167 37.9998 90.8273 37.9998H90.2153ZM82.6673 23.0058C82.1913 23.0058 81.806 22.8698 81.5113 22.5978C81.2167 22.3258 81.0693 21.9858 81.0693 21.5778C81.0693 21.1245 81.2167 20.7618 81.5113 20.4898C81.806 20.2178 82.1913 20.0818 82.6673 20.0818H90.5213C90.9973 20.0818 91.3827 20.2178 91.6773 20.4898C91.972 20.7618 92.1193 21.1245 92.1193 21.5778C92.1193 21.9858 91.972 22.3258 91.6773 22.5978C91.3827 22.8698 90.9973 23.0058 90.5213 23.0058H82.6673Z" fill="#042879"/>
<path d="M72.9711 38C72.5405 38 72.1551 37.8414 71.8151 37.524C71.4751 37.2067 71.3051 36.7874 71.3051 36.266V19.504C71.3051 17.872 71.6225 16.4554 72.2571 15.254C72.9145 14.0527 73.8211 13.1234 74.9771 12.466C76.1331 11.786 77.4704 11.446 78.9891 11.446C79.4878 11.446 79.8958 11.5934 80.2131 11.888C80.5531 12.1827 80.7231 12.5567 80.7231 13.01C80.7231 13.4407 80.5531 13.8147 80.2131 14.132C79.8958 14.4267 79.4878 14.574 78.9891 14.574C78.1504 14.574 77.4138 14.7667 76.7791 15.152C76.1445 15.5374 75.6458 16.07 75.2831 16.75C74.9431 17.43 74.7731 18.2347 74.7731 19.164V36.266C74.7731 36.7874 74.6144 37.2067 74.2971 37.524C73.9798 37.8414 73.5378 38 72.9711 38ZM69.8431 23.006C69.3671 23.006 68.9818 22.87 68.6871 22.598C68.3925 22.326 68.2451 21.986 68.2451 21.578C68.2451 21.1247 68.3925 20.762 68.6871 20.49C68.9818 20.218 69.3671 20.082 69.8431 20.082H78.2411C78.7171 20.082 79.1025 20.218 79.3971 20.49C79.6918 20.762 79.8391 21.1247 79.8391 21.578C79.8391 21.986 79.6918 22.326 79.3971 22.598C79.1025 22.87 78.7171 23.006 78.2411 23.006H69.8431Z" fill="#042879"/>
<path d="M62.7792 37.9999C62.2805 37.9999 61.8612 37.8413 61.5212 37.5239C61.2038 37.1839 61.0452 36.7646 61.0452 36.2659V21.1359C61.0452 20.6146 61.2038 20.1953 61.5212 19.8779C61.8612 19.5606 62.2805 19.4019 62.7792 19.4019C63.3005 19.4019 63.7198 19.5606 64.0372 19.8779C64.3545 20.1953 64.5132 20.6146 64.5132 21.1359V36.2659C64.5132 36.7646 64.3545 37.1839 64.0372 37.5239C63.7198 37.8413 63.3005 37.9999 62.7792 37.9999ZM62.7792 16.3759C62.1672 16.3759 61.6345 16.1606 61.1812 15.7299C60.7505 15.2766 60.5352 14.7439 60.5352 14.1319C60.5352 13.5199 60.7505 12.9986 61.1812 12.5679C61.6345 12.1146 62.1672 11.8879 62.7792 11.8879C63.3912 11.8879 63.9125 12.1146 64.3432 12.5679C64.7965 12.9986 65.0232 13.5199 65.0232 14.1319C65.0232 14.7439 64.7965 15.2766 64.3432 15.7299C63.9125 16.1606 63.3912 16.3759 62.7792 16.3759Z" fill="#042879"/>
<path d="M40.2531 37.9999C39.8905 37.9999 39.5505 37.8979 39.2331 37.6939C38.9385 37.4672 38.7345 37.1952 38.6211 36.8779L33.5891 21.7819C33.4078 21.0792 33.4078 20.5125 33.5891 20.0819C33.7931 19.6285 34.2238 19.4019 34.8811 19.4019C35.3118 19.4019 35.6631 19.5265 35.9351 19.7759C36.2298 20.0025 36.4678 20.3992 36.6491 20.9659L40.9331 34.3619H39.7431L43.7891 20.6939C43.9025 20.3085 44.0951 20.0025 44.3671 19.7759C44.6391 19.5265 45.0131 19.4019 45.4891 19.4019C45.9425 19.4019 46.3051 19.5265 46.5771 19.7759C46.8718 20.0025 47.0645 20.3085 47.1551 20.6939L50.4531 33.5459H49.9431L53.9551 20.9659C54.2725 19.9232 54.8618 19.4019 55.7231 19.4019C56.3578 19.4019 56.7885 19.6285 57.0151 20.0819C57.2418 20.5125 57.2305 21.0792 56.9811 21.7819L51.9491 36.8779C51.8585 37.1952 51.6658 37.4672 51.3711 37.6939C51.0765 37.8979 50.7365 37.9999 50.3511 37.9999C49.9885 37.9999 49.6485 37.8979 49.3311 37.6939C49.0138 37.4672 48.8098 37.1952 48.7191 36.8779L45.2171 23.9239H45.5571L41.8851 36.8779C41.7945 37.1952 41.5905 37.4672 41.2731 37.6939C40.9785 37.8979 40.6385 37.9999 40.2531 37.9999Z" fill="#042879"/>
<path d="M21.3325 38.3399C19.8818 38.3399 18.4991 38.1132 17.1845 37.6599C15.8698 37.2066 14.7251 36.5719 13.7505 35.7559C12.7758 34.9399 12.0618 33.9992 11.6085 32.9339C11.3818 32.4579 11.3818 32.0159 11.6085 31.6079C11.8578 31.1999 12.2658 30.9392 12.8325 30.8259C13.2405 30.7352 13.6371 30.8032 14.0225 31.0299C14.4305 31.2339 14.7365 31.5512 14.9405 31.9819C15.2125 32.5486 15.6545 33.0699 16.2665 33.5459C16.9011 34.0219 17.6605 34.4072 18.5445 34.7019C19.4285 34.9966 20.3578 35.1439 21.3325 35.1439C22.4205 35.1439 23.4178 34.9739 24.3245 34.6339C25.2538 34.2939 26.0018 33.8066 26.5685 33.1719C27.1351 32.5146 27.4185 31.7099 27.4185 30.7579C27.4185 29.5566 26.9425 28.4799 25.9905 27.5279C25.0611 26.5759 23.5198 25.9866 21.3665 25.7599C18.5558 25.4879 16.3458 24.6606 14.7365 23.2779C13.1271 21.8952 12.3225 20.1839 12.3225 18.1439C12.3225 16.6479 12.7418 15.3786 13.5805 14.3359C14.4191 13.2932 15.5525 12.4999 16.9805 11.9559C18.4311 11.4119 20.0405 11.1399 21.8085 11.1399C23.1911 11.1399 24.3925 11.3326 25.4125 11.7179C26.4551 12.1032 27.3618 12.6359 28.1325 13.3159C28.9031 13.9959 29.5718 14.8006 30.1385 15.7299C30.4558 16.2286 30.5805 16.7046 30.5125 17.1579C30.4671 17.5886 30.2518 17.9286 29.8665 18.1779C29.4358 18.4499 28.9711 18.5066 28.4725 18.3479C27.9738 18.1892 27.5998 17.8946 27.3505 17.4639C26.9878 16.8066 26.5458 16.2512 26.0245 15.7979C25.5031 15.3446 24.8911 14.9932 24.1885 14.7439C23.4858 14.4719 22.6585 14.3359 21.7065 14.3359C20.0291 14.3132 18.6238 14.6306 17.4905 15.2879C16.3571 15.9226 15.7905 16.9086 15.7905 18.2459C15.7905 18.9259 15.9605 19.5832 16.3005 20.2179C16.6631 20.8299 17.3091 21.3626 18.2385 21.8159C19.1905 22.2692 20.5505 22.5866 22.3185 22.7679C25.0158 23.0399 27.1125 23.8672 28.6085 25.2499C30.1271 26.6099 30.8865 28.4119 30.8865 30.6559C30.8865 31.9479 30.6145 33.0699 30.0705 34.0219C29.5491 34.9739 28.8351 35.7786 27.9285 36.4359C27.0445 37.0706 26.0245 37.5466 24.8685 37.8639C23.7351 38.1812 22.5565 38.3399 21.3325 38.3399Z" fill="#042879"/>
</svg>
