<svg width="14" height="8" viewBox="0 0 14 8" fill="none" xmlns="http://www.w3.org/2000/svg">
<path d="M6.9162 2.36865L12.1452 7.56067C12.3314 7.74533 12.583 7.84894 12.8452 7.84894C13.1074 7.84894 13.3591 7.74533 13.5452 7.56067C13.6369 7.46992 13.7096 7.36189 13.7593 7.24286C13.8089 7.12382 13.8345 6.99616 13.8345 6.86719C13.8345 6.73822 13.8089 6.61049 13.7593 6.49146C13.7096 6.37242 13.6369 6.2644 13.5452 6.17365L7.61725 0.288696C7.4312 0.103789 7.17954 8.56153e-08 6.91724 8.24873e-08C6.65493 7.93594e-08 6.40327 0.103789 6.21722 0.288696L0.289246 6.17365C0.197604 6.2644 0.124842 6.37242 0.0751953 6.49146C0.0255487 6.61049 1.32503e-08 6.73821 1.17124e-08 6.86719C1.01744e-08 6.99616 0.0255487 7.12382 0.0751953 7.24286C0.124842 7.36189 0.197604 7.46992 0.289246 7.56067C0.475291 7.74558 0.726953 7.84937 0.989258 7.84937C1.25156 7.84937 1.50316 7.74558 1.68921 7.56067L6.9162 2.36865Z" fill="#6930ca"/>
</svg>
