<svg width="49" height="49" viewBox="0 0 49 49" fill="none" xmlns="http://www.w3.org/2000/svg">
<g filter="url(#filter0_d_678_27256)">
<rect x="12" y="8" width="25" height="25" rx="8" fill="#FCFCFC" shape-rendering="crispEdges"/>
<path d="M24.4183 21.9807L19.1893 16.7887C19.0031 16.604 18.7515 16.5004 18.4893 16.5004C18.227 16.5004 17.9754 16.604 17.7892 16.7887C17.6976 16.8794 17.6248 16.9875 17.5752 17.1065C17.5255 17.2255 17.5 17.3532 17.5 17.4822C17.5 17.6111 17.5255 17.7389 17.5752 17.8579C17.6248 17.9769 17.6976 18.085 17.7892 18.1757L23.7172 24.0607C23.9033 24.2456 24.1549 24.3494 24.4172 24.3494C24.6795 24.3494 24.9312 24.2456 25.1172 24.0607L31.0452 18.1757C31.1369 18.085 31.2096 17.9769 31.2593 17.8579C31.3089 17.7389 31.3345 17.6112 31.3345 17.4822C31.3345 17.3532 31.3089 17.2255 31.2593 17.1065C31.2096 16.9875 31.1369 16.8794 31.0452 16.7887C30.8592 16.6038 30.6075 16.5 30.3452 16.5C30.0829 16.5 29.8313 16.6038 29.6453 16.7887L24.4183 21.9807Z" fill="#3C65AB"/>
</g>
<defs>
<filter id="filter0_d_678_27256" x="0" y="0" width="49" height="49" filterUnits="userSpaceOnUse" color-interpolation-filters="sRGB">
<feFlood flood-opacity="0" result="BackgroundImageFix"/>
<feColorMatrix in="SourceAlpha" type="matrix" values="0 0 0 0 0 0 0 0 0 0 0 0 0 0 0 0 0 0 127 0" result="hardAlpha"/>
<feOffset dy="4"/>
<feGaussianBlur stdDeviation="6"/>
<feComposite in2="hardAlpha" operator="out"/>
<feColorMatrix type="matrix" values="0 0 0 0 0 0 0 0 0 0 0 0 0 0 0 0 0 0 0.12 0"/>
<feBlend mode="normal" in2="BackgroundImageFix" result="effect1_dropShadow_678_27256"/>
<feBlend mode="normal" in="SourceGraphic" in2="effect1_dropShadow_678_27256" result="shape"/>
</filter>
</defs>
</svg>
