<svg width="233" height="59" viewBox="0 0 233 59" fill="none" xmlns="http://www.w3.org/2000/svg">
<path d="M10.9734 34C9.3637 34 7.80428 33.7516 6.29517 33.2548C4.80042 32.7581 3.49252 32.0484 2.37147 31.1258C1.25041 30.2032 0.459921 29.1032 0 27.8258L2.8242 26.7826C3.1404 27.6626 3.7153 28.4219 4.54891 29.0606C5.39688 29.6852 6.3814 30.1677 7.50246 30.5084C8.63789 30.849 9.79488 31.0194 10.9734 31.0194C12.3532 31.0194 13.6395 30.7923 14.8324 30.3381C16.0254 29.8839 16.9883 29.2523 17.7213 28.4432C18.4543 27.62 18.8208 26.6548 18.8208 25.5477C18.8208 24.4265 18.44 23.5039 17.6782 22.78C16.9165 22.0561 15.9319 21.4884 14.7247 21.0768C13.5317 20.651 12.2813 20.3245 10.9734 20.0974C8.91815 19.7426 7.07128 19.26 5.43282 18.6497C3.80872 18.0394 2.52238 17.1806 1.57379 16.0735C0.625205 14.9523 0.150912 13.4761 0.150912 11.6452C0.150912 9.92774 0.65395 8.43742 1.66003 7.17419C2.6661 5.91097 3.98838 4.93161 5.62685 4.23613C7.27969 3.54064 9.06188 3.1929 10.9734 3.1929C12.54 3.1929 14.0707 3.43419 15.5654 3.91677C17.0602 4.39935 18.3753 5.10194 19.5107 6.02451C20.6605 6.9471 21.4869 8.07548 21.99 9.40968L19.1227 10.4316C18.8065 9.53742 18.2244 8.77806 17.3764 8.15355C16.5428 7.51484 15.5654 7.03226 14.4444 6.70581C13.3233 6.36516 12.1663 6.19484 10.9734 6.19484C9.60804 6.18064 8.32888 6.40774 7.13596 6.87613C5.95741 7.33032 5.00164 7.96903 4.26864 8.79226C3.53564 9.60129 3.16914 10.5523 3.16914 11.6452C3.16914 12.9226 3.5069 13.909 4.18241 14.6045C4.87229 15.2858 5.8065 15.7968 6.98505 16.1374C8.1636 16.4781 9.49306 16.7832 10.9734 17.0529C12.8993 17.3794 14.6887 17.8903 16.3416 18.5858C17.9944 19.2671 19.3239 20.1826 20.3299 21.3323C21.336 22.4677 21.8391 23.8729 21.8391 25.5477C21.8391 27.251 21.336 28.7413 20.3299 30.0187C19.3239 31.2819 17.9944 32.2613 16.3416 32.9568C14.7031 33.6523 12.9137 34 10.9734 34Z" fill="#042879"/>
<path d="M35.4022 33.4465H32.2978L25.0756 12.1561H28.0291L33.8931 29.3161L39.714 12.1561H42.9047L48.7256 29.3161L54.5464 12.1561H57.5216L50.2994 33.4465H47.1733L41.2662 16.1161L35.4022 33.4465Z" fill="#042879"/>
<path d="M61.1074 12.1561H64.1256V33.4465H61.1074V12.1561ZM62.6381 8.43032C62.1494 8.43032 61.7326 8.27419 61.3877 7.96194C61.0571 7.63548 60.8918 7.23097 60.8918 6.74839C60.8918 6.26581 61.0571 5.86839 61.3877 5.55613C61.7326 5.22968 62.1494 5.06645 62.6381 5.06645C63.1124 5.06645 63.5148 5.22968 63.8454 5.55613C64.1903 5.86839 64.3628 6.26581 64.3628 6.74839C64.3628 7.23097 64.1975 7.63548 63.8669 7.96194C63.5363 8.27419 63.1267 8.43032 62.6381 8.43032Z" fill="#042879"/>
<path d="M73.7809 6.59936V12.1561H80.2486V15.1368H73.7809V33.4465H70.7627V15.1368H67.8091V12.1561H70.7627V6.59936C70.7627 5.56323 71.0142 4.62645 71.5172 3.78903C72.0347 2.93742 72.7245 2.26323 73.5869 1.76645C74.4492 1.25548 75.405 1 76.4542 1C77.216 1 77.949 1.14903 78.6532 1.4471C79.3718 1.74516 80.0114 2.18516 80.5719 2.7671L78.4161 4.87484C78.1861 4.59097 77.8915 4.37097 77.5321 4.21484C77.1872 4.05871 76.8279 3.98064 76.4542 3.98064C75.7212 3.98064 75.0888 4.23613 74.557 4.7471C74.0396 5.25806 73.7809 5.87548 73.7809 6.59936Z" fill="#042879"/>
<path d="M95.4512 15.1368H90.2987L90.2771 33.4465H87.2589L87.2804 15.1368H83.3783V12.1561H87.2804L87.2589 5.47097H90.2771L90.2987 12.1561H95.4512V15.1368Z" fill="#042879"/>
<path d="M113.269 34C111.228 34 109.309 33.6026 107.512 32.8077C105.716 31.9987 104.135 30.8916 102.769 29.4865C101.418 28.0671 100.355 26.4206 99.5787 24.5471C98.817 22.6735 98.4361 20.6723 98.4361 18.5432C98.4361 16.4142 98.817 14.4129 99.5787 12.5394C100.355 10.6658 101.418 9.02645 102.769 7.62129C104.135 6.20193 105.716 5.09484 107.512 4.3C109.309 3.49097 111.228 3.08645 113.269 3.08645C115.712 3.08645 117.961 3.6471 120.016 4.76839C122.072 5.88968 123.775 7.38 125.126 9.23935L122.453 10.6658C121.389 9.26065 120.038 8.14645 118.4 7.32322C116.775 6.48581 115.065 6.0671 113.269 6.0671C111.616 6.0671 110.071 6.40065 108.633 7.06774C107.211 7.72064 105.96 8.62193 104.882 9.77161C103.804 10.9213 102.963 12.2484 102.36 13.7529C101.756 15.2574 101.454 16.8542 101.454 18.5432C101.454 20.2606 101.756 21.8716 102.36 23.3761C102.978 24.8806 103.826 26.2077 104.904 27.3574C105.996 28.5071 107.254 29.4084 108.677 30.0613C110.114 30.7 111.644 31.0194 113.269 31.0194C115.137 31.0194 116.869 30.6006 118.464 29.7632C120.074 28.9116 121.403 27.8045 122.453 26.4419L125.126 27.8684C123.775 29.7277 122.072 31.2181 120.016 32.3394C117.961 33.4465 115.712 34 113.269 34Z" fill="#042879"/>
<path d="M137.838 34C135.855 34 134.044 33.4961 132.405 32.4884C130.781 31.4806 129.481 30.1323 128.503 28.4432C127.54 26.74 127.059 24.8594 127.059 22.8013C127.059 21.24 127.339 19.7852 127.9 18.4368C128.46 17.0742 129.229 15.8819 130.206 14.86C131.198 13.8239 132.348 13.0148 133.656 12.4329C134.964 11.851 136.358 11.56 137.838 11.56C139.822 11.56 141.625 12.0639 143.249 13.0716C144.888 14.0794 146.189 15.4348 147.152 17.1381C148.129 18.8413 148.618 20.729 148.618 22.8013C148.618 24.3484 148.337 25.7961 147.777 27.1445C147.216 28.4929 146.44 29.6852 145.448 30.7213C144.471 31.7432 143.328 32.5452 142.021 33.1271C140.727 33.709 139.333 34 137.838 34ZM137.838 31.0194C139.304 31.0194 140.619 30.6432 141.783 29.891C142.962 29.1245 143.889 28.1168 144.565 26.8677C145.254 25.6187 145.599 24.2632 145.599 22.8013C145.599 21.311 145.254 19.9413 144.565 18.6923C143.875 17.429 142.94 16.4213 141.762 15.669C140.598 14.9168 139.29 14.5406 137.838 14.5406C136.372 14.5406 135.05 14.9239 133.871 15.6903C132.707 16.4426 131.78 17.4432 131.09 18.6923C130.415 19.9413 130.077 21.311 130.077 22.8013C130.077 24.3342 130.429 25.7252 131.133 26.9742C131.838 28.209 132.779 29.1955 133.958 29.9335C135.136 30.6574 136.43 31.0194 137.838 31.0194Z" fill="#042879"/>
<path d="M152.269 33.4465V12.1561H155.287V15.0942C156.049 14.0155 157.041 13.1568 158.262 12.5181C159.484 11.8794 160.814 11.56 162.251 11.56C163.084 11.56 163.889 11.6665 164.665 11.8794L163.437 14.8387C162.833 14.6542 162.244 14.5619 161.669 14.5619C160.505 14.5619 159.434 14.8458 158.456 15.4135C157.493 15.9813 156.725 16.7406 156.15 17.6916C155.575 18.6426 155.287 19.7 155.287 20.8639V33.4465H152.269Z" fill="#042879"/>
<path d="M175.734 34C173.751 34 171.94 33.4961 170.302 32.4884C168.678 31.4806 167.377 30.1323 166.4 28.4432C165.437 26.74 164.955 24.8594 164.955 22.8013C164.955 21.24 165.235 19.7852 165.796 18.4368C166.356 17.0742 167.125 15.8819 168.103 14.86C169.094 13.8239 170.244 13.0148 171.552 12.4329C172.86 11.851 174.254 11.56 175.734 11.56C177.33 11.56 178.796 11.8723 180.132 12.4968C181.483 13.1213 182.64 13.9942 183.603 15.1155C184.581 16.2368 185.314 17.5497 185.802 19.0542C186.305 20.5587 186.514 22.1839 186.428 23.9297H168.146C168.318 25.2781 168.749 26.4845 169.439 27.549C170.144 28.6135 171.035 29.4581 172.113 30.0826C173.205 30.6929 174.412 31.0052 175.734 31.0194C177.172 31.0194 178.465 30.6503 179.615 29.9123C180.779 29.1742 181.713 28.1594 182.418 26.8677L185.479 27.5703C184.617 29.4581 183.316 31.0052 181.577 32.2116C179.838 33.4039 177.89 34 175.734 34ZM168.06 21.5239H183.388C183.287 20.2039 182.878 18.9974 182.159 17.9045C181.455 16.7974 180.542 15.9174 179.421 15.2645C178.3 14.5974 177.071 14.2639 175.734 14.2639C174.398 14.2639 173.176 14.5903 172.069 15.2432C170.963 15.8819 170.057 16.7548 169.353 17.8619C168.649 18.9548 168.218 20.1755 168.06 21.5239Z" fill="#042879"/>
<path d="M190.334 33.4465V15.8606L194.502 12.2626L190.334 8.66452V3.64H201.458C203.111 3.64 204.599 4.05161 205.921 4.87484C207.257 5.69806 208.321 6.79806 209.112 8.17484C209.902 9.53742 210.297 11.0419 210.297 12.6884C210.297 14.3632 209.895 15.889 209.09 17.2658C208.285 18.6284 207.207 19.7142 205.856 20.5232C204.519 21.3323 203.053 21.7368 201.458 21.7368H196.284V33.4465H190.334ZM196.284 15.8606H200.79C201.451 15.8606 202.047 15.7045 202.579 15.3923C203.111 15.0658 203.535 14.6329 203.851 14.0935C204.182 13.54 204.347 12.9297 204.347 12.2626C204.347 11.6097 204.182 11.0135 203.851 10.4742C203.535 9.92065 203.111 9.48065 202.579 9.15419C202.047 8.82774 201.451 8.66452 200.79 8.66452H196.284L200.453 12.2626L196.284 15.8606Z" fill="#ED3237"/>
<path d="M222.221 34C220.237 34 218.426 33.4961 216.788 32.4884C215.164 31.4806 213.863 30.1252 212.886 28.4219C211.923 26.7187 211.441 24.8381 211.441 22.78C211.441 21.2329 211.721 19.7852 212.282 18.4368C212.843 17.0742 213.611 15.8819 214.589 14.86C215.581 13.8239 216.73 13.0148 218.038 12.4329C219.346 11.851 220.74 11.56 222.221 11.56C223.931 11.56 225.49 11.9219 226.899 12.6458C228.322 13.3697 229.522 14.3561 230.499 15.6052C231.491 16.8542 232.195 18.2665 232.612 19.8419C233.043 21.4174 233.115 23.0568 232.828 24.76H217.866C218.053 25.3845 218.34 25.9523 218.728 26.4632C219.131 26.96 219.619 27.3574 220.194 27.6555C220.783 27.9535 221.459 28.1097 222.221 28.1239C222.968 28.1381 223.658 27.9677 224.29 27.6129C224.923 27.2581 225.462 26.7826 225.907 26.1865L231.987 27.5703C231.11 29.4581 229.802 31.0052 228.063 32.2116C226.324 33.4039 224.376 34 222.221 34ZM217.65 20.4168H226.813C226.626 19.7071 226.31 19.0684 225.864 18.5006C225.419 17.9329 224.88 17.4858 224.247 17.1594C223.629 16.8329 222.954 16.6697 222.221 16.6697C221.502 16.6697 220.826 16.8329 220.194 17.1594C219.576 17.4858 219.044 17.9329 218.599 18.5006C218.168 19.0542 217.851 19.6929 217.65 20.4168Z" fill="#ED3237"/>
<path d="M192 0L186 5V0L192 0Z" fill="#ED3237"/>
<rect x="46" y="41" width="140" height="18" fill="#ED3237"/>
<path d="M57.0692 53.4174L55 46.1352H56.4565L57.8668 51.1131L59.2771 46.1352H60.566L61.9763 51.1131L63.3808 46.1352H64.8374L62.7797 53.4174H61.1787L59.9187 49.0065L58.676 53.4174H57.0692Z" fill="white"/>
<path d="M66.9803 53.4174V46.1352H68.3906V53.4174H66.9803Z" fill="white"/>
<path d="M77.0079 46.1352V47.4044H74.5341V53.4174H73.1238V47.4044H70.65V46.1352H77.0079Z" fill="white"/>
<path d="M83.85 46.1352H85.2602V53.4174H83.85V50.1508H80.4976V53.4174H79.0873V46.1352H80.4976V48.8817H83.85V46.1352Z" fill="white"/>
<path d="M96.2366 46.1352H97.9012L95.1211 50.1352V53.4174H93.7108V50.1352L90.9307 46.1352H92.5953L94.416 48.7516L96.2366 46.1352Z" fill="white"/>
<path d="M103.015 53.5527C102.468 53.5527 101.953 53.4556 101.471 53.2614C100.99 53.0637 100.566 52.7915 100.2 52.4447C99.8338 52.098 99.5468 51.6974 99.3387 51.2432C99.1306 50.7854 99.0266 50.2965 99.0266 49.7763C99.0266 49.2562 99.1306 48.769 99.3387 48.3147C99.5468 47.857 99.8338 47.4547 100.2 47.1079C100.566 46.7612 100.99 46.4907 101.471 46.2965C101.953 46.0988 102.468 46 103.015 46C103.566 46 104.082 46.0988 104.564 46.2965C105.045 46.4907 105.469 46.7612 105.835 47.1079C106.201 47.4547 106.486 47.857 106.691 48.3147C106.899 48.769 107.003 49.2562 107.003 49.7763C107.003 50.2965 106.899 50.7854 106.691 51.2432C106.486 51.6974 106.201 52.098 105.835 52.4447C105.469 52.7915 105.045 53.0637 104.564 53.2614C104.082 53.4556 103.566 53.5527 103.015 53.5527ZM103.015 52.2835C103.369 52.2835 103.703 52.2176 104.015 52.0858C104.327 51.9541 104.6 51.7737 104.835 51.5449C105.074 51.3125 105.259 51.0455 105.39 50.7438C105.525 50.4421 105.593 50.1196 105.593 49.7763C105.593 49.433 105.525 49.1105 105.39 48.8088C105.255 48.5037 105.068 48.2367 104.83 48.0078C104.595 47.7789 104.321 47.5986 104.009 47.4668C103.701 47.3351 103.369 47.2692 103.015 47.2692C102.66 47.2692 102.327 47.3351 102.015 47.4668C101.703 47.5986 101.427 47.7807 101.188 48.013C100.953 48.2419 100.768 48.5072 100.633 48.8088C100.502 49.1105 100.437 49.433 100.437 49.7763C100.437 50.1231 100.504 50.4473 100.639 50.749C100.774 51.0507 100.959 51.3177 101.194 51.5501C101.433 51.7789 101.707 51.9593 102.015 52.091C102.327 52.2193 102.66 52.2835 103.015 52.2835Z" fill="white"/>
<path d="M112.23 53.5527C111.583 53.5527 111.015 53.4105 110.525 53.1261C110.04 52.8418 109.662 52.4603 109.392 51.9818C109.123 51.4998 108.988 50.9658 108.988 50.3797V46.1352H110.398V50.3797C110.398 50.7265 110.469 51.0455 110.612 51.3368C110.758 51.6246 110.967 51.8552 111.236 52.0286C111.51 52.1985 111.841 52.2835 112.23 52.2835C112.623 52.2835 112.955 52.1985 113.225 52.0286C113.494 51.8552 113.698 51.6246 113.837 51.3368C113.98 51.0455 114.051 50.7265 114.051 50.3797V46.1352H115.461V50.3797C115.461 50.8201 115.384 51.2328 115.23 51.6177C115.076 51.9991 114.856 52.3355 114.571 52.6268C114.286 52.9181 113.945 53.1452 113.548 53.3082C113.155 53.4712 112.716 53.5527 112.23 53.5527Z" fill="white"/>
<path d="M117.245 54L117.603 52.2419H119.014L118.187 54H117.245Z" fill="white"/>
<path d="M125.027 53.4174V46.1352H129.807V47.4044H126.437V48.8817H129.252V50.1508H126.437V53.4174H125.027Z" fill="white"/>
<path d="M135.217 53.5527C134.67 53.5527 134.156 53.4556 133.674 53.2614C133.192 53.0637 132.769 52.7915 132.402 52.4447C132.036 52.098 131.749 51.6974 131.541 51.2432C131.333 50.7854 131.229 50.2965 131.229 49.7763C131.229 49.2562 131.333 48.769 131.541 48.3147C131.749 47.857 132.036 47.4547 132.402 47.1079C132.769 46.7612 133.192 46.4907 133.674 46.2965C134.156 46.0988 134.67 46 135.217 46C135.768 46 136.285 46.0988 136.766 46.2965C137.248 46.4907 137.672 46.7612 138.038 47.1079C138.404 47.4547 138.689 47.857 138.893 48.3147C139.101 48.769 139.205 49.2562 139.205 49.7763C139.205 50.2965 139.101 50.7854 138.893 51.2432C138.689 51.6974 138.404 52.098 138.038 52.4447C137.672 52.7915 137.248 53.0637 136.766 53.2614C136.285 53.4556 135.768 53.5527 135.217 53.5527ZM135.217 52.2835C135.572 52.2835 135.905 52.2176 136.217 52.0858C136.529 51.9541 136.803 51.7737 137.038 51.5449C137.277 51.3125 137.462 51.0455 137.593 50.7438C137.728 50.4421 137.795 50.1196 137.795 49.7763C137.795 49.433 137.728 49.1105 137.593 48.8088C137.458 48.5037 137.271 48.2367 137.032 48.0078C136.797 47.7789 136.524 47.5986 136.211 47.4668C135.903 47.3351 135.572 47.2692 135.217 47.2692C134.863 47.2692 134.529 47.3351 134.217 47.4668C133.905 47.5986 133.63 47.7807 133.391 48.013C133.156 48.2419 132.971 48.5072 132.836 48.8088C132.705 49.1105 132.639 49.433 132.639 49.7763C132.639 50.1231 132.707 50.4473 132.842 50.749C132.977 51.0507 133.162 51.3177 133.397 51.5501C133.636 51.7789 133.909 51.9593 134.217 52.091C134.529 52.2193 134.863 52.2835 135.217 52.2835Z" fill="white"/>
<path d="M141.179 53.4174V46.1352H144.283C144.722 46.1352 145.119 46.2341 145.474 46.4317C145.828 46.6294 146.109 46.8947 146.317 47.2276C146.526 47.557 146.63 47.9228 146.63 48.3251C146.63 48.6545 146.562 48.958 146.427 49.2354C146.296 49.5093 146.111 49.7469 145.872 49.948C145.637 50.1491 145.366 50.3017 145.057 50.4057L146.994 53.4174H145.37L143.497 50.5202H142.589V53.4174H141.179ZM142.589 49.251H144.121C144.321 49.251 144.504 49.2059 144.67 49.1157C144.836 49.0256 144.969 48.9042 145.069 48.7516C145.169 48.599 145.219 48.4291 145.219 48.2419C145.219 48.0511 145.169 47.8795 145.069 47.7269C144.969 47.5743 144.836 47.453 144.67 47.3628C144.504 47.2726 144.321 47.2276 144.121 47.2276H142.589V49.251Z" fill="white"/>
<path d="M157.775 46.1352H159.44L156.66 50.1352V53.4174H155.249V50.1352L152.469 46.1352H154.134L155.955 48.7516L157.775 46.1352Z" fill="white"/>
<path d="M164.553 53.5527C164.006 53.5527 163.492 53.4556 163.01 53.2614C162.528 53.0637 162.105 52.7915 161.739 52.4447C161.373 52.098 161.085 51.6974 160.877 51.2432C160.669 50.7854 160.565 50.2965 160.565 49.7763C160.565 49.2562 160.669 48.769 160.877 48.3147C161.085 47.857 161.373 47.4547 161.739 47.1079C162.105 46.7612 162.528 46.4907 163.01 46.2965C163.492 46.0988 164.006 46 164.553 46C165.104 46 165.621 46.0988 166.102 46.2965C166.584 46.4907 167.008 46.7612 167.374 47.1079C167.74 47.4547 168.025 47.857 168.229 48.3147C168.437 48.769 168.541 49.2562 168.541 49.7763C168.541 50.2965 168.437 50.7854 168.229 51.2432C168.025 51.6974 167.74 52.098 167.374 52.4447C167.008 52.7915 166.584 53.0637 166.102 53.2614C165.621 53.4556 165.104 53.5527 164.553 53.5527ZM164.553 52.2835C164.908 52.2835 165.241 52.2176 165.553 52.0858C165.865 51.9541 166.139 51.7737 166.374 51.5449C166.613 51.3125 166.798 51.0455 166.929 50.7438C167.064 50.4421 167.131 50.1196 167.131 49.7763C167.131 49.433 167.064 49.1105 166.929 48.8088C166.794 48.5037 166.607 48.2367 166.368 48.0078C166.133 47.7789 165.86 47.5986 165.548 47.4668C165.239 47.3351 164.908 47.2692 164.553 47.2692C164.199 47.2692 163.866 47.3351 163.553 47.4668C163.241 47.5986 162.966 47.7807 162.727 48.013C162.492 48.2419 162.307 48.5072 162.172 48.8088C162.041 49.1105 161.976 49.433 161.976 49.7763C161.976 50.1231 162.043 50.4473 162.178 50.749C162.313 51.0507 162.498 51.3177 162.733 51.5501C162.972 51.7789 163.245 51.9593 163.553 52.091C163.866 52.2193 164.199 52.2835 164.553 52.2835Z" fill="white"/>
<path d="M173.769 53.5527C173.122 53.5527 172.553 53.4105 172.064 53.1261C171.578 52.8418 171.201 52.4603 170.931 51.9818C170.661 51.4998 170.527 50.9658 170.527 50.3797V46.1352H171.937V50.3797C171.937 50.7265 172.008 51.0455 172.151 51.3368C172.297 51.6246 172.505 51.8552 172.775 52.0286C173.048 52.1985 173.38 52.2835 173.769 52.2835C174.162 52.2835 174.493 52.1985 174.763 52.0286C175.033 51.8552 175.237 51.6246 175.376 51.3368C175.518 51.0455 175.59 50.7265 175.59 50.3797V46.1352H177V50.3797C177 50.8201 176.923 51.2328 176.769 51.6177C176.615 51.9991 176.395 52.3355 176.11 52.6268C175.825 52.9181 175.484 53.1452 175.087 53.3082C174.694 53.4712 174.255 53.5527 173.769 53.5527Z" fill="white"/>
</svg>
