<svg
                          xmlns="http://www.w3.org/2000/svg"
                          width="37"
                          height="37"
                          viewBox="0 0 37 37"
                          fill="none"
                        >
                          <g clip-path="url(#clip0_1134_1914)">
                            <path
                              d="M34.3489 12.9553H32.072C31.3648 12.9553 30.8388 13.1478 30.528 13.8527L26.1523 23.7622H29.2471C29.2471 23.7622 29.7519 22.4298 29.8663 22.1379C30.2051 22.1379 33.2119 22.1425 33.6402 22.1425C33.7281 22.5199 33.9994 23.7622 33.9994 23.7622H36.7334L34.3489 12.9553ZM30.7145 19.9247C30.957 19.3039 31.8885 16.9027 31.8885 16.9027C31.8726 16.9323 32.1288 16.2774 32.2812 15.8704L32.4797 16.8027C32.4797 16.8027 33.0444 19.3843 33.1627 19.9247H30.7145Z"
                              fill="white"
                            />
                            <path
                              d="M23.916 15.016C24.8802 15.0009 25.579 15.2116 26.1217 15.4299L26.3877 15.5549L26.7864 13.2113C26.2028 12.9923 25.2879 12.7573 24.1465 12.7573C21.2344 12.7573 19.1819 14.224 19.1659 16.3258C19.147 17.8788 20.628 18.7459 21.7468 19.2636C22.8951 19.7942 23.2801 20.1315 23.2748 20.6052C23.2657 21.329 22.3592 21.661 21.5126 21.661C20.3324 21.661 19.7056 21.4981 18.7377 21.0948L18.358 20.922L17.9434 23.3422C18.6331 23.6446 19.9057 23.9046 21.2268 23.9182C24.3246 23.9182 26.3377 22.469 26.3589 20.2232C26.3718 18.9945 25.5858 18.0569 23.8827 17.2876C22.8519 16.7859 22.2213 16.4524 22.2273 15.946C22.2273 15.4966 22.7624 15.016 23.916 15.016Z"
                              fill="white"
                            />
                            <path
                              d="M14.993 12.9436L13.1504 23.7566H16.0973L17.9414 12.9436H14.993Z"
                              fill="white"
                            />
                            <path
                              d="M6.36738 13.7295C6.19609 13.0709 5.69963 12.8746 5.08341 12.8511H0.51446L0.476562 13.0663C4.03213 13.9289 6.38482 16.0072 7.36106 18.5062L6.36738 13.7295Z"
                              fill="white"
                            />
                            <path
                              d="M10.6826 12.9556L7.79632 20.3298L7.48859 19.2163C6.91937 17.8748 5.30341 15.948 3.40625 14.7338L6.04545 23.7512L9.16367 23.7459L13.8046 12.9534L10.6826 12.9556Z"
                              fill="white"
                            />
                          </g>
                          <defs>
                            <clipPath id="clip0_1134_1914">
                              <rect
                                width="36.256"
                                height="36.256"
                                fill="white"
                                transform="translate(0.478516 0.210327)"
                              />
                            </clipPath>
                          </defs>
                        </svg>