<svg
                          xmlns="http://www.w3.org/2000/svg"
                          width="24"
                          height="37"
                          viewBox="0 0 24 37"
                          fill="none"
                        >
                          <path
                            d="M14.2193 35.9448C13.8045 35.53 13.8045 34.8575 14.2193 34.4427C23.2153 25.4467 23.2153 10.8092 14.2193 1.81326C13.8045 1.39844 13.8045 0.725934 14.2193 0.311115C14.6341 -0.103705 15.3066 -0.103705 15.7215 0.311115C18.1264 2.71605 19.9886 5.52065 21.2564 8.64695C22.4807 11.666 23.1015 14.8559 23.1015 18.128C23.1015 21.4001 22.4807 24.59 21.2564 27.6091C19.9886 30.7354 18.1264 33.54 15.7215 35.9449C15.3067 36.3596 14.6341 36.3596 14.2193 35.9448Z"
                            fill="white"
                          />
                          <path
                            d="M9.66854 31.394C9.25372 30.9791 9.25372 30.3066 9.66854 29.8918C16.1551 23.4053 16.1551 12.8507 9.66854 6.36416C9.25372 5.94934 9.25372 5.27684 9.66854 4.86202C10.0834 4.4472 10.7559 4.4472 11.1707 4.86202C14.7141 8.40547 16.6656 13.1168 16.6657 18.128C16.6657 23.1393 14.7141 27.8506 11.1707 31.394C10.7559 31.8087 10.0834 31.8087 9.66854 31.394Z"
                            fill="white"
                          />
                          <path
                            d="M5.11776 26.8434C4.70294 26.4286 4.70294 25.756 5.11776 25.3412C9.09501 21.364 9.09501 14.8926 5.11776 10.9153C4.70294 10.5005 4.70294 9.82798 5.11776 9.41317C5.53257 8.99835 6.20508 8.99835 6.6199 9.41317C11.4254 14.2187 11.4254 22.0378 6.6199 26.8434C6.20515 27.2582 5.53257 27.2582 5.11776 26.8434Z"
                            fill="white"
                          />
                          <path
                            d="M0.566974 22.292C0.152155 21.8772 0.152155 21.2047 0.566974 20.7898C2.03485 19.322 2.03485 16.9335 0.566974 15.4657C0.152155 15.0508 0.152155 14.3783 0.566974 13.9635C0.981793 13.5487 1.6543 13.5487 2.06912 13.9635C4.36528 16.2597 4.36528 19.9958 2.06912 22.292C1.65437 22.7068 0.981793 22.7068 0.566974 22.292Z"
                            fill="white"
                          />
                        </svg>