<svg
                          xmlns="http://www.w3.org/2000/svg"
                          width="37"
                          height="29"
                          viewBox="0 0 37 29"
                          fill="none"
                        >
                          <path
                            d="M33.8984 28.2488H2.3505C1.05488 28.2488 0 27.1938 0 25.8912V2.3577C0 1.06208 1.05488 0.00720215 2.3505 0.00720215H33.8913C35.194 0.00720215 36.2489 1.06208 36.2489 2.3577V25.8912C36.2489 27.1938 35.194 28.2488 33.8984 28.2488Z"
                            fill="#FFC738"
                          />
                          <path
                            d="M33.899 0.00720215H18.125V28.2488H33.8989C35.2016 28.2488 36.2494 27.1939 36.2494 25.8983V2.35776C36.2495 1.06214 35.1946 0.00720215 33.899 0.00720215Z"
                            fill="#FFB42E"
                          />
                          <path
                            d="M36.2489 14.613V13.6431H23.583V9.35979L26.8539 6.08888H36.2489C36.2489 5.75612 36.2135 5.43043 36.1569 5.11895H26.6486C26.5212 5.11895 26.3937 5.1756 26.3088 5.26762L22.8963 8.67305H18.613V0.00720215H17.6431V8.66586H13.4093L10.0039 5.26042C9.91183 5.16841 9.78439 5.11176 9.65694 5.11176H0.0990916C0.0424424 5.43037 0.00707373 5.756 0.00707373 6.08169H9.4587L12.6659 9.28888V13.6288H0V14.5988H12.6659V18.9387L9.4587 22.1671H0.00707373C0.00707373 22.4999 0.0425018 22.8256 0.0990916 23.137H9.66402C9.79146 23.137 9.91891 23.0804 10.0109 22.9884L13.4164 19.5829H17.6501V28.2416H18.6201V19.583H22.9034L26.3159 22.9885C26.4008 23.0805 26.5283 23.1372 26.6557 23.1372H36.164C36.2206 22.8185 36.256 22.4929 36.256 22.1672H26.8469L23.576 18.8963V14.613H36.2489ZM22.6131 18.6131H13.6358V9.63585H22.606V18.6131H22.6131Z"
                            fill="#C66D4E"
                          />
                          <path
                            d="M36.2494 14.613V13.6431H23.5835V9.35979L26.8545 6.08888H36.2494C36.2494 5.75612 36.214 5.43043 36.1574 5.11895H26.6491C26.5217 5.11895 26.3942 5.1756 26.3093 5.26762L22.8968 8.67305H18.6135V0.00720215H18.125V9.63579H22.6137V18.6131H18.125V28.2417H18.6135V19.583H22.8968L26.3093 22.9885C26.3942 23.0805 26.5217 23.1372 26.6491 23.1372H36.1574C36.2141 22.8185 36.2494 22.5 36.2494 22.1672H26.8474L23.5765 18.8963V14.613H36.2494Z"
                            fill="#AF5A35"
                          />
                        </svg>