<svg width="500" height="500" viewBox="0 0 500 500" fill="none" xmlns="http://www.w3.org/2000/svg">
<path d="M243 482.04C356.135 482.04 447.85 434.672 447.85 376.24C447.85 317.809 356.135 270.44 243 270.44C129.864 270.44 38.1499 317.809 38.1499 376.24C38.1499 434.672 129.864 482.04 243 482.04Z" fill="#F5F5F5"/>
<rect x="38.5" y="229.5" width="211" height="100" stroke="white"/>
<path d="M328.91 425.22C366.708 425.22 397.35 407.531 397.35 385.71C397.35 363.889 366.708 346.2 328.91 346.2C291.112 346.2 260.47 363.889 260.47 385.71C260.47 407.531 291.112 425.22 328.91 425.22Z" fill="#E6E6E6"/>
<path d="M74.1201 361.07C75.3001 347.86 75.9801 335.63 70.6901 316.31C66.2501 300.1 53.0001 283.08 43.1601 283C34.0101 282.94 31.1601 294 38.5801 304.55C46.0001 315.1 62.4201 335.55 62.4801 349.34L64.7901 365.2L74.1201 361.07Z" fill="#D0E8FB"/>
<path d="M70.33 357.42C70.2097 357.379 70.1054 357.3 70.0319 357.196C69.9584 357.092 69.9193 356.968 69.92 356.84C70.83 326 55.59 299 41.85 290C41.7851 289.959 41.7292 289.905 41.6854 289.841C41.6417 289.778 41.611 289.706 41.5951 289.631C41.5793 289.556 41.5787 289.478 41.5932 289.402C41.6078 289.326 41.6373 289.254 41.68 289.19C41.7206 289.124 41.7742 289.067 41.8376 289.023C41.9009 288.978 41.9727 288.947 42.0485 288.931C42.1243 288.915 42.2025 288.915 42.2784 288.93C42.3544 288.946 42.4264 288.976 42.49 289.02C56.49 298.14 72.02 325.54 71.1 356.85C71.0975 356.928 71.0796 357.004 71.0476 357.075C71.0155 357.145 70.9698 357.209 70.9132 357.262C70.8565 357.315 70.79 357.356 70.7174 357.383C70.6448 357.41 70.5675 357.423 70.49 357.42H70.33Z" fill="white"/>
<path d="M61.2801 366.851C61.0801 362.171 57.4501 353.651 50.2101 345.601C42.2101 336.701 30.8001 330.761 29.2101 324.941C27.3301 317.941 33.6201 314.781 43.4101 317.661C55.1701 321.121 67.4101 335.81 67.4901 363.93L61.2801 366.851Z" fill="#D0E8FB"/>
<path d="M64.2902 362.701C64.1819 362.669 64.0858 362.605 64.0144 362.517C63.943 362.43 63.8998 362.323 63.8902 362.211C61.1702 337.441 45.6702 325.271 37.8902 322.301C37.7462 322.242 37.6304 322.131 37.567 321.989C37.5036 321.847 37.4976 321.687 37.5502 321.541C37.5768 321.468 37.6178 321.401 37.6707 321.344C37.7236 321.287 37.7874 321.241 37.8583 321.21C37.9292 321.178 38.0057 321.161 38.0833 321.159C38.161 321.158 38.2381 321.172 38.3102 321.201C46.9502 324.491 62.3102 336.801 65.0902 362.081C65.1071 362.236 65.0618 362.391 64.9644 362.513C64.8669 362.635 64.7252 362.713 64.5702 362.731C64.476 362.748 64.3788 362.737 64.2902 362.701Z" fill="white"/>
<path d="M374.53 379.94C373.35 366.73 372.67 354.5 377.96 335.18C382.4 318.97 395.66 301.95 405.49 301.88C414.64 301.82 417.49 312.88 410.07 323.43C402.65 333.98 386.24 354.43 386.17 368.22L383.87 384.08L374.53 379.94Z" fill="#D0E8FB"/>
<path d="M377.69 377.52C377.813 377.483 377.92 377.406 377.994 377.301C378.069 377.196 378.106 377.069 378.1 376.941C377.19 346.051 393.1 317.861 406.8 308.891C406.933 308.806 407.026 308.672 407.06 308.518C407.094 308.364 407.065 308.203 406.98 308.071C406.895 307.938 406.761 307.844 406.607 307.811C406.454 307.777 406.293 307.806 406.16 307.891C392.19 317.001 376 345.661 376.93 377.001C376.931 377.078 376.948 377.154 376.979 377.224C377.01 377.295 377.055 377.358 377.111 377.411C377.166 377.464 377.232 377.506 377.304 377.533C377.376 377.56 377.453 377.573 377.53 377.571L377.69 377.52Z" fill="white"/>
<path d="M387.37 385.73C387.57 381.04 391.2 372.52 398.44 364.47C406.44 355.57 417.85 349.63 419.44 343.82C421.33 336.82 415.03 333.65 405.25 336.53C393.48 340 381.25 354.69 381.16 382.81L387.37 385.73Z" fill="#D0E8FB"/>
<path d="M384.36 381.58C384.469 381.547 384.566 381.481 384.637 381.392C384.708 381.303 384.751 381.194 384.76 381.08C387.48 356.31 402.98 344.15 410.76 341.17C410.832 341.144 410.898 341.103 410.954 341.051C411.01 340.999 411.055 340.936 411.086 340.866C411.118 340.797 411.135 340.721 411.138 340.645C411.14 340.568 411.127 340.492 411.1 340.42C411.073 340.347 411.032 340.281 410.98 340.224C410.927 340.167 410.863 340.121 410.792 340.09C410.721 340.058 410.645 340.041 410.567 340.039C410.489 340.038 410.412 340.052 410.34 340.08C401.7 343.36 386.34 355.67 383.56 380.96C383.552 381.037 383.559 381.114 383.58 381.187C383.602 381.261 383.638 381.329 383.687 381.389C383.735 381.448 383.795 381.498 383.862 381.534C383.93 381.57 384.004 381.593 384.08 381.6C384.174 381.615 384.269 381.608 384.36 381.58Z" fill="white"/>
<path d="M303.24 362.22C303.15 354.04 300.12 302.08 299.04 290.13C297.21 270.05 297.41 215.8 301.45 198.52L355.45 202.8C359.31 212.52 362.13 224.5 361.45 243.27C360.95 257.59 361.18 296.44 361.18 296.44C363.367 302.523 365.18 308.735 366.61 315.04C369.03 325.54 371.47 357.35 372.54 367.79V369.19C373.045 369.817 373.389 370.558 373.54 371.35C373.54 372.18 373.43 373.02 373.46 373.85C373.638 375.805 373.137 377.761 372.04 379.39C371.273 380.616 370.21 381.63 368.95 382.34C368.319 382.691 367.622 382.904 366.902 382.964C366.183 383.024 365.46 382.931 364.78 382.69C360.94 381.18 361.5 375.04 360.22 371.84L359.62 370.29C359.62 370.29 342.92 319.57 338.87 307.02C335.45 296.45 330.87 262.08 327.24 243.02L320.84 288.45C322.426 293.186 323.584 298.056 324.3 303C325.8 317 320.43 343.92 318.61 355.66C318.345 357.376 318.255 359.115 318.34 360.85C318.34 361.35 319.84 366.19 313.65 366.67C307.46 367.15 303.25 362.94 303.24 362.22Z" fill="#FFA8A7"/>
<path d="M349.55 186.499C349.55 186.499 356.41 199.499 359.42 212.119C362.43 224.739 362.28 233.039 362.16 255.049C362.04 277.059 361.72 296.179 361.72 296.179C363.136 298.397 364.255 300.791 365.05 303.299C366.92 309.109 368.57 315.569 369.33 332.549C369.33 332.549 360.09 339.989 348.66 337.039C348.66 337.039 340.34 313.479 337.89 305.919C334.72 296.139 327.26 243.059 327.26 243.059L322.08 288.569C322.08 288.569 325.99 299.449 325.48 307.139C324.97 314.829 323.25 326.999 323.25 326.999C323.25 326.999 312.34 330.679 301.25 325.549C301.25 325.549 298.25 289.719 297.75 276.749C297.25 263.779 295.69 217.999 302.05 189.319L349.55 186.499Z" fill="#71A9D6"/>
<path opacity="0.3" d="M327.29 243.179L322.17 223.119C322.17 223.119 312.32 224.259 304.57 218.529C304.57 218.529 306.16 225.859 319.89 228.059L325.75 247.749L325.66 257.149L327.29 243.179Z" fill="black"/>
<path d="M346.28 397.079C345.88 397.499 346.12 400.569 346.63 401.269C347.14 401.969 349.94 404.269 355.11 404.379C360.05 404.469 364.41 403.569 367.2 401.579C369.99 399.589 371.28 397.489 371.41 394.669C371.54 391.849 371.07 389.159 372.29 386.929C373.42 384.869 374.96 382.839 375.29 381.739C376.1 379.339 375.29 375.739 375.29 375.739L346.28 397.079Z" fill="#263238"/>
<path d="M358.26 373.299C358.249 374.363 358.104 375.422 357.83 376.449C357.194 378.659 356.294 380.785 355.15 382.779C354.584 383.82 353.949 384.823 353.25 385.779C351.86 387.629 350.09 389.179 348.6 390.969C347.008 392.662 346.051 394.852 345.89 397.169C345.89 401.049 350.15 402.169 353.4 402.529C356.924 402.956 360.499 402.583 363.86 401.439C365.627 400.877 367.193 399.816 368.371 398.385C369.549 396.953 370.288 395.211 370.5 393.369C370.62 392.289 370.5 391.199 370.57 390.109C370.867 387.621 371.774 385.244 373.21 383.189C374.045 382.002 374.749 380.728 375.31 379.389C376.19 376.949 375.24 374.309 374.47 371.959C373.8 369.959 373.27 367.489 372.56 367.719C372.56 368.139 372.56 369.049 372.56 369.049C372.34 369.509 371.83 369.839 371.71 370.369C371.589 370.922 371.422 371.464 371.21 371.989C370.89 372.807 370.324 373.506 369.59 373.989C369.47 372.529 369.34 371.079 369.21 369.629C369.226 369.173 369.084 368.725 368.81 368.359C368.454 368.067 368.01 367.902 367.55 367.889C364.811 367.391 362.013 367.31 359.25 367.649C359.041 367.66 358.837 367.714 358.651 367.809C358.465 367.904 358.301 368.037 358.17 368.199C358.018 368.51 357.973 368.861 358.04 369.199C358.191 370.561 358.265 371.93 358.26 373.299Z" fill="#455A64"/>
<path d="M354.67 383.62C356.05 382.47 359.27 382.28 361.04 382.37C362.838 382.431 364.592 382.943 366.14 383.86C366.368 384.009 366.642 384.071 366.912 384.035C367.182 383.998 367.43 383.865 367.61 383.66C367.717 383.545 367.798 383.409 367.846 383.26C367.895 383.111 367.91 382.953 367.891 382.798C367.872 382.642 367.819 382.493 367.736 382.36C367.653 382.228 367.541 382.115 367.41 382.03C365.703 380.907 363.713 380.29 361.67 380.25C357.32 380.17 356.08 380.98 356.08 380.98C356.08 380.98 354.18 382.36 354.67 383.62Z" fill="#F0F0F0"/>
<path d="M351.58 387.75C353.33 386.59 356.88 386.55 358.65 386.65C360.427 386.722 362.153 387.268 363.65 388.23C363.878 388.377 364.151 388.438 364.42 388.403C364.689 388.368 364.937 388.24 365.12 388.04C365.227 387.925 365.308 387.787 365.356 387.638C365.405 387.488 365.42 387.329 365.401 387.173C365.382 387.017 365.329 386.867 365.246 386.733C365.163 386.6 365.052 386.486 364.92 386.4C363.179 385.218 361.142 384.546 359.04 384.46C354.69 384.39 353.61 385.33 353.61 385.33C353.109 385.552 352.666 385.885 352.314 386.305C351.963 386.724 351.711 387.218 351.58 387.75Z" fill="#F0F0F0"/>
<path d="M363.17 375.999C361.329 375.784 359.463 376.043 357.75 376.749C357 377.219 356.57 378.459 357.07 378.749C358.568 378.047 360.218 377.727 361.87 377.819C363.502 377.881 365.111 378.219 366.63 378.819C367.01 378.959 367.46 379.169 367.85 379.359C367.974 379.425 368.112 379.464 368.252 379.474C368.393 379.483 368.534 379.462 368.666 379.413C368.799 379.364 368.919 379.288 369.02 379.189C369.12 379.09 369.199 378.971 369.25 378.839C369.333 378.617 369.335 378.372 369.254 378.148C369.174 377.925 369.016 377.737 368.81 377.619C367.065 376.687 365.143 376.135 363.17 375.999Z" fill="#F0F0F0"/>
<path d="M278.7 382.809C278.396 383.922 278.524 385.108 279.06 386.129C279.58 387.079 284.82 389.669 291.65 388.839C296.717 388.211 301.524 386.235 305.57 383.119C308.1 381.249 310.8 380.779 314.19 380.399C317.58 380.019 320.13 378.839 320.79 377.219C321.45 375.599 320.44 372.899 320.44 372.899L278.7 382.809Z" fill="#263238"/>
<path d="M305.33 361.079C304.71 360.946 304.099 360.776 303.5 360.569C303.184 360.43 302.83 360.409 302.5 360.509C302.07 360.689 301.93 361.219 301.84 361.679C301.731 362.694 301.533 363.698 301.25 364.679C300.781 365.496 300.164 366.219 299.43 366.809C297.8 368.265 296.024 369.548 294.13 370.639C291.96 371.969 289.81 373.019 287.55 374.179C285.29 375.339 282.15 376.179 280.37 377.529C277.78 379.529 277.68 384.069 280.84 385.699C283.57 387.119 290.62 388.419 297.84 385.959C301.76 384.619 305.94 380.129 311.14 379.449C314.45 379.009 318.86 378.449 320.86 375.849C321.59 374.689 320.96 371.449 320.36 367.609C319.83 364.179 319.36 358.799 318.29 359.149V360.149C318.03 360.589 317.18 361.389 316.86 361.789C316.569 362.099 316.259 362.39 315.93 362.659C315.563 363.084 315.172 363.488 314.76 363.869C314.223 364.33 313.555 364.61 312.85 364.669C312.503 364.694 312.157 364.622 311.85 364.459C311.28 364.129 311.21 363.389 310.75 362.929C310.219 362.41 309.59 362.002 308.9 361.729C307.934 361.385 306.924 361.179 305.9 361.119C305.709 361.118 305.519 361.104 305.33 361.079Z" fill="#455A64"/>
<path d="M297.12 368.689C297.331 368.219 297.659 367.81 298.072 367.5C298.484 367.191 298.969 366.991 299.48 366.919C300.98 366.549 303.7 367.519 305.48 368.799C305.643 368.92 305.775 369.078 305.863 369.261C305.951 369.444 305.994 369.645 305.987 369.848C305.98 370.051 305.924 370.249 305.824 370.425C305.723 370.601 305.581 370.75 305.41 370.859C305.191 370.993 304.936 371.056 304.681 371.04C304.425 371.024 304.18 370.929 303.98 370.769C302.053 369.207 299.59 368.46 297.12 368.689Z" fill="#F0F0F0"/>
<path d="M292.58 371.559C292.882 371.077 293.296 370.675 293.787 370.388C294.278 370.101 294.832 369.936 295.4 369.909C295.4 369.909 299.4 369.809 301.92 371.909C302.079 372.026 302.207 372.179 302.293 372.357C302.38 372.534 302.421 372.73 302.414 372.927C302.407 373.125 302.352 373.317 302.254 373.488C302.156 373.659 302.017 373.804 301.85 373.909C301.641 374.039 301.397 374.101 301.152 374.086C300.907 374.072 300.672 373.982 300.48 373.829C299.418 372.882 298.156 372.186 296.789 371.793C295.421 371.4 293.983 371.32 292.58 371.559Z" fill="#F0F0F0"/>
<path d="M287.53 374.199C287.89 373.745 288.346 373.375 288.864 373.114C289.382 372.854 289.95 372.709 290.53 372.689C292.777 372.706 294.962 373.434 296.77 374.769C296.929 374.885 297.058 375.038 297.145 375.215C297.232 375.392 297.275 375.588 297.269 375.785C297.263 375.983 297.209 376.175 297.112 376.347C297.014 376.518 296.876 376.663 296.71 376.769C296.501 376.899 296.257 376.961 296.012 376.947C295.767 376.933 295.532 376.843 295.34 376.689C294.325 375.69 293.089 374.943 291.733 374.511C290.376 374.078 288.936 373.971 287.53 374.199Z" fill="#F0F0F0"/>
<path d="M306.34 127.219C310.28 124.349 312.93 124.099 316.83 124.499L312.21 153.609C312.21 153.609 295.51 169.849 290.95 174.379L277.3 163.709C277.3 163.709 302.38 130.089 306.34 127.219Z" fill="#FFA8A7"/>
<path d="M302.36 181C302.926 175.47 302.989 169.901 302.55 164.36C294.55 156.28 296.22 147.04 299.86 141.15C307.34 129.04 316.86 124.52 316.86 124.52L329.34 124.14C331.11 124.34 346.46 126.56 348.42 127.07C348.42 127.07 353.7 131.55 355.14 136.69C355.95 139.61 356.14 142.54 353.53 152.07L347 168.62C347 168.62 345.11 173.62 346.07 177.06C347.07 180.71 352.33 189.2 355.07 197.6C355.07 197.6 343.21 208.21 321.46 205.75C302.87 203.65 300.16 197.39 300.16 197.39C300.16 197.39 302.14 184.38 302.36 181Z" fill="#F0F0F0"/>
<path d="M441.75 161.509C441.732 159.795 441.393 158.098 440.75 156.509C440.464 155.679 439.869 154.992 439.09 154.589C438.789 154.5 438.47 154.491 438.165 154.563C437.86 154.635 437.579 154.785 437.35 154.999C435.76 156.409 433.22 158.999 431.55 160.339C430.021 161.677 428.267 162.734 426.37 163.459C425.94 163.109 426.5 162.559 426.76 162.199C427.41 161.289 428.05 160.739 428.76 159.749C429.47 158.759 430.29 157.849 429.92 156.519C429.88 156.344 429.794 156.183 429.671 156.053C429.548 155.923 429.392 155.828 429.22 155.779C428.922 155.744 428.622 155.823 428.38 155.999C426.092 157.139 423.947 158.545 421.99 160.189C419.83 161.999 418.56 164.989 414.85 166.449C411.14 167.909 407.16 168.279 400.29 169.179C394.96 169.879 388.94 170.379 383.01 170.889C379.55 166.009 366.67 147.499 361.44 139.559C357.44 133.439 354.17 127.999 348.38 127.079C343.38 128.509 341.38 141.939 344.55 150.379C344.55 150.379 347.6 155.809 355 164.469C358.53 168.599 366.8 179.179 372.25 184.909C374.85 187.649 376 188.309 387.25 186.529C393.45 185.529 415.47 179.809 419.66 178.529C422.519 177.773 425.328 176.838 428.07 175.729C430.8 174.609 436.7 171.439 438.93 168.729C439.88 167.657 440.613 166.41 441.09 165.059C441.514 163.923 441.738 162.722 441.75 161.509Z" fill="#FFA8A7"/>
<path d="M348.28 80.7694C351.85 85.3094 352.59 91.2594 351.78 97.1494C350.42 107.049 344.48 114.789 337.36 118.149C333.09 120.149 327.54 121.019 324.64 118.559C320.14 114.739 315.58 110.989 310.73 107.639C307.11 105.129 303.15 102.639 301.26 98.6394C299.64 95.2094 299.63 89.3194 302.85 86.7394C299.69 84.5994 298.32 80.9394 297.74 78.8294C297.08 76.3894 297.74 74.8294 298.74 73.9594C299.74 73.0894 302.53 72.9594 303.74 72.8394C308.4 72.2694 311.74 71.0294 316.29 69.7794C319 68.9994 326.73 68.0894 331.8 68.9994C335.8 69.7194 340.42 71.2594 342.46 76.8294C344.805 77.4134 346.867 78.8093 348.28 80.7694Z" fill="#263238"/>
<path d="M311.71 78.4395C308.76 79.9895 304.84 87.0095 304.41 102.149C304 114.999 308 118.359 310.07 119.379C312.14 120.399 316.16 120.059 320.07 119.609L320.48 126.609C320.48 126.609 307.54 137.269 320.7 137.389C328.47 137.459 337.63 126.739 337.63 126.739L338.36 110.549C339.23 111.021 340.226 111.205 341.207 111.075C342.187 110.946 343.102 110.51 343.82 109.829C346.99 106.949 347.74 102.529 345.36 99.8295C342.98 97.1295 338.78 97.4994 336.95 101.379C336.95 101.379 334.78 102.729 332.71 98.3794C328.836 97.8057 325.14 96.3742 321.89 94.1895C314 88.9995 312.29 81.0495 311.71 78.4395Z" fill="#FFA8A7"/>
<path d="M320.74 98.1894C320.722 98.5043 320.797 98.8175 320.955 99.0902C321.114 99.3629 321.349 99.583 321.631 99.7232C321.914 99.8635 322.231 99.9176 322.544 99.879C322.857 99.8404 323.152 99.7107 323.392 99.506C323.632 99.3013 323.807 99.0306 323.894 98.7276C323.982 98.4245 323.978 98.1025 323.884 97.8014C323.79 97.5003 323.61 97.2335 323.366 97.034C323.121 96.8345 322.824 96.7112 322.51 96.6794C322.294 96.6616 322.078 96.6866 321.872 96.753C321.666 96.8194 321.475 96.9258 321.311 97.0662C321.146 97.2065 321.011 97.378 320.913 97.5708C320.815 97.7635 320.756 97.9738 320.74 98.1894Z" fill="#263238"/>
<path d="M316.86 110.229C316.832 110.443 316.847 110.66 316.904 110.868C316.961 111.076 317.059 111.27 317.192 111.44C317.326 111.609 317.491 111.751 317.68 111.855C317.868 111.96 318.076 112.026 318.29 112.049C318.622 112.098 318.962 112.046 319.264 111.899C319.566 111.753 319.818 111.52 319.986 111.229C320.155 110.938 320.232 110.604 320.208 110.269C320.185 109.934 320.061 109.613 319.853 109.349C319.646 109.085 319.364 108.889 319.044 108.787C318.724 108.685 318.381 108.681 318.058 108.775C317.736 108.87 317.45 109.059 317.236 109.318C317.022 109.578 316.891 109.895 316.86 110.229Z" fill="#B16668"/>
<path d="M309.81 89.7393L306.4 91.7893C306.524 92.0176 306.692 92.2185 306.896 92.3798C307.099 92.541 307.333 92.6594 307.584 92.7276C307.834 92.7959 308.096 92.8126 308.353 92.7768C308.61 92.741 308.858 92.6534 309.08 92.5193C309.532 92.2355 309.859 91.7901 309.995 91.2737C310.131 90.7573 310.064 90.2086 309.81 89.7393Z" fill="#263238"/>
<path d="M323.72 92.9998L327.35 94.6098C327.467 94.3793 327.536 94.1274 327.552 93.8695C327.568 93.6115 327.532 93.3529 327.445 93.1095C327.358 92.8661 327.222 92.6431 327.046 92.454C326.869 92.2649 326.656 92.1138 326.42 92.0098C325.928 91.7979 325.375 91.7824 324.872 91.9666C324.37 92.1508 323.958 92.5206 323.72 92.9998Z" fill="#263238"/>
<path d="M307.15 97.479C307.126 97.7942 307.196 98.1094 307.35 98.3853C307.504 98.6612 307.736 98.8856 308.017 99.0305C308.298 99.1753 308.616 99.2343 308.93 99.2C309.244 99.1656 309.542 99.0396 309.785 98.8375C310.028 98.6353 310.206 98.3662 310.297 98.0634C310.388 97.7607 310.388 97.4379 310.297 97.1352C310.206 96.8325 310.027 96.5634 309.784 96.3613C309.541 96.1593 309.244 96.0332 308.93 95.999C308.498 95.9627 308.07 96.0976 307.737 96.3744C307.404 96.6513 307.193 97.048 307.15 97.479Z" fill="#263238"/>
<path d="M315.43 95.6592L314.53 107.079L308.61 104.899L315.43 95.6592Z" fill="#F28F8F"/>
<path d="M320.1 119.609C324.25 119.279 332.85 117.279 334.35 113.999C333.778 115.847 332.637 117.467 331.09 118.629C328.44 120.629 320.27 122.539 320.27 122.539L320.1 119.609Z" fill="#F28F8F"/>
<path d="M337.14 98.2592L336.79 104.999C335.573 104.935 334.431 104.39 333.616 103.484C332.8 102.579 332.377 101.386 332.44 100.169L332.77 93.9492L337.14 98.2592Z" fill="#263238"/>
<path d="M322.67 210.69C346.25 210.18 375.29 226.12 387.52 246.29C393.64 256.38 394.39 265.61 390.66 272.38C390.1 273.38 386.75 279.5 386.19 280.52C382.49 287.32 374.29 291.65 362.48 291.91C338.89 292.42 309.86 276.48 297.63 256.31C291.51 246.23 290.76 237.01 294.47 230.24C295.04 229.24 298.41 223.05 298.99 222.01C302.71 215.25 310.89 210.94 322.67 210.69Z" fill="#37474F"/>
<path opacity="0.1" d="M359.35 220.729C371.09 227.179 381.41 236.209 387.52 246.289C393.63 256.369 394.39 265.61 390.66 272.38C390.1 273.38 386.75 279.499 386.19 280.519C382.49 287.319 374.29 291.65 362.48 291.91C350.67 292.17 337.48 288.299 325.8 281.859L359.35 220.729Z" fill="black"/>
<path d="M380.33 236.859C383.036 239.755 385.444 242.914 387.52 246.289C393.64 256.379 394.39 265.609 390.66 272.379C390.1 273.379 386.75 279.499 386.19 280.519C382.49 287.319 374.29 291.649 362.48 291.909C358.516 291.971 354.557 291.636 350.66 290.909L380.33 236.859Z" fill="#263238"/>
<path d="M390.659 272.347C398.684 257.725 384.659 234.604 359.332 220.704C334.006 206.803 306.97 207.388 298.945 222.01C290.92 236.631 304.945 259.753 330.272 273.653C355.598 287.553 382.634 286.968 390.659 272.347Z" fill="#455A64"/>
<path d="M322.3 200.539C322.48 200.229 322.92 200.219 323.3 200.249C325.36 200.409 328.64 201.249 330.19 199.399C330.312 199.267 330.395 199.104 330.432 198.928C330.469 198.752 330.458 198.569 330.4 198.399C330.259 198.135 330.023 197.934 329.74 197.839C327.501 196.604 325.125 195.638 322.66 194.959" fill="#FFA8A7"/>
<g opacity="0.4">
<path d="M337.8 189.549C323.31 195.899 315.18 208.869 306.36 224.929L384.29 267.709C393.11 251.649 399.69 237.829 397.29 222.199C394.89 206.569 390.12 198.969 388.85 193.099C387.58 187.229 388.46 183.769 389.74 181.429C391.02 179.089 393.46 176.429 399.11 174.429C404.76 172.429 413.7 172.269 428.2 165.919C442.7 159.569 450.8 146.589 459.62 130.529L381.68 87.7295C372.87 103.789 366.27 117.629 368.68 133.249C371.09 148.869 375.83 156.469 377.12 162.349C378.41 168.229 377.5 171.669 376.21 174.019C374.92 176.369 372.49 178.959 366.86 181.019C363.79 182.149 359.75 182.679 354.38 183.959C348.693 185.308 343.143 187.18 337.8 189.549Z" fill="#D0E8FB"/>
</g>
<path d="M384.284 267.68C391.103 255.257 379.184 235.61 357.663 223.799C336.143 211.987 313.169 212.483 306.35 224.907C299.532 237.33 311.45 256.977 332.971 268.788C354.492 280.6 377.465 280.104 384.284 267.68Z" fill="#71A9D6"/>
<path d="M459.629 130.4C466.447 117.976 454.529 98.3301 433.008 86.5185C411.487 74.707 388.514 75.203 381.695 87.6264C374.876 100.05 386.795 119.696 408.316 131.508C429.836 143.319 452.81 142.823 459.629 130.4Z" fill="#71A9D6"/>
<g opacity="0.8">
<path d="M375.8 138.76C376.44 144.58 378.8 148.76 380.18 152.36C381.227 154.882 382.083 157.479 382.74 160.13C384.14 166.63 383.59 172.03 381.05 176.66C378.51 181.29 378.59 182.66 379.88 183.39C381.17 184.12 382.38 183.39 384.88 178.78C387.38 174.17 391.69 170.78 397.93 168.49C400.516 167.625 403.163 166.957 405.85 166.49C411.15 165.4 408.79 163.29 405.2 162.55C394.78 160.39 393.33 157.69 387.83 146.34C386.399 143.424 384.623 140.691 382.54 138.2C380.19 135.66 375.34 134.53 375.8 138.76Z" fill="white"/>
</g>
<g opacity="0.8">
<path d="M378.58 191.24C378.748 190.757 378.774 190.236 378.656 189.739C378.537 189.242 378.279 188.789 377.912 188.434C377.545 188.078 377.084 187.835 376.583 187.734C376.082 187.632 375.563 187.675 375.086 187.858C374.609 188.042 374.194 188.358 373.891 188.769C373.588 189.181 373.409 189.67 373.374 190.18C373.34 190.69 373.452 191.199 373.698 191.647C373.943 192.095 374.312 192.464 374.76 192.71C375.462 193.02 376.257 193.039 376.973 192.764C377.689 192.488 378.267 191.94 378.58 191.24Z" fill="white"/>
</g>
<path opacity="0.8" d="M311.62 226.889C318.62 214.689 325.49 204.949 336.54 200.289C345.27 196.609 357.66 196.639 369.15 202.939C380.64 209.239 386.71 216.799 388.89 228.999C390.99 240.779 386.36 251.849 379.82 264.299C377.23 269.029 371.31 271.919 362.67 271.869C345.4 271.769 323.8 259.869 314.44 245.389C309.76 238.139 309.03 231.579 311.62 226.859V226.889Z" fill="white"/>
<path opacity="0.7" d="M379.804 264.296C385.397 254.104 374.664 237.463 355.83 227.126C336.997 216.789 317.194 216.672 311.601 226.863C306.007 237.055 316.741 253.696 335.574 264.033C354.408 274.37 374.21 274.487 379.804 264.296Z" fill="white"/>
<path d="M404.26 62.0598C427.85 61.5498 456.88 77.4898 469.11 97.6598C475.23 107.74 475.98 116.97 472.26 123.75L467.79 131.89C464.08 138.68 455.88 143.02 444.07 143.28C420.49 143.78 391.45 127.84 379.22 107.67C373.11 97.5998 372.35 88.3798 376.06 81.6098L380.58 73.3798C384.3 66.6198 392.48 62.3098 404.26 62.0598Z" fill="#37474F"/>
<path opacity="0.1" d="M440.94 72.0996C452.68 78.5396 463 87.5696 469.11 97.6596C475.22 107.75 476 117 472.26 123.75L467.79 131.89C464.08 138.68 455.88 143.02 444.07 143.28C432.26 143.54 419.12 139.67 407.39 133.23L440.94 72.0996Z" fill="black"/>
<path d="M461.92 88.2295C464.628 91.1222 467.037 94.2816 469.11 97.6595C475.23 107.739 475.98 116.969 472.26 123.749L467.79 131.889C464.08 138.679 455.88 143.019 444.07 143.279C440.11 143.341 436.153 143.006 432.26 142.279L461.92 88.2295Z" fill="#263238"/>
<path d="M472.24 123.73C480.265 109.108 466.24 85.9867 440.914 72.0865C415.587 58.1863 388.551 58.771 380.526 73.3926C372.501 88.0141 386.526 111.136 411.853 125.036C437.179 138.936 464.215 138.351 472.24 123.73Z" fill="#455A64"/>
<path d="M277.3 163.709L292.7 171.369C296.49 175.949 298.38 178.469 301.99 182.459C305.345 186.34 309.186 189.772 313.42 192.669C316.73 194.879 319.92 194.219 322.63 194.969L322.3 200.539C322.05 200.969 322.54 201.439 322.97 201.689C326.651 203.82 330.576 205.499 334.66 206.689C336.04 207.099 337.66 207.689 337.95 209.149C338.16 210.329 337.1 211.249 336.26 212.149C333.26 215.279 328.07 216.099 323.98 215.279C320.44 214.569 316.57 212.279 313.52 210.279C310.29 208.119 307.81 205.409 305.4 203.459C302 200.709 290.4 191.069 285.74 186.849C283.05 184.409 279.17 180.909 277.3 178.969C272.74 174.229 271.4 171.559 277.3 163.709Z" fill="#FFA8A7"/>
<path d="M290.78 63.0697C290.773 62.9291 290.794 62.7885 290.842 62.6562C290.89 62.5239 290.964 62.4027 291.06 62.2997C291.152 62.1955 291.264 62.1115 291.389 62.0529C291.515 61.9944 291.651 61.9626 291.79 61.9597L296.74 61.7297C297.018 61.7212 297.289 61.8204 297.496 62.0068C297.703 62.1931 297.83 62.4521 297.85 62.7297L298.03 66.7297C298.039 66.8689 298.019 67.0084 297.97 67.1393C297.922 67.2702 297.847 67.3895 297.75 67.4897C297.659 67.5957 297.548 67.6816 297.422 67.7418C297.296 67.8021 297.159 67.8354 297.02 67.8397L292.07 68.0697C291.787 68.0671 291.516 67.9535 291.316 67.7534C291.116 67.5533 291.003 67.2826 291 66.9997L290.78 63.0697ZM289.78 41.6397C289.772 41.3614 289.871 41.0907 290.057 40.8838C290.243 40.677 290.502 40.5501 290.78 40.5297L295.73 40.3097C295.869 40.3007 296.009 40.3211 296.14 40.3693C296.271 40.4175 296.39 40.4926 296.49 40.5897C296.596 40.6802 296.682 40.7919 296.742 40.9177C296.803 41.0434 296.836 41.1803 296.84 41.3197L297.61 58.2597C297.619 58.3989 297.599 58.5384 297.55 58.6693C297.502 58.8002 297.427 58.9195 297.33 59.0197C297.239 59.1257 297.128 59.2116 297.002 59.2718C296.876 59.3321 296.739 59.3654 296.6 59.3697L291.6 59.5997C291.461 59.6086 291.321 59.5883 291.19 59.54C291.06 59.4918 290.94 59.4168 290.84 59.3197C290.735 59.2271 290.65 59.1133 290.591 58.9858C290.533 58.8583 290.502 58.72 290.5 58.5797L289.78 41.6397Z" fill="#71A9D6"/>
<path d="M280.39 77.9996C280.233 77.7645 280.176 77.4769 280.23 77.1996C280.254 77.0627 280.307 76.9325 280.384 76.8171C280.462 76.7018 280.562 76.6038 280.68 76.5296L284.82 73.7896C285.056 73.6408 285.339 73.588 285.613 73.6419C285.886 73.6959 286.128 73.8525 286.29 74.0796L288.48 77.3996C288.558 77.5137 288.612 77.6428 288.638 77.7788C288.664 77.9148 288.661 78.0547 288.63 78.1896C288.607 78.3282 288.555 78.4603 288.477 78.5775C288.4 78.6947 288.299 78.7942 288.18 78.8696L284.05 81.6096C283.936 81.6879 283.807 81.7416 283.671 81.7675C283.535 81.7933 283.395 81.7906 283.26 81.7596C283.121 81.7365 282.989 81.6846 282.872 81.607C282.755 81.5295 282.655 81.4281 282.58 81.3096L280.39 77.9996ZM268.54 60.1596C268.462 60.0454 268.408 59.9163 268.382 59.7803C268.356 59.6443 268.359 59.5044 268.39 59.3696C268.413 59.231 268.465 59.0988 268.542 58.9816C268.62 58.8644 268.721 58.7649 268.84 58.6896L273 55.9996C273.235 55.8468 273.521 55.7926 273.796 55.8488C274.071 55.9049 274.313 56.0668 274.47 56.2996L283.84 70.4396C283.918 70.5537 283.972 70.6828 283.998 70.8188C284.024 70.9548 284.021 71.0947 283.99 71.2296C283.967 71.3682 283.915 71.5003 283.837 71.6175C283.76 71.7347 283.659 71.8342 283.54 71.9096L279.41 74.6496C279.175 74.8023 278.889 74.8565 278.614 74.8004C278.339 74.7442 278.097 74.5823 277.94 74.3496L268.54 60.1596Z" fill="#D0E8FB"/>
<path d="M101.05 184.8L84.4499 211.54C83.9687 212.315 83.7034 213.205 83.6816 214.117C83.6598 215.03 83.8822 215.931 84.3258 216.729C84.7694 217.526 85.4181 218.191 86.2047 218.653C86.9914 219.116 87.8874 219.36 88.7999 219.36H122.7C121.79 219.358 120.898 219.113 120.114 218.652C119.33 218.19 118.684 217.528 118.241 216.734C117.798 215.939 117.574 215.041 117.594 214.132C117.613 213.223 117.874 212.335 118.35 211.56L134.41 185.4L101.05 184.8Z" fill="white" stroke="#263238" stroke-width="1.17749" stroke-linecap="round" stroke-linejoin="round"/>
<path d="M101.04 184.78L134.4 185.38L128.22 195.44H94.4299L101.04 184.78Z" fill="#263238" stroke="#263238" stroke-width="1.17749" stroke-linecap="round" stroke-linejoin="round"/>
<path d="M189.87 190.74L53.91 190.74C52.3029 190.74 51 189.437 51 187.83L51 73.9102C51 72.3031 52.3029 71.0002 53.91 71.0002L189.87 71.0002C191.477 71.0002 192.78 72.3031 192.78 73.9102L192.78 187.83C192.78 189.437 191.477 190.74 189.87 190.74Z" fill="white" stroke="#263238" stroke-width="1.17749" stroke-linecap="round" stroke-linejoin="round"/>
<path d="M195.23 190.74L59.2701 190.74C57.663 190.74 56.3601 189.437 56.3601 187.83L56.3601 73.9102C56.3601 72.3031 57.663 71.0002 59.2701 71.0002L195.23 71.0002C196.837 71.0002 198.14 72.3031 198.14 73.9102L198.14 187.83C198.14 189.437 196.837 190.74 195.23 190.74Z" fill="white" stroke="#263238" stroke-width="1.17749" stroke-linecap="round" stroke-linejoin="round"/>
<path d="M193.38 71H61.13C60.504 70.9987 59.884 71.1209 59.3053 71.3595C58.7266 71.5981 58.2007 71.9485 57.7577 72.3907C57.3146 72.8328 56.9631 73.358 56.7233 73.9361C56.4834 74.5143 56.36 75.1341 56.36 75.76V169.29H198.14V75.8C198.145 75.1716 198.026 74.5483 197.789 73.9662C197.552 73.384 197.203 72.8546 196.76 72.4083C196.317 71.9621 195.791 71.6078 195.211 71.3661C194.631 71.1244 194.008 71 193.38 71Z" fill="#263238" stroke="#263238" stroke-width="1.17749" stroke-linecap="round" stroke-linejoin="round"/>
<path d="M192.18 162.75L62.3101 162.75L62.3101 75.77L192.18 75.77V162.75Z" fill="white" stroke="#263238" stroke-width="1.17749" stroke-linecap="round" stroke-linejoin="round"/>
<path d="M230.51 213.35H234.63V214.72H230.51V213.35Z" fill="white" stroke="#263238" stroke-width="1.17749" stroke-linecap="round" stroke-linejoin="round"/>
<path d="M225.01 213.35H229.13V214.72H225.01V213.35Z" fill="white" stroke="#263238" stroke-width="1.17749" stroke-linecap="round" stroke-linejoin="round"/>
<path d="M219.51 213.35H223.63V214.72H219.51V213.35Z" fill="white" stroke="#263238" stroke-width="1.17749" stroke-linecap="round" stroke-linejoin="round"/>
<path d="M214.01 213.35H218.13V214.72H214.01V213.35Z" fill="white" stroke="#263238" stroke-width="1.17749" stroke-linecap="round" stroke-linejoin="round"/>
<path d="M208.51 213.35H212.63V214.72H208.51V213.35Z" fill="white" stroke="#263238" stroke-width="1.17749" stroke-linecap="round" stroke-linejoin="round"/>
<path d="M203.01 213.35H207.13V214.72H203.01V213.35Z" fill="white" stroke="#263238" stroke-width="1.17749" stroke-linecap="round" stroke-linejoin="round"/>
<path d="M197.51 213.35H201.63V214.72H197.51V213.35Z" fill="white" stroke="#263238" stroke-width="1.17749" stroke-linecap="round" stroke-linejoin="round"/>
<path d="M192.01 213.35H196.13V214.72H192.01V213.35Z" fill="white" stroke="#263238" stroke-width="1.17749" stroke-linecap="round" stroke-linejoin="round"/>
<path d="M186.51 213.35H190.63V214.72H186.51V213.35Z" fill="white" stroke="#263238" stroke-width="1.17749" stroke-linecap="round" stroke-linejoin="round"/>
<path d="M181.01 213.35H185.13V214.72H181.01V213.35Z" fill="white" stroke="#263238" stroke-width="1.17749" stroke-linecap="round" stroke-linejoin="round"/>
<path d="M175.51 213.35H179.63V214.72H175.51V213.35Z" fill="white" stroke="#263238" stroke-width="1.17749" stroke-linecap="round" stroke-linejoin="round"/>
<path d="M170.01 213.35H174.13V214.72H170.01V213.35Z" fill="white" stroke="#263238" stroke-width="1.17749" stroke-linecap="round" stroke-linejoin="round"/>
<path d="M164.51 213.35H168.63V214.72H164.51V213.35Z" fill="white" stroke="#263238" stroke-width="1.17749" stroke-linecap="round" stroke-linejoin="round"/>
<path d="M159.02 213.35H163.14V214.72H159.02V213.35Z" fill="white" stroke="#263238" stroke-width="1.17749" stroke-linecap="round" stroke-linejoin="round"/>
<path d="M153.52 213.35H157.64V214.72H153.52V213.35Z" fill="white" stroke="#263238" stroke-width="1.17749" stroke-linecap="round" stroke-linejoin="round"/>
<path d="M148.02 213.35H152.14V214.72H148.02V213.35Z" fill="white" stroke="#263238" stroke-width="1.17749" stroke-linecap="round" stroke-linejoin="round"/>
<path d="M142.52 213.35H146.64V214.72H142.52V213.35Z" fill="white" stroke="#263238" stroke-width="1.17749" stroke-linecap="round" stroke-linejoin="round"/>
<path d="M137.02 213.35H141.14V214.72H137.02V213.35Z" fill="white" stroke="#263238" stroke-width="1.17749" stroke-linecap="round" stroke-linejoin="round"/>
<path d="M131.52 213.35H135.64V214.72H131.52V213.35Z" fill="white" stroke="#263238" stroke-width="1.17749" stroke-linecap="round" stroke-linejoin="round"/>
<path d="M126.02 213.35H130.14V214.72H126.02V213.35Z" fill="white" stroke="#263238" stroke-width="1.17749" stroke-linecap="round" stroke-linejoin="round"/>
<path d="M120.52 213.35H124.64V214.72H120.52V213.35Z" fill="white" stroke="#263238" stroke-width="1.17749" stroke-linecap="round" stroke-linejoin="round"/>
<path d="M117.51 214.92H236.76V219.37H117.51V214.92Z" fill="white" stroke="#263238" stroke-width="1.17749" stroke-linecap="round" stroke-linejoin="round"/>
<path d="M117.51 214.92H146.6V219.37H117.51V214.92Z" fill="#263238" stroke="#263238" stroke-width="1.17749" stroke-linecap="round" stroke-linejoin="round"/>
<rect x="38" y="219" width="212" height="10" fill="#D9D9D9"/>
<path d="M148.455 145C148.073 145 147.773 144.92 147.553 144.758C147.333 144.597 147.179 144.377 147.091 144.098C147.003 143.82 146.959 143.508 146.959 143.163V139.918H146.101C146.027 139.918 145.969 139.896 145.925 139.852C145.881 139.808 145.859 139.75 145.859 139.676V139.522C145.859 139.449 145.881 139.39 145.925 139.346C145.969 139.302 146.027 139.28 146.101 139.28H146.959V137.432C146.959 137.359 146.981 137.3 147.025 137.256C147.069 137.212 147.127 137.19 147.201 137.19H147.388C147.461 137.19 147.52 137.212 147.564 137.256C147.608 137.3 147.63 137.359 147.63 137.432V139.28H148.994C149.067 139.28 149.126 139.302 149.17 139.346C149.214 139.39 149.236 139.449 149.236 139.522V139.676C149.236 139.75 149.214 139.808 149.17 139.852C149.126 139.896 149.067 139.918 148.994 139.918H147.63V143.119C147.63 143.508 147.692 143.812 147.817 144.032C147.949 144.252 148.18 144.362 148.51 144.362H149.104C149.177 144.362 149.236 144.384 149.28 144.428C149.324 144.472 149.346 144.531 149.346 144.604V144.758C149.346 144.832 149.324 144.89 149.28 144.934C149.236 144.978 149.177 145 149.104 145H148.455Z" fill="#71A9D6"/>
<path d="M142.24 145.11C141.741 145.11 141.327 145.004 140.997 144.791C140.674 144.571 140.432 144.274 140.271 143.9C140.117 143.526 140.04 143.108 140.04 142.646V139.522C140.04 139.449 140.062 139.39 140.106 139.346C140.15 139.302 140.209 139.28 140.282 139.28H140.469C140.542 139.28 140.601 139.302 140.645 139.346C140.689 139.39 140.711 139.449 140.711 139.522V142.591C140.711 143.845 141.257 144.472 142.35 144.472C142.871 144.472 143.289 144.307 143.604 143.977C143.919 143.64 144.077 143.178 144.077 142.591V139.522C144.077 139.449 144.099 139.39 144.143 139.346C144.187 139.302 144.246 139.28 144.319 139.28H144.506C144.579 139.28 144.638 139.302 144.682 139.346C144.726 139.39 144.748 139.449 144.748 139.522V144.758C144.748 144.832 144.726 144.89 144.682 144.934C144.638 144.978 144.579 145 144.506 145H144.319C144.246 145 144.187 144.978 144.143 144.934C144.099 144.89 144.077 144.832 144.077 144.758V144.241C143.879 144.498 143.641 144.707 143.362 144.868C143.091 145.03 142.717 145.11 142.24 145.11Z" fill="#71A9D6"/>
<path d="M136.139 145.111C135.611 145.111 135.168 145.001 134.808 144.781C134.456 144.561 134.185 144.26 133.994 143.879C133.811 143.498 133.712 143.072 133.697 142.603C133.69 142.493 133.686 142.339 133.686 142.141C133.686 141.943 133.69 141.789 133.697 141.679C133.712 141.202 133.811 140.777 133.994 140.403C134.185 140.022 134.456 139.721 134.808 139.501C135.168 139.281 135.611 139.171 136.139 139.171C136.667 139.171 137.107 139.281 137.459 139.501C137.819 139.721 138.09 140.022 138.273 140.403C138.464 140.777 138.567 141.202 138.581 141.679C138.589 141.789 138.592 141.943 138.592 142.141C138.592 142.339 138.589 142.493 138.581 142.603C138.567 143.072 138.464 143.498 138.273 143.879C138.09 144.26 137.819 144.561 137.459 144.781C137.107 145.001 136.667 145.111 136.139 145.111ZM136.139 144.473C136.653 144.473 137.071 144.308 137.393 143.978C137.716 143.648 137.888 143.171 137.91 142.548C137.918 142.438 137.921 142.302 137.921 142.141C137.921 141.98 137.918 141.844 137.91 141.734C137.888 141.103 137.716 140.627 137.393 140.304C137.071 139.974 136.653 139.809 136.139 139.809C135.626 139.809 135.208 139.974 134.885 140.304C134.563 140.627 134.39 141.103 134.368 141.734C134.361 141.844 134.357 141.98 134.357 142.141C134.357 142.302 134.361 142.438 134.368 142.548C134.39 143.171 134.563 143.648 134.885 143.978C135.208 144.308 135.626 144.473 136.139 144.473Z" fill="#71A9D6"/>
<path d="M127.243 145.111C126.532 145.111 125.967 144.88 125.549 144.418C125.131 143.949 124.893 143.336 124.834 142.581C124.827 142.471 124.823 142.324 124.823 142.141C124.823 141.958 124.827 141.811 124.834 141.701C124.871 141.202 124.988 140.762 125.186 140.381C125.384 140 125.656 139.703 126 139.49C126.352 139.277 126.767 139.171 127.243 139.171C127.757 139.171 128.193 139.285 128.552 139.512C128.912 139.739 129.187 140.066 129.377 140.491C129.575 140.916 129.674 141.422 129.674 142.009V142.174C129.674 142.247 129.649 142.306 129.597 142.35C129.553 142.394 129.495 142.416 129.421 142.416H125.505C125.505 142.416 125.505 142.431 125.505 142.46C125.505 142.489 125.505 142.511 125.505 142.526C125.52 142.856 125.597 143.171 125.736 143.472C125.876 143.765 126.074 144.007 126.33 144.198C126.587 144.381 126.891 144.473 127.243 144.473C127.559 144.473 127.819 144.425 128.024 144.33C128.237 144.235 128.406 144.132 128.53 144.022C128.655 143.905 128.736 143.817 128.772 143.758C128.838 143.663 128.89 143.608 128.926 143.593C128.963 143.571 129.022 143.56 129.102 143.56H129.278C129.344 143.56 129.399 143.582 129.443 143.626C129.495 143.663 129.517 143.714 129.509 143.78C129.502 143.883 129.443 144.011 129.333 144.165C129.231 144.312 129.08 144.458 128.882 144.605C128.692 144.752 128.457 144.873 128.178 144.968C127.9 145.063 127.588 145.111 127.243 145.111ZM125.505 141.8H129.003V141.756C129.003 141.389 128.934 141.059 128.794 140.766C128.655 140.473 128.453 140.242 128.189 140.073C127.925 139.897 127.61 139.809 127.243 139.809C126.877 139.809 126.561 139.897 126.297 140.073C126.041 140.242 125.843 140.473 125.703 140.766C125.571 141.059 125.505 141.389 125.505 141.756V141.8Z" fill="#71A9D6"/>
<path d="M115.705 145.001C115.632 145.001 115.573 144.979 115.529 144.935C115.485 144.891 115.463 144.832 115.463 144.759V139.523C115.463 139.45 115.485 139.391 115.529 139.347C115.573 139.303 115.632 139.281 115.705 139.281H115.892C115.965 139.281 116.024 139.303 116.068 139.347C116.112 139.391 116.134 139.45 116.134 139.523V139.908C116.317 139.673 116.534 139.494 116.783 139.369C117.04 139.237 117.348 139.171 117.707 139.171C118.528 139.171 119.115 139.516 119.467 140.205C119.636 139.89 119.881 139.64 120.204 139.457C120.534 139.266 120.912 139.171 121.337 139.171C121.726 139.171 122.074 139.263 122.382 139.446C122.697 139.622 122.943 139.886 123.119 140.238C123.302 140.59 123.394 141.03 123.394 141.558V144.759C123.394 144.832 123.372 144.891 123.328 144.935C123.284 144.979 123.225 145.001 123.152 145.001H122.965C122.892 145.001 122.833 144.979 122.789 144.935C122.745 144.891 122.723 144.832 122.723 144.759V141.668C122.723 141.184 122.653 140.81 122.514 140.546C122.375 140.275 122.191 140.084 121.964 139.974C121.737 139.864 121.491 139.809 121.227 139.809C121.007 139.809 120.783 139.864 120.556 139.974C120.329 140.084 120.138 140.275 119.984 140.546C119.837 140.81 119.764 141.184 119.764 141.668V144.759C119.764 144.832 119.742 144.891 119.698 144.935C119.654 144.979 119.595 145.001 119.522 145.001H119.335C119.262 145.001 119.203 144.979 119.159 144.935C119.115 144.891 119.093 144.832 119.093 144.759V141.668C119.093 141.184 119.02 140.81 118.873 140.546C118.726 140.275 118.539 140.084 118.312 139.974C118.085 139.864 117.846 139.809 117.597 139.809C117.377 139.809 117.153 139.864 116.926 139.974C116.699 140.084 116.508 140.275 116.354 140.546C116.207 140.81 116.134 141.18 116.134 141.657V144.759C116.134 144.832 116.112 144.891 116.068 144.935C116.024 144.979 115.965 145.001 115.892 145.001H115.705Z" fill="#71A9D6"/>
<path d="M113.256 145C113.182 145 113.124 144.978 113.08 144.934C113.036 144.89 113.014 144.832 113.014 144.758V139.522C113.014 139.449 113.036 139.39 113.08 139.346C113.124 139.302 113.182 139.28 113.256 139.28H113.443C113.516 139.28 113.575 139.302 113.619 139.346C113.663 139.39 113.685 139.449 113.685 139.522V144.758C113.685 144.832 113.663 144.89 113.619 144.934C113.575 144.978 113.516 145 113.443 145H113.256ZM113.135 138.103C113.061 138.103 113.003 138.081 112.959 138.037C112.915 137.993 112.893 137.935 112.893 137.861V137.443C112.893 137.37 112.915 137.311 112.959 137.267C113.003 137.216 113.061 137.19 113.135 137.19H113.553C113.626 137.19 113.685 137.216 113.729 137.267C113.78 137.311 113.806 137.37 113.806 137.443V137.861C113.806 137.935 113.78 137.993 113.729 138.037C113.685 138.081 113.626 138.103 113.553 138.103H113.135Z" fill="#71A9D6"/>
<path d="M108.959 145.001C108.886 145.001 108.827 144.979 108.783 144.935C108.739 144.891 108.717 144.832 108.717 144.759V137.961H106.539C106.466 137.961 106.407 137.939 106.363 137.895C106.319 137.851 106.297 137.792 106.297 137.719V137.554C106.297 137.473 106.319 137.411 106.363 137.367C106.407 137.323 106.466 137.301 106.539 137.301H111.577C111.658 137.301 111.72 137.323 111.764 137.367C111.808 137.411 111.83 137.473 111.83 137.554V137.719C111.83 137.792 111.808 137.851 111.764 137.895C111.72 137.939 111.658 137.961 111.577 137.961H109.41V144.759C109.41 144.832 109.388 144.891 109.344 144.935C109.3 144.979 109.238 145.001 109.157 145.001H108.959Z" fill="#71A9D6"/>
<path d="M158.462 125.668H161.768C161.908 125.668 162.028 125.719 162.129 125.82C162.231 125.922 162.281 126.042 162.281 126.181V129.487C162.281 129.627 162.231 129.747 162.129 129.848C162.028 129.95 161.908 130 161.768 130H158.462C158.323 130 158.203 129.95 158.101 129.848C158 129.747 157.949 129.627 157.949 129.487V126.181C157.949 126.042 158 125.922 158.101 125.82C158.203 125.719 158.323 125.668 158.462 125.668ZM158.462 116.7H161.768C161.908 116.7 162.028 116.751 162.129 116.852C162.231 116.954 162.281 117.074 162.281 117.213V124.395C162.281 124.535 162.231 124.655 162.129 124.756C162.028 124.858 161.908 124.908 161.768 124.908H158.462C158.323 124.908 158.203 124.858 158.101 124.756C158 124.655 157.949 124.535 157.949 124.395V117.213C157.949 117.074 158 116.954 158.101 116.852C158.203 116.751 158.323 116.7 158.462 116.7Z" fill="#71A9D6"/>
<path d="M152.042 125.668H155.348C155.488 125.668 155.608 125.719 155.709 125.82C155.811 125.922 155.861 126.042 155.861 126.181V129.487C155.861 129.627 155.811 129.747 155.709 129.848C155.608 129.95 155.488 130 155.348 130H152.042C151.903 130 151.783 129.95 151.681 129.848C151.58 129.747 151.529 129.627 151.529 129.487V126.181C151.529 126.042 151.58 125.922 151.681 125.82C151.783 125.719 151.903 125.668 152.042 125.668ZM152.042 116.7H155.348C155.488 116.7 155.608 116.751 155.709 116.852C155.811 116.954 155.861 117.074 155.861 117.213V124.395C155.861 124.535 155.811 124.655 155.709 124.756C155.608 124.858 155.488 124.908 155.348 124.908H152.042C151.903 124.908 151.783 124.858 151.681 124.756C151.58 124.655 151.529 124.535 151.529 124.395V117.213C151.529 117.074 151.58 116.954 151.681 116.852C151.783 116.751 151.903 116.7 152.042 116.7Z" fill="#71A9D6"/>
<path d="M139.72 127.264C139.72 127.137 139.688 127.036 139.625 126.96C139.46 126.757 138.852 126.561 137.801 126.371C136.75 126.168 135.895 125.82 135.236 125.326C134.59 124.819 134.267 124.116 134.267 123.217C134.267 122.317 134.698 121.545 135.559 120.899C136.42 120.253 137.579 119.93 139.036 119.93C140.505 119.93 141.709 120.234 142.646 120.842C143.583 121.45 144.052 122.064 144.052 122.685C144.052 122.824 144.008 122.944 143.919 123.046C143.843 123.147 143.748 123.198 143.634 123.198H140.442C140.252 123.198 140.018 123.096 139.739 122.894C139.46 122.691 139.251 122.59 139.112 122.59C138.821 122.59 138.675 122.691 138.675 122.894C138.675 123.02 138.707 123.122 138.77 123.198C138.935 123.388 139.625 123.571 140.841 123.749C142.057 123.926 142.963 124.319 143.558 124.927C144.166 125.522 144.47 126.187 144.47 126.922C144.47 127.948 144.008 128.752 143.083 129.335C142.158 129.917 140.847 130.209 139.15 130.209C138.251 130.209 137.453 130.107 136.756 129.905C136.059 129.702 135.527 129.449 135.16 129.145C134.438 128.549 134.077 127.992 134.077 127.473C134.077 127.333 134.121 127.213 134.21 127.112C134.299 127.01 134.406 126.96 134.533 126.96H137.839C138.016 126.96 138.244 127.061 138.523 127.264C138.814 127.454 139.087 127.549 139.34 127.549C139.593 127.549 139.72 127.454 139.72 127.264Z" fill="#71A9D6"/>
<path d="M132.843 124.319V125.82C132.843 127.238 132.463 128.321 131.703 129.069C130.943 129.816 130.012 130.19 128.91 130.19C127.82 130.19 126.946 129.892 126.288 129.297V133.097C126.288 133.236 126.237 133.356 126.136 133.458C126.034 133.559 125.914 133.61 125.775 133.61H122.26C122.12 133.61 122 133.559 121.899 133.458C121.797 133.356 121.747 133.236 121.747 133.097V120.633C121.747 120.493 121.797 120.373 121.899 120.272C122 120.17 122.12 120.12 122.26 120.12H125.49C125.629 120.12 125.749 120.17 125.851 120.272C125.952 120.373 126.003 120.493 126.003 120.633V121.203C126.661 120.354 127.592 119.93 128.796 119.93C129.999 119.93 130.974 120.291 131.722 121.013C132.469 121.722 132.843 122.824 132.843 124.319ZM126.288 124.433V125.839C126.326 126.472 126.642 126.789 127.238 126.789C127.871 126.789 128.188 126.421 128.188 125.687V124.433C128.188 123.698 127.871 123.331 127.238 123.331C126.604 123.331 126.288 123.698 126.288 124.433Z" fill="#71A9D6"/>
<path d="M108.982 117.916C110.148 116.978 111.687 116.51 113.599 116.51C115.512 116.51 117.045 116.985 118.197 117.935C119.363 118.872 119.945 120.196 119.945 121.906V124.87C119.945 126.605 119.369 127.929 118.216 128.841C117.076 129.74 115.537 130.19 113.599 130.19C111.661 130.19 110.116 129.74 108.963 128.841C107.823 127.929 107.253 126.605 107.253 124.87V121.906C107.253 120.183 107.83 118.853 108.982 117.916ZM112.573 126.105C112.827 126.358 113.169 126.485 113.599 126.485C114.03 126.485 114.372 126.358 114.625 126.105C114.879 125.851 115.005 125.465 115.005 124.946V121.754C115.005 121.247 114.879 120.867 114.625 120.614C114.372 120.348 114.03 120.215 113.599 120.215C113.169 120.215 112.827 120.348 112.573 120.614C112.32 120.867 112.193 121.247 112.193 121.754V124.946C112.193 125.465 112.32 125.851 112.573 126.105Z" fill="#71A9D6"/>
<path d="M94.584 117.916C95.7493 116.978 97.2883 116.51 99.201 116.51C101.114 116.51 102.646 116.985 103.799 117.935C104.964 118.872 105.547 120.196 105.547 121.906V124.87C105.547 126.605 104.971 127.929 103.818 128.841C102.678 129.74 101.139 130.19 99.201 130.19C97.263 130.19 95.7176 129.74 94.565 128.841C93.425 127.929 92.855 126.605 92.855 124.87V121.906C92.855 120.183 93.4313 118.853 94.584 117.916ZM98.175 126.105C98.4283 126.358 98.7703 126.485 99.201 126.485C99.6316 126.485 99.9736 126.358 100.227 126.105C100.48 125.851 100.607 125.465 100.607 124.946V121.754C100.607 121.247 100.48 120.867 100.227 120.614C99.9736 120.348 99.6316 120.215 99.201 120.215C98.7703 120.215 98.4283 120.348 98.175 120.614C97.9216 120.867 97.795 121.247 97.795 121.754V124.946C97.795 125.465 97.9216 125.851 98.175 126.105Z" fill="#71A9D6"/>
<circle cx="128" cy="102" r="10.5" stroke="#263238"/>
<path d="M129.344 96.3566L134.469 105.255C134.828 105.882 134.364 106.656 133.625 106.656H123.376C122.636 106.656 122.172 105.882 122.531 105.255L127.656 96.3566C128.025 95.7145 128.975 95.7145 129.344 96.3566Z" stroke="#263238" stroke-linecap="round" stroke-linejoin="round"/>
<path d="M128.5 102.438V100.094" stroke="#263238" stroke-linecap="round" stroke-linejoin="round"/>
<path d="M128.5 105.25C128.888 105.25 129.203 104.935 129.203 104.547C129.203 104.159 128.888 103.844 128.5 103.844C128.112 103.844 127.797 104.159 127.797 104.547C127.797 104.935 128.112 105.25 128.5 105.25Z" fill="#263238"/>
</svg>
