<svg width="24" height="24" viewBox="0 0 24 24" fill="none" xmlns="http://www.w3.org/2000/svg">
<path d="M3.81274 12.6059H8.84131L10.6864 7.74841L11.4574 15.4588L12.7516 10.2543L13.6328 13.6413L14.7068 9.15279L15.6155 14.9631L16.5242 12.4572L20.5462 12.5123" stroke="#0A0D14" stroke-width="0.5" stroke-linecap="round" stroke-linejoin="round"/>
<path d="M16.3372 8.37246V2.86243C16.3372 2.31014 15.8894 1.86243 15.3372 1.86243H9.33716C8.78487 1.86243 8.33716 2.31014 8.33716 2.86243L8.33716 8.36291M16.3372 15.3572V20.8624C16.3372 21.4147 15.8894 21.8624 15.3372 21.8624H9.33716C8.78487 21.8624 8.33716 21.4147 8.33716 20.8624V15.3746" stroke="#0A0D14"/>
<path d="M16.7889 7.86243L21.3374 7.86243C21.8897 7.86243 22.3374 8.31014 22.3374 8.86243L22.3374 14.8624C22.3374 15.4147 21.8897 15.8624 21.3374 15.8624L16.3374 15.8624M7.93421 7.86243L3.3374 7.86243C2.78512 7.86243 2.3374 8.31014 2.3374 8.86243L2.3374 14.8624C2.3374 15.4147 2.78512 15.8624 3.3374 15.8624L8.3374 15.8624" stroke="#0A0D14"/>
</svg>
