<svg width="240" height="44" viewBox="0 0 240 44" fill="none" xmlns="http://www.w3.org/2000/svg">
<rect width="241" height="44" transform="translate(-1)" fill="#ECECEC"/>
<path d="M26 31H20C18.9 31 18 30.1 18 29V15C18 13.9 18.9 13 20 13H26V31ZM28 31H34C35.1 31 36 30.1 36 29V22H28V31ZM36 20V15C36 13.9 35.1 13 34 13H28V20H36Z" fill="#183883"/>
<path d="M81.016 16.8H82.184V28H81.016V16.8ZM74.008 28H72.824V16.8H74.008V28ZM81.128 22.832H73.88V21.792H81.128V22.832ZM89.0236 28.08C88.213 28.08 87.4823 27.8987 86.8316 27.536C86.1916 27.1627 85.685 26.656 85.3116 26.016C84.9383 25.3653 84.7516 24.624 84.7516 23.792C84.7516 22.9493 84.9383 22.208 85.3116 21.568C85.685 20.928 86.1916 20.4267 86.8316 20.064C87.4716 19.7013 88.2023 19.52 89.0236 19.52C89.8556 19.52 90.5916 19.7013 91.2316 20.064C91.8823 20.4267 92.389 20.928 92.7516 21.568C93.125 22.208 93.3116 22.9493 93.3116 23.792C93.3116 24.624 93.125 25.3653 92.7516 26.016C92.389 26.656 91.8823 27.1627 91.2316 27.536C90.581 27.8987 89.845 28.08 89.0236 28.08ZM89.0236 27.072C89.6316 27.072 90.1703 26.9387 90.6396 26.672C91.109 26.3947 91.477 26.0107 91.7436 25.52C92.021 25.0187 92.1596 24.4427 92.1596 23.792C92.1596 23.1307 92.021 22.5547 91.7436 22.064C91.477 21.5733 91.109 21.1947 90.6396 20.928C90.1703 20.6507 89.637 20.512 89.0396 20.512C88.4423 20.512 87.909 20.6507 87.4396 20.928C86.9703 21.1947 86.597 21.5733 86.3196 22.064C86.0423 22.5547 85.9036 23.1307 85.9036 23.792C85.9036 24.4427 86.0423 25.0187 86.3196 25.52C86.597 26.0107 86.9703 26.3947 87.4396 26.672C87.909 26.9387 88.437 27.072 89.0236 27.072ZM106.127 19.52C106.81 19.52 107.402 19.6533 107.903 19.92C108.415 20.176 108.81 20.5707 109.087 21.104C109.375 21.6373 109.519 22.3093 109.519 23.12V28H108.383V23.232C108.383 22.3467 108.17 21.68 107.743 21.232C107.327 20.7733 106.735 20.544 105.967 20.544C105.391 20.544 104.89 20.6667 104.463 20.912C104.047 21.1467 103.722 21.4933 103.487 21.952C103.263 22.4 103.151 22.944 103.151 23.584V28H102.015V23.232C102.015 22.3467 101.802 21.68 101.375 21.232C100.948 20.7733 100.351 20.544 99.5829 20.544C99.0175 20.544 98.5215 20.6667 98.0949 20.912C97.6682 21.1467 97.3375 21.4933 97.1029 21.952C96.8789 22.4 96.7669 22.944 96.7669 23.584V28H95.6309V19.6H96.7189V21.872L96.5429 21.472C96.7989 20.864 97.2095 20.3893 97.7749 20.048C98.3509 19.696 99.0282 19.52 99.8069 19.52C100.628 19.52 101.327 19.728 101.903 20.144C102.479 20.5493 102.852 21.1627 103.023 21.984L102.575 21.808C102.82 21.1253 103.252 20.576 103.871 20.16C104.5 19.7333 105.252 19.52 106.127 19.52ZM116.168 28.08C115.293 28.08 114.525 27.8987 113.864 27.536C113.202 27.1627 112.685 26.656 112.312 26.016C111.938 25.3653 111.752 24.624 111.752 23.792C111.752 22.96 111.928 22.224 112.28 21.584C112.642 20.944 113.133 20.4427 113.752 20.08C114.381 19.7067 115.085 19.52 115.864 19.52C116.653 19.52 117.352 19.7013 117.96 20.064C118.578 20.416 119.064 20.9173 119.416 21.568C119.768 22.208 119.944 22.9493 119.944 23.792C119.944 23.8453 119.938 23.904 119.928 23.968C119.928 24.0213 119.928 24.08 119.928 24.144H112.616V23.296H119.32L118.872 23.632C118.872 23.024 118.738 22.4853 118.472 22.016C118.216 21.536 117.864 21.1627 117.416 20.896C116.968 20.6293 116.45 20.496 115.864 20.496C115.288 20.496 114.77 20.6293 114.312 20.896C113.853 21.1627 113.496 21.536 113.24 22.016C112.984 22.496 112.856 23.0453 112.856 23.664V23.84C112.856 24.48 112.994 25.0453 113.272 25.536C113.56 26.016 113.954 26.3947 114.456 26.672C114.968 26.9387 115.549 27.072 116.2 27.072C116.712 27.072 117.186 26.9813 117.624 26.8C118.072 26.6187 118.456 26.3413 118.776 25.968L119.416 26.704C119.042 27.152 118.573 27.4933 118.008 27.728C117.453 27.9627 116.84 28.08 116.168 28.08Z" fill="#183883"/>
</svg>
