<svg width="240" height="44" viewBox="0 0 240 44" fill="none" xmlns="http://www.w3.org/2000/svg">
<rect width="241" height="44" transform="translate(-1)" fill="white"/>
<path d="M18 31H36M18 20H36M19 20V31M35 20V31M23 24V27M27 24V27M31 24V27" stroke="#fffdfd" stroke-width="1.5" stroke-linecap="round" stroke-linejoin="round"/>
<path d="M20 16L27 13L34 16" stroke="#fffdfd" stroke-width="1.5" stroke-linecap="round"/>
<path d="M71.032 28L76.152 16.8H77.32L82.44 28H81.192L76.488 17.488H76.968L72.264 28H71.032ZM73.048 25.008L73.4 24.048H79.912L80.264 25.008H73.048ZM87.4626 28.08C86.6306 28.08 85.884 27.8987 85.2226 27.536C84.572 27.1627 84.06 26.656 83.6866 26.016C83.3133 25.3653 83.1266 24.624 83.1266 23.792C83.1266 22.9493 83.3133 22.208 83.6866 21.568C84.06 20.928 84.572 20.4267 85.2226 20.064C85.884 19.7013 86.6306 19.52 87.4626 19.52C88.1773 19.52 88.8226 19.6587 89.3986 19.936C89.9746 20.2133 90.428 20.6293 90.7586 21.184L89.9106 21.76C89.6226 21.3333 89.2653 21.0187 88.8386 20.816C88.412 20.6133 87.948 20.512 87.4466 20.512C86.8493 20.512 86.3106 20.6507 85.8306 20.928C85.3506 21.1947 84.972 21.5733 84.6946 22.064C84.4173 22.5547 84.2786 23.1307 84.2786 23.792C84.2786 24.4533 84.4173 25.0293 84.6946 25.52C84.972 26.0107 85.3506 26.3947 85.8306 26.672C86.3106 26.9387 86.8493 27.072 87.4466 27.072C87.948 27.072 88.412 26.9707 88.8386 26.768C89.2653 26.5653 89.6226 26.256 89.9106 25.84L90.7586 26.416C90.428 26.96 89.9746 27.376 89.3986 27.664C88.8226 27.9413 88.1773 28.08 87.4626 28.08ZM96.3376 28.08C95.5056 28.08 94.759 27.8987 94.0976 27.536C93.447 27.1627 92.935 26.656 92.5616 26.016C92.1883 25.3653 92.0016 24.624 92.0016 23.792C92.0016 22.9493 92.1883 22.208 92.5616 21.568C92.935 20.928 93.447 20.4267 94.0976 20.064C94.759 19.7013 95.5056 19.52 96.3376 19.52C97.0523 19.52 97.6976 19.6587 98.2736 19.936C98.8496 20.2133 99.303 20.6293 99.6336 21.184L98.7856 21.76C98.4976 21.3333 98.1403 21.0187 97.7136 20.816C97.287 20.6133 96.823 20.512 96.3216 20.512C95.7243 20.512 95.1856 20.6507 94.7056 20.928C94.2256 21.1947 93.847 21.5733 93.5696 22.064C93.2923 22.5547 93.1536 23.1307 93.1536 23.792C93.1536 24.4533 93.2923 25.0293 93.5696 25.52C93.847 26.0107 94.2256 26.3947 94.7056 26.672C95.1856 26.9387 95.7243 27.072 96.3216 27.072C96.823 27.072 97.287 26.9707 97.7136 26.768C98.1403 26.5653 98.4976 26.256 98.7856 25.84L99.6336 26.416C99.303 26.96 98.8496 27.376 98.2736 27.664C97.6976 27.9413 97.0523 28.08 96.3376 28.08ZM105.149 28.08C104.338 28.08 103.607 27.8987 102.957 27.536C102.317 27.1627 101.81 26.656 101.437 26.016C101.063 25.3653 100.877 24.624 100.877 23.792C100.877 22.9493 101.063 22.208 101.437 21.568C101.81 20.928 102.317 20.4267 102.957 20.064C103.597 19.7013 104.327 19.52 105.149 19.52C105.981 19.52 106.717 19.7013 107.357 20.064C108.007 20.4267 108.514 20.928 108.877 21.568C109.25 22.208 109.437 22.9493 109.437 23.792C109.437 24.624 109.25 25.3653 108.877 26.016C108.514 26.656 108.007 27.1627 107.357 27.536C106.706 27.8987 105.97 28.08 105.149 28.08ZM105.149 27.072C105.757 27.072 106.295 26.9387 106.765 26.672C107.234 26.3947 107.602 26.0107 107.869 25.52C108.146 25.0187 108.285 24.4427 108.285 23.792C108.285 23.1307 108.146 22.5547 107.869 22.064C107.602 21.5733 107.234 21.1947 106.765 20.928C106.295 20.6507 105.762 20.512 105.165 20.512C104.567 20.512 104.034 20.6507 103.565 20.928C103.095 21.1947 102.722 21.5733 102.445 22.064C102.167 22.5547 102.029 23.1307 102.029 23.792C102.029 24.4427 102.167 25.0187 102.445 25.52C102.722 26.0107 103.095 26.3947 103.565 26.672C104.034 26.9387 104.562 27.072 105.149 27.072ZM115.228 28.08C114.513 28.08 113.889 27.9467 113.356 27.68C112.823 27.4133 112.407 27.0133 112.108 26.48C111.82 25.9467 111.676 25.28 111.676 24.48V19.6H112.812V24.352C112.812 25.248 113.031 25.9253 113.468 26.384C113.916 26.832 114.54 27.056 115.34 27.056C115.927 27.056 116.433 26.9387 116.86 26.704C117.297 26.4587 117.628 26.1067 117.852 25.648C118.087 25.1893 118.204 24.64 118.204 24V19.6H119.34V28H118.252V25.696L118.428 26.112C118.161 26.7307 117.745 27.216 117.18 27.568C116.625 27.9093 115.975 28.08 115.228 28.08ZM126.794 19.52C127.477 19.52 128.074 19.6533 128.586 19.92C129.109 20.176 129.514 20.5707 129.802 21.104C130.101 21.6373 130.25 22.3093 130.25 23.12V28H129.114V23.232C129.114 22.3467 128.89 21.68 128.442 21.232C128.005 20.7733 127.386 20.544 126.586 20.544C125.989 20.544 125.466 20.6667 125.018 20.912C124.581 21.1467 124.239 21.4933 123.994 21.952C123.759 22.4 123.642 22.944 123.642 23.584V28H122.506V19.6H123.594V21.904L123.418 21.472C123.685 20.864 124.111 20.3893 124.698 20.048C125.285 19.696 125.983 19.52 126.794 19.52ZM135.974 28.08C135.185 28.08 134.577 27.8667 134.15 27.44C133.724 27.0133 133.51 26.4107 133.51 25.632V17.744H134.646V25.568C134.646 26.0587 134.769 26.4373 135.014 26.704C135.27 26.9707 135.633 27.104 136.102 27.104C136.604 27.104 137.02 26.96 137.35 26.672L137.75 27.488C137.526 27.6907 137.254 27.84 136.934 27.936C136.625 28.032 136.305 28.08 135.974 28.08ZM132.006 20.544V19.6H137.206V20.544H132.006ZM142.074 28.08C141.381 28.08 140.725 27.984 140.106 27.792C139.488 27.5893 139.002 27.3387 138.65 27.04L139.162 26.144C139.504 26.4 139.941 26.624 140.474 26.816C141.008 26.9973 141.568 27.088 142.154 27.088C142.954 27.088 143.53 26.9653 143.882 26.72C144.234 26.464 144.41 26.128 144.41 25.712C144.41 25.4027 144.309 25.1627 144.106 24.992C143.914 24.8107 143.658 24.6773 143.338 24.592C143.018 24.496 142.661 24.416 142.266 24.352C141.872 24.288 141.477 24.2133 141.082 24.128C140.698 24.0427 140.346 23.92 140.026 23.76C139.706 23.5893 139.445 23.36 139.242 23.072C139.05 22.784 138.954 22.4 138.954 21.92C138.954 21.4613 139.082 21.0507 139.338 20.688C139.594 20.3253 139.968 20.0427 140.458 19.84C140.96 19.6267 141.568 19.52 142.282 19.52C142.826 19.52 143.37 19.5947 143.914 19.744C144.458 19.8827 144.906 20.0693 145.258 20.304L144.762 21.216C144.389 20.96 143.989 20.7787 143.562 20.672C143.136 20.5547 142.709 20.496 142.282 20.496C141.525 20.496 140.965 20.6293 140.602 20.896C140.25 21.152 140.074 21.4827 140.074 21.888C140.074 22.208 140.17 22.4587 140.362 22.64C140.565 22.8213 140.826 22.9653 141.146 23.072C141.477 23.168 141.834 23.248 142.218 23.312C142.613 23.376 143.002 23.456 143.386 23.552C143.781 23.6373 144.138 23.76 144.458 23.92C144.789 24.0693 145.05 24.288 145.242 24.576C145.445 24.8533 145.546 25.2213 145.546 25.68C145.546 26.1707 145.408 26.5973 145.13 26.96C144.864 27.312 144.469 27.5893 143.946 27.792C143.434 27.984 142.81 28.08 142.074 28.08Z" fill="#fffdfd"/>
</svg>
