<svg xmlns="http://www.w3.org/2000/svg" width="27" height="26" viewBox="0 0 27 26" fill="none">
  <path d="M11.7987 16.4435C9.53379 16.4435 7.68491 14.5946 7.68491 12.3297C7.68491 10.0647 9.53379 8.21585 11.7987 8.21585C14.0636 8.21585 15.9125 10.0647 15.9125 12.3297C15.9125 14.5946 14.0636 16.4435 11.7987 16.4435ZM11.7987 9.96075C10.4929 9.96075 9.41824 11.0239 9.41824 12.3412C9.41824 13.6586 10.4814 14.7217 11.7987 14.7217C13.116 14.7217 14.1791 13.6586 14.1791 12.3412C14.1791 11.0239 13.116 9.96075 11.7987 9.96075Z" fill="#323232"/>
  <path d="M17.795 23.92C17.3212 23.92 16.9283 23.5271 16.9283 23.0533C16.9283 20.8347 14.6287 19.032 11.7976 19.032C8.96654 19.032 6.66699 20.8347 6.66699 23.0533C6.66699 23.5271 6.2741 23.92 5.80032 23.92C5.32654 23.92 4.93365 23.5271 4.93365 23.0533C4.93365 19.8871 8.00743 17.2987 11.7976 17.2987C15.5878 17.2987 18.6616 19.8756 18.6616 23.0533C18.6616 23.5271 18.2687 23.92 17.795 23.92Z" fill="#323232"/>
  <path d="M11.8444 26C5.31556 26 0 20.6844 0 14.1555C0 7.62665 5.31556 2.3111 11.8444 2.3111C13.4507 2.3111 14.9991 2.62308 16.4551 3.23553C16.8711 3.40886 17.0791 3.87106 16.9404 4.29862C16.8133 4.67995 16.7556 5.08443 16.7556 5.48887C16.7556 6.17065 16.9404 6.84085 17.2987 7.41863C17.4836 7.74219 17.7262 8.03106 18.0036 8.27373C19.0089 9.18662 20.4996 9.47558 21.6667 9.05958C22.0942 8.8978 22.5796 9.11733 22.7529 9.54489C23.3769 11.0124 23.6889 12.5724 23.6889 14.1671C23.6889 20.6844 18.3733 26 11.8444 26ZM11.8444 4.04443C6.27467 4.04443 1.73333 8.57421 1.73333 14.1555C1.73333 19.7369 6.27467 24.2667 11.8444 24.2667C17.4142 24.2667 21.9556 19.7369 21.9556 14.1555C21.9556 13.0462 21.7707 11.9484 21.424 10.8969C19.8293 11.1742 18.0844 10.6773 16.8596 9.55645C16.4551 9.20979 16.0969 8.78221 15.8196 8.30843C15.3111 7.47643 15.0338 6.49421 15.0338 5.48887C15.0338 5.17687 15.0569 4.87645 15.1147 4.57601C14.0631 4.21779 12.9653 4.04443 11.8444 4.04443Z" fill="#323232"/>
  <path d="M20.5112 10.9778C19.1476 10.9778 17.8534 10.4694 16.8481 9.55647C16.4436 9.2098 16.0854 8.78222 15.8081 8.30844C15.2996 7.47644 15.0223 6.49422 15.0223 5.48889C15.0223 4.89956 15.1147 4.32179 15.2996 3.76712C15.5538 2.98134 15.9929 2.25333 16.5823 1.664C17.6223 0.600891 19.0205 0 20.5227 0C22.0943 0 23.5849 0.670242 24.6018 1.8258C25.5032 2.83113 26.0116 4.12533 26.0116 5.48889C26.0116 5.928 25.9538 6.3671 25.8383 6.78311C25.7227 7.3031 25.5032 7.84623 25.2027 8.32001C24.5325 9.45246 23.4694 10.296 22.2214 10.6889C21.7014 10.8853 21.1236 10.9778 20.5112 10.9778ZM20.5112 1.73333C19.4827 1.73333 18.5236 2.13775 17.8187 2.86575C17.4143 3.28175 17.1254 3.75552 16.9521 4.29863C16.8249 4.67997 16.7672 5.08444 16.7672 5.48889C16.7672 6.17067 16.9521 6.84087 17.3103 7.41864C17.4952 7.7422 17.7378 8.03108 18.0152 8.27374C19.0205 9.18663 20.5112 9.47559 21.6783 9.05959C22.5565 8.78226 23.2729 8.20443 23.7352 7.43021C23.9432 7.0951 24.0818 6.73691 24.1627 6.37869C24.2436 6.07825 24.2783 5.78933 24.2783 5.48889C24.2783 4.56444 23.9316 3.67469 23.3076 2.98136C22.6027 2.18402 21.5858 1.73333 20.5112 1.73333Z" fill="#323232"/>
  <path d="M22.2329 6.33241H18.7778C18.304 6.33241 17.9111 5.93952 17.9111 5.46574C17.9111 4.99196 18.304 4.59908 18.7778 4.59908H22.2329C22.7067 4.59908 23.0996 4.99196 23.0996 5.46574C23.0996 5.93952 22.7182 6.33241 22.2329 6.33241Z" fill="#323232"/>
  <path d="M20.5112 8.10047C20.0374 8.10047 19.6445 7.70758 19.6445 7.2338V3.7787C19.6445 3.30492 20.0374 2.91203 20.5112 2.91203C20.985 2.91203 21.3779 3.30492 21.3779 3.7787V7.2338C21.3779 7.71913 20.985 8.10047 20.5112 8.10047Z" fill="#323232"/>
</svg>