<svg width="24" height="24" viewBox="0 0 24 24" fill="none" xmlns="http://www.w3.org/2000/svg">
<g clip-path="url(#clip0_4_566)">
<g filter="url(#filter0_i_4_566)">
<path d="M6.1098 3.82596C6.1098 3.312 6.31666 2.81908 6.68487 2.45566C7.05307 2.09223 7.55247 1.88806 8.0732 1.88806H15.9268C16.4475 1.88806 16.9469 2.09223 17.3151 2.45566C17.6833 2.81908 17.8902 3.312 17.8902 3.82596V20.2981C17.8902 20.812 17.6833 21.3049 17.3151 21.6684C16.9469 22.0318 16.4475 22.236 15.9268 22.236H8.0732C7.55247 22.236 7.05307 22.0318 6.68487 21.6684C6.31666 21.3049 6.1098 20.812 6.1098 20.2981V3.82596Z" fill="black"/>
</g>
<path d="M6.74976 4.41171C6.74976 3.9343 6.93414 3.47644 7.26234 3.13886C7.59054 2.80128 8.03568 2.61163 8.49983 2.61163H15.5001C15.9643 2.61163 16.4094 2.80128 16.7376 3.13886C17.0658 3.47644 17.2502 3.9343 17.2502 4.41171V19.7123C17.2502 20.1897 17.0658 20.6476 16.7376 20.9852C16.4094 21.3228 15.9643 21.5124 15.5001 21.5124H8.49983C8.03568 21.5124 7.59054 21.3228 7.26234 20.9852C6.93414 20.6476 6.74976 20.1897 6.74976 19.7123V4.41171Z" fill="white"/>
<path d="M11.4645 3.86621H12.2677" stroke="black" stroke-linecap="round" stroke-linejoin="round"/>
<circle cx="12" cy="20.0941" r="1.07094" fill="black"/>
</g>
<defs>
<filter id="filter0_i_4_566" x="6.1098" y="1.88806" width="11.7803" height="21.3479" filterUnits="userSpaceOnUse" color-interpolation-filters="sRGB">
<feFlood flood-opacity="0" result="BackgroundImageFix"/>
<feBlend mode="normal" in="SourceGraphic" in2="BackgroundImageFix" result="shape"/>
<feColorMatrix in="SourceAlpha" type="matrix" values="0 0 0 0 0 0 0 0 0 0 0 0 0 0 0 0 0 0 127 0" result="hardAlpha"/>
<feOffset dy="1"/>
<feGaussianBlur stdDeviation="1"/>
<feComposite in2="hardAlpha" operator="arithmetic" k2="-1" k3="1"/>
<feColorMatrix type="matrix" values="0 0 0 0 0 0 0 0 0 0 0 0 0 0 0 0 0 0 0.3 0"/>
<feBlend mode="normal" in2="shape" result="effect1_innerShadow_4_566"/>
</filter>
<clipPath id="clip0_4_566">
<rect width="24" height="24" fill="white"/>
</clipPath>
</defs>
</svg>
