<svg width="19" height="26" viewBox="0 0 19 26" fill="none" xmlns="http://www.w3.org/2000/svg">
<g id="Group 16529">
<path id="Rectangle 99" d="M1.07908 4.24927C0.933884 2.36169 2.42635 0.75 4.31951 0.75H14.6805C16.5736 0.75 18.0661 2.36168 17.9209 4.24926L16.5363 22.2493C16.4061 23.9425 14.9941 25.25 13.2959 25.25H5.70412C4.00588 25.25 2.59395 23.9425 2.4637 22.2493L1.07908 4.24927Z" stroke="#323232" stroke-width="1.5"/>
<circle id="Ellipse 9" cx="9.5" cy="8.5" r="3.71" stroke="#323232" stroke-width="1.58"/>
<path id="Rectangle 100" d="M5.77715 16.1861C5.66524 15.2908 6.36332 14.5 7.26556 14.5H11.7344C12.6367 14.5 13.3348 15.2908 13.2229 16.1861L12.7229 20.1861C12.629 20.9367 11.9909 21.5 11.2344 21.5H7.76556C7.00908 21.5 6.37098 20.9367 6.27715 20.1861L5.77715 16.1861Z" stroke="#323232"/>
<rect id="Rectangle 101" x="7" y="16" width="2" height="2" fill="#323232"/>
<rect id="Rectangle 102" x="9" y="19" width="3" height="1" fill="#323232"/>
<rect id="Rectangle 104" x="7" y="19" width="1" height="1" fill="#323232"/>
<rect id="Rectangle 103" x="10" y="16" width="2" height="1" fill="#323232"/>
</g>
</svg>
