<svg width="26" height="27" viewBox="0 0 26 27" fill="none" xmlns="http://www.w3.org/2000/svg">
<g id="Vector">
<g id="Vector_2">
<path d="M10.7667 3.256C11.3347 0.914667 14.6653 0.914667 15.2333 3.256C15.3186 3.60773 15.4856 3.93437 15.7209 4.20933C15.9563 4.48429 16.2532 4.69981 16.5875 4.83833C16.9219 4.97685 17.2842 5.03447 17.645 5.00649C18.0059 4.97852 18.355 4.86574 18.664 4.67733C20.7213 3.424 23.0773 5.77867 21.824 7.83733C21.6359 8.14621 21.5233 8.49512 21.4954 8.8557C21.4674 9.21628 21.525 9.57836 21.6634 9.91251C21.8017 10.2467 22.017 10.5434 22.2916 10.7787C22.5663 11.014 22.8926 11.1812 23.244 11.2667C25.5853 11.8347 25.5853 15.1653 23.244 15.7333C22.8923 15.8186 22.5656 15.9856 22.2907 16.2209C22.0157 16.4563 21.8002 16.7532 21.6617 17.0875C21.5232 17.4219 21.4655 17.7842 21.4935 18.145C21.5215 18.5059 21.6343 18.855 21.8227 19.164C23.076 21.2213 20.7213 23.5773 18.6627 22.324C18.3538 22.1359 18.0049 22.0233 17.6443 21.9954C17.2837 21.9674 16.9216 22.025 16.5875 22.1634C16.2533 22.3017 15.9566 22.517 15.7213 22.7916C15.486 23.0663 15.3188 23.3926 15.2333 23.744C14.6653 26.0853 11.3347 26.0853 10.7667 23.744C10.6814 23.3923 10.5144 23.0656 10.2791 22.7907C10.0437 22.5157 9.74682 22.3002 9.41246 22.1617C9.07811 22.0232 8.71578 21.9655 8.35495 21.9935C7.99413 22.0215 7.645 22.1343 7.336 22.3227C5.27867 23.576 2.92267 21.2213 4.176 19.1627C4.36414 18.8538 4.47673 18.5049 4.50465 18.1443C4.53256 17.7837 4.47499 17.4216 4.33663 17.0875C4.19827 16.7533 3.98301 16.4566 3.70836 16.2213C3.43371 15.986 3.10742 15.8188 2.756 15.7333C0.414667 15.1653 0.414667 11.8347 2.756 11.2667C3.10773 11.1814 3.43437 11.0144 3.70933 10.7791C3.98429 10.5437 4.19981 10.2468 4.33833 9.91246C4.47685 9.57811 4.53447 9.21578 4.50649 8.85495C4.47852 8.49413 4.36574 8.145 4.17733 7.836C2.924 5.77867 5.27867 3.42267 7.33733 4.676C8.67067 5.48667 10.3987 4.76933 10.7667 3.256Z" stroke="#fffdfd" stroke-width="1.5" stroke-linecap="round" stroke-linejoin="round"/>
<path d="M9 13.5C9 14.5609 9.42143 15.5783 10.1716 16.3284C10.9217 17.0786 11.9391 17.5 13 17.5C14.0609 17.5 15.0783 17.0786 15.8284 16.3284C16.5786 15.5783 17 14.5609 17 13.5C17 12.4391 16.5786 11.4217 15.8284 10.6716C15.0783 9.92143 14.0609 9.5 13 9.5C11.9391 9.5 10.9217 9.92143 10.1716 10.6716C9.42143 11.4217 9 12.4391 9 13.5Z" stroke="#fffdfd" stroke-width="1.5" stroke-linecap="round" stroke-linejoin="round"/>
</g>
</g>
</svg>
