<svg width="24" height="24" viewBox="0 0 24 24" fill="none" xmlns="http://www.w3.org/2000/svg">
<path d="M4 7.8C4 6.11984 4 5.27976 4.32698 4.63803C4.6146 4.07354 5.07354 3.6146 5.63803 3.32698C6.27976 3 7.11984 3 8.8 3H15.2C16.8802 3 17.7202 3 18.362 3.32698C18.9265 3.6146 19.3854 4.07354 19.673 4.63803C20 5.27976 20 6.11984 20 7.8V21L17.25 20L14.75 21L12 20L9.25 21L6.75 20L4 21V7.8Z" stroke="black" stroke-linecap="round" stroke-linejoin="round"/>
<path d="M7.13306 7.28027H16.1886" stroke="black" stroke-linecap="round"/>
<path d="M7.13306 9.70251H14.1331" stroke="black" stroke-linecap="round"/>
<path d="M7.13306 12H12.552" stroke="black" stroke-linecap="round"/>
</svg>
