<svg width="22" height="32" viewBox="0 0 22 32" fill="none" xmlns="http://www.w3.org/2000/svg">
<g id="UPI ">
<g id="Vector 2">
<path d="M7.18182 29.6364L14.4263 3.72727C16.3705 7.51733 20.348 15.1596 20.7499 15.9052C21.1089 16.5712 21.0569 16.775 20.7499 17.1478L7.18182 29.6364Z" stroke="#323232" stroke-width="1.5"/>
<path d="M7.18182 29.6364L14.4263 3.72727C16.3705 7.51733 20.348 15.1596 20.7499 15.9052C21.1089 16.5712 21.0569 16.775 20.7499 17.1478L7.18182 29.6364Z" stroke="#323232" stroke-width="1.5"/>
<path d="M7.18182 29.6364L14.4263 3.72727C16.3705 7.51733 20.348 15.1596 20.7499 15.9052C21.1089 16.5712 21.0569 16.775 20.7499 17.1478L7.18182 29.6364Z" stroke="#323232" stroke-width="1.5"/>
</g>
<path id="Vector 1" d="M2 28.7727L9.69727 2C11.7629 5.91639 15.9891 13.8134 16.4161 14.5838C16.7975 15.2721 16.7422 15.4827 16.4161 15.8679L2 28.7727Z" fill="#fff" stroke="#323232" stroke-width="1.5"/>
</g>
</svg>
