<svg width="24" height="24" viewBox="0 0 24 24" fill="none" xmlns="http://www.w3.org/2000/svg">
<g clip-path="url(#clip0_4_600)">
<g clip-path="url(#clip1_4_600)">
<path d="M5.88892 9.26758V20.5556C5.88892 21.2306 6.43612 21.7778 7.11114 21.7778H16.8889C17.5639 21.7778 18.1111 21.2306 18.1111 20.5556V9.26758" stroke="black"/>
<g filter="url(#filter0_d_4_600)">
<rect x="4.66669" y="2.22223" width="14.6667" height="7.33333" rx="1.22222" stroke="black" stroke-linecap="round" stroke-linejoin="round" shape-rendering="crispEdges"/>
</g>
<rect x="8.33331" y="14.4445" width="0.611111" height="0.611111" fill="black"/>
<rect x="8.33331" y="15.6667" width="0.611111" height="0.611111" fill="black"/>
<rect x="8.33331" y="16.8889" width="0.611111" height="0.611111" fill="black"/>
<rect x="10.1667" y="14.4445" width="0.611111" height="0.611111" fill="black"/>
<rect x="10.1667" y="15.6667" width="0.611111" height="0.611111" fill="black"/>
<rect x="10.1667" y="16.8889" width="0.611111" height="0.611111" fill="black"/>
<rect x="12" y="14.4445" width="0.611111" height="0.611111" fill="black"/>
<rect x="9.55554" y="19.3333" width="3.05556" height="0.611111" fill="black"/>
<rect x="13.2222" y="15.6667" width="3.05556" height="0.611111" fill="black"/>
<rect x="12" y="15.6667" width="0.611111" height="0.611111" fill="black"/>
<rect x="12" y="16.8889" width="0.611111" height="0.611111" fill="black"/>
<rect x="8.33331" y="12.2615" width="7.33333" height="0.960741" fill="black"/>
<circle cx="17.4707" cy="16.5945" r="3.83298" fill="white" stroke="black"/>
</g>
<g clip-path="url(#clip2_4_600)">
<path d="M17.5 17.2292H16.5625C16.2718 17.2292 16.1264 17.2292 16.0081 17.265C15.7418 17.3458 15.5334 17.5543 15.4526 17.8206C15.4167 17.9389 15.4167 18.0843 15.4167 18.375M18.9584 18.375V17.125M18.3334 17.75H19.5834M18.0209 15.5625C18.0209 16.0803 17.6011 16.5 17.0834 16.5C16.5656 16.5 16.1459 16.0803 16.1459 15.5625C16.1459 15.0447 16.5656 14.625 17.0834 14.625C17.6011 14.625 18.0209 15.0447 18.0209 15.5625Z" stroke="black" stroke-width="0.5" stroke-linecap="round" stroke-linejoin="round"/>
</g>
</g>
<defs>
<filter id="filter0_d_4_600" x="-17.8333" y="-0.722216" width="59.6667" height="52.3333" filterUnits="userSpaceOnUse" color-interpolation-filters="sRGB">
<feFlood flood-opacity="0" result="BackgroundImageFix"/>
<feColorMatrix in="SourceAlpha" type="matrix" values="0 0 0 0 0 0 0 0 0 0 0 0 0 0 0 0 0 0 127 0" result="hardAlpha"/>
<feMorphology radius="17.1111" operator="erode" in="SourceAlpha" result="effect1_dropShadow_4_600"/>
<feOffset dy="19.5556"/>
<feGaussianBlur stdDeviation="19.5556"/>
<feComposite in2="hardAlpha" operator="out"/>
<feColorMatrix type="matrix" values="0 0 0 0 0.0117647 0 0 0 0 0.113725 0 0 0 0 0.207843 0 0 0 0.11 0"/>
<feBlend mode="normal" in2="BackgroundImageFix" result="effect1_dropShadow_4_600"/>
<feBlend mode="normal" in="SourceGraphic" in2="effect1_dropShadow_4_600" result="shape"/>
</filter>
<clipPath id="clip0_4_600">
<rect width="24" height="24" fill="white"/>
</clipPath>
<clipPath id="clip1_4_600">
<rect width="22" height="22" fill="white" transform="translate(1 1)"/>
</clipPath>
<clipPath id="clip2_4_600">
<rect width="5" height="5" fill="white" transform="translate(15 14)"/>
</clipPath>
</defs>
</svg>
