<svg width="22" height="22" viewBox="0 0 22 22" fill="none" xmlns="http://www.w3.org/2000/svg">
<path d="M1 11C1 8.28 2.64 6.38 5.19 6.06C5.45 6.02 5.72 6 6 6H16C16.26 6 16.51 6.00999 16.75 6.04999C19.33 6.34999 21 8.26 21 11V16C21 19 19 21 16 21H6C3 21 1 19 1 16V10.01" stroke="#323232" stroke-width="1.5" stroke-linecap="round" stroke-linejoin="round"/>
<path d="M16.7495 6.05C16.5095 6.01 16.2595 6.00001 15.9995 6.00001H5.99945C5.71945 6.00001 5.44945 6.02001 5.18945 6.06001C5.32945 5.78001 5.52945 5.52001 5.76945 5.28001L9.0195 2.02C10.3895 0.66 12.6095 0.66 13.9795 2.02L15.7295 3.79002C16.3695 4.42002 16.7095 5.22 16.7495 6.05Z" stroke="#323232" stroke-width="1.5" stroke-linecap="round" stroke-linejoin="round"/>
<path d="M21 11.5H18C16.9 11.5 16 12.4 16 13.5C16 14.6 16.9 15.5 18 15.5H21" stroke="#323232" stroke-width="1.5" stroke-linecap="round" stroke-linejoin="round"/>
<path d="M14.8809 12.9116C14.8809 13.3183 14.8183 13.6973 14.6931 14.0484C14.5715 14.3995 14.4081 14.6898 14.2029 14.9193C14.0013 15.1487 13.7719 15.3278 13.5146 15.4564C13.2573 15.585 12.9948 15.6494 12.7271 15.6494C12.4455 15.6494 12.2109 15.5711 12.0231 15.4147C11.8354 15.2582 11.7224 15.0392 11.6842 14.7576C11.5277 14.9801 11.3313 15.1765 11.0949 15.3469C10.8585 15.5172 10.5891 15.6024 10.2866 15.6024C9.83465 15.6024 9.47482 15.4408 9.20713 15.1174C8.93943 14.7906 8.80559 14.3474 8.80559 13.7877C8.80559 13.068 8.99854 12.4683 9.38443 11.9885C9.77381 11.5088 10.3075 11.2689 10.9854 11.2689C11.4825 11.2689 12.011 11.3645 12.5707 11.5557C12.5464 11.7295 12.5081 11.9816 12.456 12.3119C12.4073 12.6387 12.3691 12.8959 12.3413 13.0837C12.3169 13.2714 12.2926 13.48 12.2682 13.7094C12.2439 13.9389 12.2317 14.1266 12.2317 14.2726C12.2317 14.7663 12.4247 15.0131 12.8106 15.0131C13.1617 15.0131 13.4798 14.8046 13.7649 14.3874C14.0535 13.9667 14.1977 13.4626 14.1977 12.8751C14.1977 11.9538 13.8918 11.222 13.2799 10.6796C12.6715 10.1373 11.8823 9.86609 10.9124 9.86609C10.2136 9.86609 9.58607 10.0278 9.02982 10.3511C8.47705 10.6744 8.04596 11.1211 7.73654 11.6913C7.43061 12.2614 7.27764 12.9029 7.27764 13.6156C7.27764 14.6794 7.5801 15.5138 8.18502 16.1187C8.79342 16.7236 9.6052 17.0261 10.6204 17.0261C11.486 17.0261 12.2613 16.8296 12.9462 16.4368L13.1287 17.0156C12.4681 17.4606 11.6303 17.6831 10.6151 17.6831C9.39834 17.6831 8.42143 17.3198 7.68439 16.5932C6.94736 15.8666 6.57885 14.881 6.57885 13.6364C6.57885 13.0176 6.68662 12.4353 6.90217 11.8895C7.12119 11.3436 7.42018 10.876 7.79912 10.4867C8.18154 10.0938 8.64566 9.78439 9.19148 9.55842C9.7373 9.33244 10.3266 9.21945 10.9593 9.21945C11.7033 9.21945 12.3708 9.36895 12.9618 9.66793C13.5528 9.96691 14.0204 10.398 14.3646 10.9612C14.7088 11.5244 14.8809 12.1745 14.8809 12.9116ZM9.54609 13.8242C9.54609 14.1683 9.61563 14.4395 9.75469 14.6377C9.89723 14.8358 10.1076 14.9349 10.3857 14.9349C10.7542 14.9349 11.0341 14.7837 11.2253 14.4812C11.4165 14.1753 11.5469 13.7459 11.6164 13.1932C11.6477 12.9463 11.6929 12.55 11.752 12.0042C11.5538 11.9346 11.3 11.8999 10.9906 11.8999C10.6708 11.8999 10.3996 11.9885 10.1771 12.1658C9.95807 12.3431 9.79814 12.5743 9.69732 12.8594C9.5965 13.141 9.54609 13.4626 9.54609 13.8242Z" fill="#323232"/>
</svg>
